<svg xmlns="http://www.w3.org/2000/svg" viewBox="0 0 500 500"><g id="freepik--Newspaper--inject-79"><rect x="80.13" y="93.94" width="339.74" height="263.05" style="fill:#c7c7c7"></rect><polygon points="419.87 356.99 80.13 356.99 80.13 85.53 345.94 85.53 419.87 151.55 419.87 356.99" style="fill:#ebebeb"></polygon><path d="M177.37,132.56v27.1H171.3V121.17h4.77l22,27.76V121.22h6.13v38.44h-5Z" style="fill:#450D87"></path><path d="M239.29,154.3v5.36h-26.4V121.17H238.8v5.37H219v11h17.19v5H219V154.3Z" style="fill:#450D87"></path><path d="M259.24,121.33H265l4.72,13.07,4.77-13.07h5.69l-6.56,17.14,5.75,14.15,12-31.45H298l-15.89,38.49h-5.2l-7.16-17.24-7.21,17.24h-5.2l-15.89-38.49h6.61l12,31.45,5.75-14.15Z" style="fill:#450D87"></path><path d="M324.42,130.22a8.84,8.84,0,0,0-1.58-1.27,15,15,0,0,0-2.41-1.27,16.93,16.93,0,0,0-3-1,15.23,15.23,0,0,0-3.38-.38q-3.86,0-5.67,1.41a4.67,4.67,0,0,0-1.82,3.9,4.25,4.25,0,0,0,.57,2.31,5,5,0,0,0,1.76,1.57,13.77,13.77,0,0,0,3,1.19q1.79.53,4.17,1.11a47.39,47.39,0,0,1,5.29,1.58,15.06,15.06,0,0,1,4,2.11,8.46,8.46,0,0,1,2.52,3.06,9.92,9.92,0,0,1,.9,4.42,10.73,10.73,0,0,1-1.11,5.05,9.52,9.52,0,0,1-3,3.44,13.14,13.14,0,0,1-4.47,1.95,22.83,22.83,0,0,1-5.48.62,27.44,27.44,0,0,1-8.48-1.32,24.33,24.33,0,0,1-7.4-3.88l2.76-5.21a13.22,13.22,0,0,0,2,1.58,20.2,20.2,0,0,0,3.09,1.6,27.75,27.75,0,0,0,3.83,1.24,17.24,17.24,0,0,0,4.28.52,10.27,10.27,0,0,0,5.53-1.25,4.1,4.1,0,0,0,1.95-3.69,4,4,0,0,0-.73-2.44,6.15,6.15,0,0,0-2.09-1.7,18.06,18.06,0,0,0-3.3-1.33c-1.31-.4-2.79-.82-4.45-1.25a44.78,44.78,0,0,1-5-1.6,12.77,12.77,0,0,1-3.55-2,8.09,8.09,0,0,1-2.14-2.79,9.27,9.27,0,0,1-.73-3.88,11.26,11.26,0,0,1,1.08-5,10.76,10.76,0,0,1,3-3.68,12.73,12.73,0,0,1,4.42-2.25,19.15,19.15,0,0,1,5.53-.76,20.33,20.33,0,0,1,7.21,1.24,24.17,24.17,0,0,1,5.8,3.1Z" style="fill:#450D87"></path><polygon points="372.97 109.66 95.32 109.66 95.32 102.34 364.77 102.34 372.97 109.66" style="fill:#c7c7c7"></polygon><polygon points="362.61 100.42 95.32 100.42 95.32 98.96 360.99 98.96 362.61 100.42" style="fill:#c7c7c7"></polygon><polygon points="377.65 113.84 95.32 113.84 95.32 112.39 376.02 112.39 377.65 113.84" style="fill:#c7c7c7"></polygon><rect x="95.32" y="168.7" width="309.37" height="7.31" style="fill:#c7c7c7"></rect><rect x="95.32" y="165.33" width="309.37" height="1.45" style="fill:#c7c7c7"></rect><rect x="95.32" y="178.76" width="309.37" height="1.44" style="fill:#c7c7c7"></rect><rect x="95.31" y="121.17" width="54.46" height="38.5" style="fill:#c7c7c7"></rect><polygon points="404.68 137.98 404.68 159.66 350.23 159.66 350.23 121.18 385.87 121.18 404.68 137.98" style="fill:#c7c7c7"></polygon><rect x="185.97" y="205.42" width="128.06" height="98.4" transform="translate(500 509.23) rotate(180)" style="fill:#450D87"></rect><path d="M199.73,228.48a11.41,11.41,0,1,0,9-9A11.43,11.43,0,0,0,199.73,228.48Z" style="opacity:0.2"></path><polygon points="221.48 283.04 314.03 283.04 267.75 231.15 221.48 283.04" style="opacity:0.2"></polygon><polygon points="185.97 283.09 262.38 283.09 224.17 249.29 185.97 283.09" style="fill:#450D87"></polygon><polygon points="185.97 283.09 262.38 283.09 224.17 249.29 185.97 283.09" style="opacity:0.30000000000000004"></polygon><rect x="185.97" y="283.04" width="128.06" height="20.77" style="fill:#450D87"></rect><rect x="185.97" y="283.04" width="128.06" height="20.77" style="opacity:0.30000000000000004"></rect><rect x="185.97" y="189.13" width="102.52" height="3.43" style="fill:#a6a6a6"></rect><rect x="185.97" y="196.57" width="73.34" height="3.43" style="fill:#a6a6a6"></rect><rect x="95.32" y="189.19" width="75.98" height="3.43" style="fill:#a6a6a6"></rect><rect x="95.26" y="205.4" width="75.98" height="3.43" style="fill:#dbdbdb"></rect><rect x="95.26" y="211.8" width="75.98" height="3.43" style="fill:#dbdbdb"></rect><rect x="95.26" y="218.2" width="75.98" height="3.43" style="fill:#dbdbdb"></rect><rect x="95.26" y="224.6" width="75.98" height="3.43" style="fill:#dbdbdb"></rect><rect x="95.26" y="231" width="75.98" height="3.43" style="fill:#dbdbdb"></rect><rect x="95.26" y="237.39" width="75.98" height="3.43" style="fill:#dbdbdb"></rect><rect x="95.26" y="243.79" width="75.98" height="3.43" style="fill:#dbdbdb"></rect><rect x="95.26" y="250.19" width="75.98" height="3.43" style="fill:#dbdbdb"></rect><rect x="95.26" y="256.59" width="44.5" height="3.43" style="fill:#dbdbdb"></rect><rect x="95.26" y="269.39" width="75.98" height="3.43" style="fill:#dbdbdb"></rect><rect x="95.26" y="275.79" width="75.98" height="3.43" style="fill:#dbdbdb"></rect><rect x="95.26" y="282.18" width="75.98" height="3.43" style="fill:#dbdbdb"></rect><rect x="95.26" y="288.58" width="75.98" height="3.43" style="fill:#dbdbdb"></rect><rect x="95.26" y="294.98" width="44.5" height="3.43" style="fill:#dbdbdb"></rect><rect x="95.32" y="196.63" width="54.36" height="3.43" style="fill:#a6a6a6"></rect><rect x="328.7" y="189.19" width="75.98" height="3.43" style="fill:#a6a6a6"></rect><rect x="328.64" y="205.4" width="75.98" height="3.43" style="fill:#dbdbdb"></rect><rect x="328.64" y="211.8" width="75.98" height="3.43" style="fill:#dbdbdb"></rect><rect x="328.64" y="218.2" width="75.98" height="3.43" style="fill:#dbdbdb"></rect><rect x="328.64" y="224.6" width="44.8" height="3.43" style="fill:#dbdbdb"></rect><rect x="328.64" y="237.39" width="75.98" height="3.43" style="fill:#dbdbdb"></rect><rect x="328.64" y="243.79" width="75.98" height="3.43" style="fill:#dbdbdb"></rect><rect x="328.64" y="250.19" width="75.98" height="3.43" style="fill:#dbdbdb"></rect><rect x="328.64" y="256.59" width="75.98" height="3.43" style="fill:#dbdbdb"></rect><rect x="328.64" y="262.99" width="44.8" height="3.43" style="fill:#dbdbdb"></rect><rect x="328.64" y="275.79" width="75.98" height="3.43" style="fill:#dbdbdb"></rect><rect x="328.64" y="282.18" width="75.98" height="3.43" style="fill:#dbdbdb"></rect><rect x="328.64" y="288.58" width="75.98" height="3.43" style="fill:#dbdbdb"></rect><rect x="328.64" y="294.98" width="75.98" height="3.43" style="fill:#dbdbdb"></rect><rect x="328.64" y="301.38" width="44.8" height="3.43" style="fill:#dbdbdb"></rect><rect x="328.7" y="196.63" width="54.36" height="3.43" style="fill:#a6a6a6"></rect><rect x="95.32" y="314.62" width="75.98" height="3.43" style="fill:#a6a6a6"></rect><rect x="95.26" y="330.84" width="75.98" height="3.43" style="fill:#dbdbdb"></rect><rect x="95.26" y="337.24" width="75.98" height="3.43" style="fill:#dbdbdb"></rect><rect x="95.26" y="343.63" width="75.98" height="3.43" style="fill:#dbdbdb"></rect><rect x="95.26" y="350.03" width="75.98" height="3.43" style="fill:#dbdbdb"></rect><rect x="95.32" y="322.07" width="54.36" height="3.43" style="fill:#a6a6a6"></rect><rect x="186.25" y="314.62" width="127.78" height="3.43" style="fill:#a6a6a6"></rect><rect x="186.15" y="330.84" width="127.78" height="3.43" style="fill:#dbdbdb"></rect><rect x="186.15" y="337.24" width="127.78" height="3.43" style="fill:#dbdbdb"></rect><rect x="186.15" y="343.63" width="127.78" height="3.43" style="fill:#dbdbdb"></rect><rect x="186.15" y="350.03" width="127.78" height="3.43" style="fill:#dbdbdb"></rect><rect x="186.25" y="322.07" width="91.41" height="3.43" style="fill:#a6a6a6"></rect><rect x="328.7" y="314.62" width="75.98" height="3.43" style="fill:#a6a6a6"></rect><rect x="328.64" y="330.84" width="75.98" height="3.43" style="fill:#dbdbdb"></rect><rect x="328.64" y="337.24" width="75.98" height="3.43" style="fill:#dbdbdb"></rect><rect x="328.64" y="343.63" width="75.98" height="3.43" style="fill:#dbdbdb"></rect><rect x="328.64" y="350.03" width="44.8" height="3.43" style="fill:#dbdbdb"></rect><rect x="328.7" y="322.07" width="54.36" height="3.43" style="fill:#a6a6a6"></rect><polygon points="345.94 85.53 347.83 151.91 419.87 151.55 345.94 85.53" style="fill:#dbdbdb"></polygon></g></svg>