<svg xmlns="http://www.w3.org/2000/svg" viewBox="0 0 750 500"><g id="freepik--Gears--inject-76"><path d="M687.72,200.92l13.18-3.23-.4-22.44-13.28-2.77a55,55,0,0,0-5.84-13.42l7-11.6-16.15-15.59-11.35,7.43A54.66,54.66,0,0,0,647.3,134l-3.23-13.18-22.44.39-2.77,13.29a54.56,54.56,0,0,0-13.42,5.83l-11.6-7L578.25,149.4l7.43,11.34a54.81,54.81,0,0,0-5.35,13.62l-13.18,3.23.39,22.45,13.28,2.76a55,55,0,0,0,5.84,13.42l-7,11.6,16.15,15.59L607.12,236a55.23,55.23,0,0,0,13.62,5.36L624,254.52l22.45-.4,2.76-13.28A55,55,0,0,0,662.6,235l11.6,7,15.59-16.15-7.43-11.35A55.08,55.08,0,0,0,687.72,200.92Zm-35.67,2.71a24.08,24.08,0,1,1-.59-34A24.08,24.08,0,0,1,652.05,203.63Z" style="fill:#FFC100"></path><g style="opacity:0.4"><path d="M687.72,200.92l13.18-3.23-.4-22.44-13.28-2.77a55,55,0,0,0-5.84-13.42l7-11.6-16.15-15.59-11.35,7.43A54.66,54.66,0,0,0,647.3,134l-3.23-13.18-22.44.39-2.77,13.29a54.56,54.56,0,0,0-13.42,5.83l-11.6-7L578.25,149.4l7.43,11.34a54.81,54.81,0,0,0-5.35,13.62l-13.18,3.23.39,22.45,13.28,2.76a55,55,0,0,0,5.84,13.42l-7,11.6,16.15,15.59L607.12,236a55.23,55.23,0,0,0,13.62,5.36L624,254.52l22.45-.4,2.76-13.28A55,55,0,0,0,662.6,235l11.6,7,15.59-16.15-7.43-11.35A55.08,55.08,0,0,0,687.72,200.92Zm-35.67,2.71a24.08,24.08,0,1,1-.59-34A24.08,24.08,0,0,1,652.05,203.63Z" style="fill:#fff"></path></g><path d="M523.43,56.77A39.43,39.43,0,0,1,533,52.6l2-9.52,16.08-.28,2.31,9.44a39.7,39.7,0,0,1,9.76,3.83l8.12-5.32,11.57,11.17-5,8.3A39.33,39.33,0,0,1,582,79.84l9.52,2,.28,16.08-9.44,2.31a39.27,39.27,0,0,1-3.84,9.75l5.33,8.13-11.17,11.57-8.3-5a39.53,39.53,0,0,1-9.62,4.18l-2,9.51-16.08.29-2.31-9.44a39.27,39.27,0,0,1-9.75-3.84l-8.13,5.32-11.57-11.16,5-8.31a39.36,39.36,0,0,1-4.18-9.62l-9.51-2L496,83.5l9.44-2.32a39.42,39.42,0,0,1,3.84-9.75L504,63.3l11.17-11.56,8.31,5ZM532,78.19a17.25,17.25,0,1,0,24.39-.43A17.25,17.25,0,0,0,532,78.19Z" style="fill:#FFC100"></path><g style="opacity:0.8"><path d="M523.43,56.77A39.43,39.43,0,0,1,533,52.6l2-9.52,16.08-.28,2.31,9.44a39.7,39.7,0,0,1,9.76,3.83l8.12-5.32,11.57,11.17-5,8.3A39.33,39.33,0,0,1,582,79.84l9.52,2,.28,16.08-9.44,2.31a39.27,39.27,0,0,1-3.84,9.75l5.33,8.13-11.17,11.57-8.3-5a39.53,39.53,0,0,1-9.62,4.18l-2,9.51-16.08.29-2.31-9.44a39.27,39.27,0,0,1-9.75-3.84l-8.13,5.32-11.57-11.16,5-8.31a39.36,39.36,0,0,1-4.18-9.62l-9.51-2L496,83.5l9.44-2.32a39.42,39.42,0,0,1,3.84-9.75L504,63.3l11.17-11.56,8.31,5ZM532,78.19a17.25,17.25,0,1,0,24.39-.43A17.25,17.25,0,0,0,532,78.19Z" style="fill:#fff"></path></g><path d="M640.59,48.86a28.74,28.74,0,0,1,7.07-3.08l1.46-7L661,38.57l1.71,7a29.14,29.14,0,0,1,7.18,2.82l6-3.92,8.51,8.22-3.7,6.12a29.25,29.25,0,0,1,3.07,7.07l7,1.46.21,11.84L684,80.83A29,29,0,0,1,681.14,88l3.92,6-8.22,8.51-6.12-3.7a29.09,29.09,0,0,1-7.07,3.07l-1.46,7-11.83.2-1.71-6.94a29.56,29.56,0,0,1-7.18-2.83l-6,3.92L627,95l3.7-6.11a29.15,29.15,0,0,1-3.07-7.08l-7-1.46-.21-11.83,7-1.71a29.29,29.29,0,0,1,2.82-7.18l-3.92-6,8.22-8.51,6.12,3.71Zm6.3,15.76a12.7,12.7,0,1,0,18-.31A12.7,12.7,0,0,0,646.89,64.62Z" style="fill:#fff"></path><path d="M646.89,64.62a9.81,9.81,0,0,1,2.37-2.07,12.81,12.81,0,0,1,13.91,0,13,13,0,0,1,4.55,5.13A12.93,12.93,0,0,1,669,75.19a12.94,12.94,0,0,1-10.72,11.1,13,13,0,0,1-7.51-1A13.1,13.1,0,0,1,645.43,81a12.83,12.83,0,0,1-2.19-5.56,12.63,12.63,0,0,1,1.66-8.34,9.71,9.71,0,0,1,2-2.44c.07.06-.76.83-1.74,2.58a12.6,12.6,0,0,0-1.4,8.13A12.43,12.43,0,0,0,651,84.72a11.88,11.88,0,0,0,3.42,1,11.51,11.51,0,0,0,3.7-.08,12.31,12.31,0,0,0,10.13-10.5,11.4,11.4,0,0,0,0-3.69A11.68,11.68,0,0,0,667.12,68a12.38,12.38,0,0,0-9.64-6.91,12.63,12.63,0,0,0-8.07,1.69C647.7,63.83,647,64.69,646.89,64.62Z" style="fill:#FFC100"></path><path d="M640.59,48.86a2.44,2.44,0,0,1-.4-.21L639,48l-4.61-2.72.14,0-8.17,8.56,0-.23,3.94,6,.07.11-.06.11a28.94,28.94,0,0,0-2.78,7.13l0,.14-.14,0-6.94,1.72.2-.26q.11,5.6.23,11.84l-.23-.28,7,1.44.18,0,0,.18a29.08,29.08,0,0,0,3.05,7l.1.17-.1.16-3.69,6.12-.06-.4,8.53,8.21-.42,0,6-3.93.18-.11.18.1a28.7,28.7,0,0,0,7.1,2.78l.2,0,0,.21c.54,2.18,1.12,4.55,1.71,7l-.35-.27,11.83-.22-.34.29c.46-2.21.95-4.6,1.45-7l.05-.22.21-.06a28.59,28.59,0,0,0,7-3h0l.19-.12.18.12,6.12,3.7-.45.06,8.22-8.51,0,.45-3.92-6-.12-.18.11-.18a28.89,28.89,0,0,0,2.79-7.1l0-.2.21-.05,7-1.7-.26.34q-.11-6.06-.2-11.83l.27.32-7-1.47-.19,0-.05-.19a29.06,29.06,0,0,0-3-7l-.1-.16.1-.17,3.71-6.1,0,.37-8.5-8.24.35,0-6,3.9-.13.09-.14-.08a29.07,29.07,0,0,0-7.11-2.82l-.14,0,0-.14c-.62-2.52-1.17-4.8-1.69-7l.22.16-11.84.16.16-.13c-.6,2.79-1.09,5.09-1.5,7l0,.07h-.07A29.9,29.9,0,0,0,642.28,48l-1.27.66-.42.22a2.37,2.37,0,0,1,.39-.27c.27-.17.68-.42,1.25-.72a28.21,28.21,0,0,1,5.4-2.2l-.08.09c.38-1.92.85-4.21,1.41-7l0-.12h.13L661,38.35h.17l0,.17c.54,2.15,1.1,4.42,1.73,6.94l-.18-.17A29.33,29.33,0,0,1,670,48.11h-.27l6-3.93.18-.12.16.15,8.53,8.21.18.16-.13.21-3.7,6.12v-.33A29.46,29.46,0,0,1,684,65.75l-.24-.23,7,1.44L691,67v.27q.11,5.76.22,11.83v.28l-.26.06-7,1.71.26-.26a29.33,29.33,0,0,1-2.86,7.27v-.37q1.93,3,3.92,6l.16.24-.2.21-8.22,8.52-.2.21-.25-.15-6.11-3.71h.37a29.29,29.29,0,0,1-7.16,3.11L664,102l-1.46,7,0,.28h-.29l-11.84.2h-.28l-.07-.28c-.59-2.4-1.17-4.77-1.7-7l.26.26a29.33,29.33,0,0,1-7.26-2.87h.35l-6,3.91-.23.15-.19-.18-8.51-8.24-.18-.18.13-.22,3.72-6.11v.33a29.2,29.2,0,0,1-3.1-7.16l.23.21-7-1.47-.23,0v-.22q-.09-6.24-.18-11.84v-.21l.2,0,6.95-1.69-.18.18A29.65,29.65,0,0,1,630,59.54v.22l-3.89-6-.08-.13.1-.1,8.27-8.47.06-.07.08,0,4.51,2.8,1.15.74Z" style="fill:#FFC100"></path></g><g id="freepik--Window--inject-76"><rect x="143.5" y="106.76" width="473.77" height="278.19" style="fill:#fff"></rect><rect x="143.75" y="106.83" width="473.77" height="30.24" style="fill:#263238"></rect><path d="M302.13,168.23a6.35,6.35,0,1,1,6.36,6.15A6.09,6.09,0,0,1,302.13,168.23Zm11.42,0a5.08,5.08,0,1,0-5.06,5A4.9,4.9,0,0,0,313.55,168.23Z" style="fill:#263238"></path><path d="M326.64,169.73a4.39,4.39,0,0,1-4.52,4.63,4,4,0,0,1-3.46-1.79v5.06h-1.22V165.19h1.17V167a4,4,0,0,1,3.51-1.87A4.39,4.39,0,0,1,326.64,169.73Zm-1.22,0a3.39,3.39,0,1,0-3.39,3.54A3.35,3.35,0,0,0,325.42,169.73Z" style="fill:#263238"></path><path d="M337.06,170.11h-7.6a3.37,3.37,0,0,0,3.58,3.16,3.57,3.57,0,0,0,2.78-1.19l.69.8a4.8,4.8,0,0,1-8.27-3.15,4.37,4.37,0,0,1,4.43-4.61,4.33,4.33,0,0,1,4.41,4.61C337.08,169.84,337.06,170,337.06,170.11Zm-7.6-.91h6.44a3.23,3.23,0,0,0-6.44,0Z" style="fill:#263238"></path><path d="M344.16,165.12v1.19h-.29c-1.9,0-3.06,1.21-3.06,3.35v4.63h-1.22v-9.09h1.17V167A3.43,3.43,0,0,1,344.16,165.12Z" style="fill:#263238"></path><path d="M353.22,168.65v5.63H352v-1.42a3.4,3.4,0,0,1-3.12,1.5c-2.06,0-3.32-1.07-3.32-2.64,0-1.4.9-2.57,3.51-2.57H352v-.56c0-1.55-.88-2.4-2.57-2.4a4.69,4.69,0,0,0-3,1.07l-.55-.91a5.76,5.76,0,0,1,3.7-1.23C351.89,165.12,353.22,166.3,353.22,168.65Zm-1.23,2.9v-1.49h-2.85c-1.76,0-2.33.69-2.33,1.63s.84,1.71,2.3,1.71A2.9,2.9,0,0,0,352,171.55Z" style="fill:#263238"></path><path d="M361.34,173.72a2.89,2.89,0,0,1-1.92.64,2.4,2.4,0,0,1-2.66-2.64v-5.49h-1.62v-1h1.62v-2H358v2h2.76v1H358v5.42a1.46,1.46,0,0,0,1.57,1.66,2.05,2.05,0,0,0,1.35-.47Z" style="fill:#263238"></path><path d="M363.29,162.32a.89.89,0,0,1,.9-.86.87.87,0,1,1,0,1.74A.89.89,0,0,1,363.29,162.32Zm.28,2.87h1.23v9.09h-1.23Z" style="fill:#263238"></path><path d="M376.58,169v5.27h-1.23v-5.15c0-1.92-1-2.9-2.73-2.9a3,3,0,0,0-3.18,3.28v4.77h-1.22v-9.09h1.17v1.68a3.82,3.82,0,0,1,3.46-1.75C375.06,165.12,376.58,166.4,376.58,169Z" style="fill:#263238"></path><path d="M388.36,165.19v8c0,3.13-1.54,4.54-4.54,4.54a6.35,6.35,0,0,1-4.24-1.4l.63-.93a5.37,5.37,0,0,0,3.57,1.25c2.3,0,3.35-1.06,3.35-3.3v-1.16a4.07,4.07,0,0,1-3.54,1.76,4.41,4.41,0,1,1,0-8.81,4.08,4.08,0,0,1,3.59,1.82v-1.75Zm-1.19,4.32a3.45,3.45,0,1,0-3.46,3.33A3.25,3.25,0,0,0,387.17,169.51Z" style="fill:#263238"></path><path d="M395.22,173l.78-1.75a6.68,6.68,0,0,0,4,1.33c1.88,0,2.68-.67,2.68-1.57,0-2.61-7.19-.9-7.19-5.39,0-2,1.55-3.61,4.87-3.61a7.69,7.69,0,0,1,4,1.07l-.71,1.75a6.72,6.72,0,0,0-3.34-1c-1.86,0-2.62.72-2.62,1.64,0,2.57,7.17.9,7.17,5.34,0,1.93-1.57,3.59-4.89,3.59A7.82,7.82,0,0,1,395.22,173Z" style="fill:#263238"></path><path d="M415.36,165.05l-4.31,10c-.85,2.09-2,2.73-3.56,2.73a3.79,3.79,0,0,1-2.47-.85l.86-1.59a2.33,2.33,0,0,0,1.59.64c.76,0,1.21-.36,1.62-1.28l.16-.36-4-9.26h2.24l2.9,6.83,2.92-6.83Z" style="fill:#263238"></path><path d="M415.54,173.36l.83-1.64a6.14,6.14,0,0,0,3.21.92c1.37,0,1.94-.38,1.94-1,0-1.77-5.7-.11-5.7-3.79,0-1.74,1.57-2.88,4.06-2.88a7.35,7.35,0,0,1,3.45.79l-.83,1.64a5.12,5.12,0,0,0-2.64-.69c-1.31,0-1.94.44-1.94,1,0,1.87,5.7.21,5.7,3.82,0,1.72-1.59,2.85-4.18,2.85A7.31,7.31,0,0,1,415.54,173.36Z" style="fill:#263238"></path><path d="M431,173.78a3.44,3.44,0,0,1-2.08.62,2.83,2.83,0,0,1-3.17-3.11v-4.44h-1.52v-1.73h1.52V163h2.15v2.11h2.47v1.73h-2.47v4.39c0,.89.45,1.38,1.28,1.38a1.94,1.94,0,0,0,1.21-.38Z" style="fill:#263238"></path><path d="M441.14,170.36h-7.23a2.79,2.79,0,0,0,3,2.21,3.3,3.3,0,0,0,2.51-1l1.16,1.33a4.68,4.68,0,0,1-3.72,1.51c-3.09,0-5.09-2-5.09-4.74a4.58,4.58,0,0,1,4.76-4.71,4.5,4.5,0,0,1,4.67,4.77C441.18,169.89,441.16,170.15,441.14,170.36Zm-7.25-1.44h5.23a2.5,2.5,0,0,0-2.61-2.24A2.54,2.54,0,0,0,433.89,168.92Z" style="fill:#263238"></path><path d="M458.68,169v5.29h-2.16v-5c0-1.64-.76-2.44-2.07-2.44s-2.4.93-2.4,2.77v4.68h-2.16v-5c0-1.64-.76-2.44-2.08-2.44s-2.4.93-2.4,2.77v4.68h-2.16v-9.23h2.06v1.18a3.81,3.81,0,0,1,3-1.28,3.45,3.45,0,0,1,3.11,1.54A4.31,4.31,0,0,1,454.9,165C457.12,165,458.68,166.21,458.68,169Z" style="fill:#263238"></path><path d="M417.38,360l.65-.06a14.85,14.85,0,0,0,1.93-.18,18.33,18.33,0,0,0,7-2.43,19.07,19.07,0,0,0-5.61-35.15,24,24,0,0,0-5.12-.41H399.66l-49.77,0a19,19,0,0,0-18.47,14.64,20,20,0,0,0-.43,6.06,20.22,20.22,0,0,0,1.47,5.78,19.09,19.09,0,0,0,7.48,8.64,21,21,0,0,0,2.48,1.31,20.91,20.91,0,0,0,5.32,1.4c.91.08,1.8.13,2.71.13l10.55,0,18.92,0,27.41.08,7.45.05,1.94,0c.43,0,.66,0,.66,0l-.66,0-1.94,0-7.45.05-27.41.09-18.92,0H350.45c-.9,0-1.84-.05-2.76-.13a20.31,20.31,0,0,1-2.76-.52,21.77,21.77,0,0,1-2.69-.9,20.84,20.84,0,0,1-2.56-1.35,19.57,19.57,0,0,1-7.68-8.84,20.61,20.61,0,0,1-1.51-5.93,20.17,20.17,0,0,1,.44-6.23,19.51,19.51,0,0,1,6.7-10.7,19.75,19.75,0,0,1,12.26-4.34l49.77,0h16.53a25.7,25.7,0,0,1,5.21.43,19.39,19.39,0,0,1,13.53,27.17,19.2,19.2,0,0,1-7.91,8.59,18.06,18.06,0,0,1-7,2.35A15.2,15.2,0,0,1,418,360Z" style="fill:#FFC100"></path><path d="M368.35,343.47l.56-1.26a4.86,4.86,0,0,0,2.89,1c1.36,0,1.93-.48,1.93-1.13,0-1.89-5.19-.65-5.19-3.9,0-1.41,1.12-2.61,3.52-2.61a5.54,5.54,0,0,1,2.91.78l-.52,1.26a4.84,4.84,0,0,0-2.41-.69c-1.34,0-1.89.53-1.89,1.19,0,1.86,5.18.65,5.18,3.86,0,1.39-1.14,2.59-3.53,2.59A5.58,5.58,0,0,1,368.35,343.47Z" style="fill:#FFC100"></path><path d="M380.79,344a2.43,2.43,0,0,1-1.5.45,2,2,0,0,1-2.29-2.24V339h-1.1v-1.25H377v-1.52h1.56v1.52h1.78V339h-1.78v3.17c0,.65.32,1,.92,1a1.4,1.4,0,0,0,.88-.28Z" style="fill:#FFC100"></path><path d="M387.66,340.49v3.91h-1.48v-.81a2.36,2.36,0,0,1-2.09.89c-1.53,0-2.49-.83-2.49-2s.75-2,2.77-2h1.73v-.1c0-.91-.55-1.45-1.66-1.45a3.28,3.28,0,0,0-2,.67l-.61-1.14a4.68,4.68,0,0,1,2.82-.82C386.54,337.66,387.66,338.57,387.66,340.49Zm-1.56,1.82v-.77h-1.62c-1.06,0-1.34.4-1.34.89s.47.92,1.27.92A1.71,1.71,0,0,0,386.1,342.31Z" style="fill:#FFC100"></path><path d="M393.51,337.66v1.48a2.63,2.63,0,0,0-.36,0,1.82,1.82,0,0,0-1.94,2.06v3.24h-1.56v-6.67h1.49v1A2.61,2.61,0,0,1,393.51,337.66Z" style="fill:#FFC100"></path><path d="M399.08,344a2.42,2.42,0,0,1-1.49.45,2,2,0,0,1-2.3-2.24V339h-1.1v-1.25h1.1v-1.52h1.56v1.52h1.79V339h-1.79v3.17c0,.65.33,1,.92,1a1.4,1.4,0,0,0,.88-.28Z" style="fill:#FFC100"></path><path d="M268.45,211.48c1,5.5-5.11,12.78-10.29,11.78C257,216.88,264.32,210.79,268.45,211.48Z" style="fill:#FFC100"></path><path d="M295.65,292.46a10.47,10.47,0,0,0,3.59-.76,9.55,9.55,0,0,0,5.84-8.11c0-9.23,0-22.57-.05-39,0-8.25,0-17.27,0-27,0-2.42,0-4.88,0-7.39,0-1.25,0-2.52,0-3.77a9.34,9.34,0,0,0-6.52-8.51,11.5,11.5,0,0,0-3.9-.42h-4.06l-70.91,0a9.31,9.31,0,0,0-7.74,4.12,9.52,9.52,0,0,0-1.52,4.2c-.11,1.49,0,3.07-.06,4.59v18.09c0,11.86,0,23.3,0,34.2,0,5.45,0,10.77,0,15.93v3.85a10.05,10.05,0,0,0,.58,3.63,9.41,9.41,0,0,0,4.74,5.21,9.2,9.2,0,0,0,3.39.88c1.16.07,2.36,0,3.52,0h19.82l39,.09,10.62.05,2.76,0,.94,0-.94,0-2.76,0-10.62.05-39,.08-12.93,0h-6.89c-1.17,0-2.33,0-3.55,0a9.77,9.77,0,0,1-8.52-6.36,10.39,10.39,0,0,1-.61-3.79c0-1.28,0-2.56,0-3.85,0-5.16,0-10.48,0-15.93,0-10.9,0-22.34,0-34.2q0-8.89,0-18.09v-2.31c0-.76,0-1.53.06-2.33a9.83,9.83,0,0,1,9.78-8.79l70.91,0h4.06a12,12,0,0,1,4,.45,9.9,9.9,0,0,1,5.89,5.15,9.67,9.67,0,0,1,.94,3.79c0,1.29,0,2.54,0,3.79q0,3.76,0,7.39c0,9.7,0,18.72,0,27,0,16.49,0,29.82-.12,39.05a9.65,9.65,0,0,1-6,8.2,9.71,9.71,0,0,1-2.69.64Z" style="fill:#FFC100"></path><path d="M263.29,253.15a11.39,11.39,0,0,1,8.5-11c-1.4-2-2.76-3.72-2.76-4.69,0-6.12-5.11-11.68-11.42-11.68a11.78,11.78,0,0,0-11.43,11.68c0,1.68-4.05,5.62-5.36,9.22h0a18.86,18.86,0,0,0-1.89,8.16c0,10,8.36,17.17,18.68,17.17a19,19,0,0,0,15.63-7.56A11.39,11.39,0,0,1,263.29,253.15Z" style="fill:#FFC100"></path><path d="M420.09,292.46a10.43,10.43,0,0,0,3.59-.76,9.32,9.32,0,0,0,3.57-2.6,9.44,9.44,0,0,0,2.27-5.51c0-9.23,0-22.57,0-39,0-8.25,0-17.27,0-27q0-3.63,0-7.39c0-1.25,0-2.52,0-3.77a9.2,9.2,0,0,0-.9-3.62,9.44,9.44,0,0,0-5.62-4.89,11.44,11.44,0,0,0-3.89-.42h-4.06l-70.92,0a9.32,9.32,0,0,0-9.26,8.32c-.11,1.49,0,3.07-.05,4.59q0,9.18,0,18.09c0,11.86,0,23.3,0,34.2,0,5.45,0,10.77,0,15.93,0,1.29,0,2.57,0,3.85a9.85,9.85,0,0,0,.59,3.63,9.38,9.38,0,0,0,4.74,5.21,9.1,9.1,0,0,0,3.38.88c1.16.07,2.36,0,3.53,0h19.82l39,.09,10.62.05,2.76,0,.94,0-.94,0-2.76,0-10.62.05-39,.08-12.94,0h-6.88c-1.18,0-2.34,0-3.56,0a9.75,9.75,0,0,1-8.51-6.36,10.4,10.4,0,0,1-.62-3.79v-3.85c0-5.16,0-10.48,0-15.93,0-10.9,0-22.34,0-34.2v-20.4c0-.76,0-1.53.05-2.33a9.81,9.81,0,0,1,5.14-7.63A10.12,10.12,0,0,1,344,197l70.92,0H419a12,12,0,0,1,4,.45,9.78,9.78,0,0,1,6.83,8.94c0,1.29,0,2.54,0,3.79q0,3.76,0,7.39c0,9.7,0,18.72,0,27,0,16.49,0,29.82-.12,39.05a9.56,9.56,0,0,1-8.69,8.84Z" style="fill:#e0e0e0"></path><path d="M382.05,243.29a23.83,23.83,0,0,0,18.72-9.06c0-6.18-3.91-10.26-8.66-12.57h0c0-.9,0-1.8,0-2.7a1.28,1.28,0,1,0-2.56-.09c0,.58,0,1.17,0,1.76a23.7,23.7,0,0,0-7.49-1.29,26.33,26.33,0,0,0-7.67,1.16c0-.55,0-1.09,0-1.63a1.23,1.23,0,0,0-1.3-1.37c-.7,0-1.15.33-1.18,1.18s-.06,1.87-.07,2.8c-4.67,2.14-8.47,6.1-8.47,12.76A23.81,23.81,0,0,0,382.05,243.29Zm6.17-16.51a2.59,2.59,0,1,1-2.59,2.59A2.6,2.6,0,0,1,388.22,226.78ZM385.63,234a.5.5,0,0,1,0,1h-7.16a.5.5,0,0,1,0-1Zm-9.75-7.24a2.59,2.59,0,1,1-2.59,2.59A2.59,2.59,0,0,1,375.88,226.78Z" style="fill:#FFC100"></path><path d="M382.05,246.15a23.81,23.81,0,0,1-18.49-8.78c0,.19,0,.38,0,.58,0,17.86,8.28,32.34,18.5,32.34s18.5-14.48,18.5-32.34c0-.2,0-.39,0-.58A23.79,23.79,0,0,1,382.05,246.15Z" style="fill:#FFC100"></path><path d="M544.53,292.46a10.39,10.39,0,0,0,3.59-.76,9.51,9.51,0,0,0,5.84-8.11c0-9.23,0-22.57,0-39,0-8.25,0-17.27,0-27v-7.39c0-1.25,0-2.52,0-3.77a9.3,9.3,0,0,0-6.52-8.51,11.41,11.41,0,0,0-3.89-.42h-4.06l-70.91,0a9.32,9.32,0,0,0-9.27,8.32c-.1,1.49,0,3.07-.05,4.59v18.09c0,11.86,0,23.3,0,34.2,0,5.45,0,10.77,0,15.93v3.85a9.84,9.84,0,0,0,.58,3.63,9.41,9.41,0,0,0,4.74,5.21,9.15,9.15,0,0,0,3.38.88c1.17.07,2.37,0,3.53,0h19.82l39.05.09,10.61.05,2.76,0c.63,0,.94,0,.94,0s-.31,0-.94,0l-2.76,0-10.61.05-39.05.08-12.94,0h-6.88c-1.18,0-2.34,0-3.55,0a9.75,9.75,0,0,1-8.52-6.36,10.62,10.62,0,0,1-.62-3.79v-3.85c0-5.16,0-10.48,0-15.93,0-10.9,0-22.34,0-34.2q0-8.89,0-18.09v-2.31c0-.76,0-1.53.06-2.33a9.83,9.83,0,0,1,5.13-7.63,10.16,10.16,0,0,1,4.65-1.16l70.91,0h4.06a12,12,0,0,1,4,.45,9.83,9.83,0,0,1,6.83,8.94c0,1.29,0,2.54,0,3.79v7.39c0,9.7,0,18.72,0,27,0,16.49,0,29.82-.11,39.05a9.58,9.58,0,0,1-8.69,8.84Z" style="fill:#e0e0e0"></path><rect x="508.11" y="226.78" width="20.34" height="36.33" style="fill:#FFC100"></rect><rect x="484.77" y="226.78" width="20.34" height="36.33" style="fill:#FFC100"></rect><polygon points="442.29 356.98 432.68 351.4 423.08 345.83 423.05 356.93 423.02 368.04 429.59 364.27 435.24 374.12 441.38 370.6 435.72 360.75 442.29 356.98" style="fill:#263238"></polygon><circle cx="162.29" cy="122.04" r="5.19" style="fill:#fff"></circle><path d="M183.77,122a5.19,5.19,0,1,1-5.19-5.18A5.19,5.19,0,0,1,183.77,122Z" style="fill:#fff"></path><circle cx="194.87" cy="122.04" r="5.19" style="fill:#fff"></circle><path d="M617.51,385c0-1.63-.07-107.55-.2-278.19l.2.2-473.73.06h0l.26-.26c0,98.5,0,192.56,0,278.19l-.24-.24,473.76.24-473.76.24h-.25V385c0-85.63,0-179.69,0-278.19v-.26h.29l473.73.06h.2v.2C617.59,277.47,617.51,383.39,617.51,385Z" style="fill:#263238"></path></g></svg>