<svg xmlns="http://www.w3.org/2000/svg" viewBox="0 0 500 500"><g id="freepik--Resume--inject-31"><path d="M149.23,33.18l.6-.35a3.83,3.83,0,0,1,3.46,0l98.09,56.64a3.83,3.83,0,0,1,1.73,3V229.18a3.85,3.85,0,0,1-1.73,3l-.6.34a3.77,3.77,0,0,1-3.46,0l-98.09-56.63a3.81,3.81,0,0,1-1.73-3V36.18A3.82,3.82,0,0,1,149.23,33.18Z" style="fill:#fafafa"></path><path d="M253.11,160.82V92.47a3.45,3.45,0,0,0-.51-1.71L247,94V232.35l.31.17a3.77,3.77,0,0,0,3.46,0l.6-.34a3.85,3.85,0,0,0,1.73-3Z" style="fill:#e0e0e0"></path><path d="M149.23,35.18l98.09,56.63a3.85,3.85,0,0,1,1.73,3V231.52c0,1.11-.78,1.56-1.73,1l-98.09-56.63a3.81,3.81,0,0,1-1.73-3V36.18C147.5,35.08,148.27,34.63,149.23,35.18Z" style="fill:#f5f5f5"></path><path d="M161.41,51.6l73.72,42.56a3.81,3.81,0,0,1,1.73,3v5.38c0,1.1-.77,1.55-1.73,1L161.41,61a3.85,3.85,0,0,1-1.73-3V52.6C159.68,51.49,160.46,51,161.41,51.6Z" style="fill:#e0e0e0"></path><ellipse cx="169.84" cy="86.95" rx="8.29" ry="14.36" transform="translate(-20.72 96.56) rotate(-30)" style="fill:#e0e0e0"></ellipse><path d="M169.92,79c-2-1.14-3.56-.22-3.56,2.05a7.84,7.84,0,0,0,3.56,6.17c2,1.14,3.56.22,3.56-2A7.86,7.86,0,0,0,169.92,79Z" style="fill:#FFC100"></path><path d="M170.85,88.89l-2-1.17c-3.24-1.86-5.86-.35-5.86,3.38v.51a20.5,20.5,0,0,0,6.87,7.06c2.65,1.53,5,1.74,6.86.86V99A12.94,12.94,0,0,0,170.85,88.89Z" style="fill:#FFC100"></path><path d="M161.85,103.45l16,9.23a4.65,4.65,0,0,1,2.16,3.6c0,1.29-1,1.78-2.16,1.09l-16-9.22a4.65,4.65,0,0,1-2.17-3.6C159.68,103.25,160.65,102.76,161.85,103.45Z" style="fill:#e0e0e0"></path><path d="M161.85,112.83l16,9.23a4.65,4.65,0,0,1,2.16,3.59c0,1.3-1,1.79-2.16,1.1l-16-9.23a4.64,4.64,0,0,1-2.17-3.6C159.68,112.63,160.65,112.14,161.85,112.83Z" style="fill:#e0e0e0"></path><path d="M161.85,122.2l16,9.23A4.65,4.65,0,0,1,180,135c0,1.29-1,1.78-2.16,1.09l-16-9.22a4.65,4.65,0,0,1-2.17-3.6C159.68,122,160.65,121.51,161.85,122.2Z" style="fill:#e0e0e0"></path><path d="M161.85,131.58l16,9.23A4.65,4.65,0,0,1,180,144.4c0,1.3-1,1.79-2.16,1.1l-16-9.23a4.64,4.64,0,0,1-2.17-3.6C159.68,131.38,160.65,130.89,161.85,131.58Z" style="fill:#e0e0e0"></path><path d="M161.85,145.66l16,9.22a4.8,4.8,0,0,1,2.16,3.75v9.07c0,1.38-1,1.94-2.16,1.25l-16-9.22a4.78,4.78,0,0,1-2.17-3.75v-9.07C159.68,145.52,160.65,145,161.85,145.66Z" style="fill:#FFC100"></path><path d="M194.34,84.68,234.7,108a4.65,4.65,0,0,1,2.16,3.59c0,1.3-1,1.79-2.16,1.1l-40.36-23.3a4.65,4.65,0,0,1-2.16-3.59C192.18,84.48,193.15,84,194.34,84.68Z" style="fill:#FFC100"></path><path d="M194.34,94.06l40.36,23.3a4.65,4.65,0,0,1,2.16,3.59c0,1.3-1,1.79-2.16,1.1l-40.36-23.3a4.65,4.65,0,0,1-2.16-3.59C192.18,93.86,193.15,93.37,194.34,94.06Z" style="fill:#FFC100"></path><path d="M194.34,103.44l40.36,23.3a4.65,4.65,0,0,1,2.16,3.59c0,1.3-1,1.79-2.16,1.1l-40.36-23.3a4.65,4.65,0,0,1-2.16-3.59C192.18,103.24,193.15,102.75,194.34,103.44Z" style="fill:#FFC100"></path></g><g id="freepik--Briefcase--inject-31"><path d="M350.87,362.36,374.7,348.6a9.56,9.56,0,0,0,4.33-7.5V205.69a9.58,9.58,0,0,0-4.33-7.5l-161.94-93.5a9.57,9.57,0,0,0-8.66,0l-23.84,13.76a9.58,9.58,0,0,0-4.33,7.5V261.36a9.58,9.58,0,0,0,4.33,7.5l162,93.5A9.57,9.57,0,0,0,350.87,362.36Z" style="fill:#455a64"></path><path d="M379,205.69a8.9,8.9,0,0,0-1.26-4.27L342.48,221.8V362.48a9.59,9.59,0,0,0,8.38-.12l23.85-13.77A9.55,9.55,0,0,0,379,341.1Z" style="fill:#37474f"></path><path d="M342.21,217l-161.95-93.5c-2.39-1.38-4.33-.26-4.33,2.5V261.36a9.58,9.58,0,0,0,4.33,7.5l162,93.5c2.39,1.38,4.33.26,4.33-2.5V224.45A9.58,9.58,0,0,0,342.21,217Z" style="fill:#37474f"></path><path d="M356.42,208.75a9.58,9.58,0,0,1,4.33,7.5v140.4l4.06-2.34V213.9a9.58,9.58,0,0,0-4.33-7.5l-166.28-96-4.06,2.35Z" style="fill:#263238"></path><path d="M360.48,206.4l-166-95.84-4.19,2.27,166.14,95.92a8.83,8.83,0,0,1,3.06,3.23l4.06-2.34h0A8.78,8.78,0,0,0,360.48,206.4Z" style="fill:#37474f"></path><path d="M335.31,184.83l-2.86-1.65a4.79,4.79,0,0,0-4.33,0l-11,6.34-1.83-.55v2.34h0a1.52,1.52,0,0,0,.9,1.25l3.79,2.19a4.79,4.79,0,0,0,4.33,0l11.92-6.88a1.52,1.52,0,0,0,.89-1.25h0v-2.35Z" style="fill:#263238"></path><path d="M336.25,183l-3.8-2.19a4.79,4.79,0,0,0-4.33,0l-11.91,6.89a1.31,1.31,0,0,0,0,2.49l3.79,2.2a4.79,4.79,0,0,0,4.33,0l11.92-6.89A1.32,1.32,0,0,0,336.25,183Z" style="fill:#455a64"></path><path d="M237.82,128.55,235,126.9a4.81,4.81,0,0,0-4.34,0l-11,6.34-1.83-.55V135h0a1.52,1.52,0,0,0,.9,1.25l3.79,2.19a4.79,4.79,0,0,0,4.33,0l11.92-6.88a1.5,1.5,0,0,0,.89-1.25h0V128Z" style="fill:#263238"></path><path d="M238.76,126.75l-3.8-2.2a4.79,4.79,0,0,0-4.33,0l-11.91,6.89a1.32,1.32,0,0,0,0,2.5l3.79,2.19a4.79,4.79,0,0,0,4.33,0l11.92-6.88A1.32,1.32,0,0,0,238.76,126.75Z" style="fill:#455a64"></path><path d="M269.36,128v14.07l-8.12,4.69V125.3c0-1.11.77-1.55,1.73-1Z" style="fill:#263238"></path><path d="M312,142.91v26.15l-6,3.49-4.06-2.35V148.75a3.85,3.85,0,0,0-1.73-3L269.36,128,263,124.3c-1-.55-1.73-.11-1.73,1v21.45l-4.07-2.35V118.26a2,2,0,0,1,0-.34,3.85,3.85,0,0,1,1.71-2.66l2.57-1.49a3.83,3.83,0,0,1,3.46,0l45.28,26.14A3.84,3.84,0,0,1,312,142.91Z" style="fill:#455a64"></path><path d="M305.92,146.4v26.15l-4.06-2.35V148.75a3.85,3.85,0,0,0-1.73-3L269.36,128,263,124.3c-1-.55-1.73-.11-1.73,1v21.45l-4.07-2.35V118.26a2,2,0,0,1,0-.34c.15-.85.86-1.15,1.71-.66l45.28,26.14A3.86,3.86,0,0,1,305.92,146.4Z" style="fill:#37474f"></path></g><g id="freepik--Folder--inject-31"><path d="M366.85,409.4l4.06-2.35L366.85,290a4.81,4.81,0,0,0-2.17-3.75l-76.91-44.41a7.75,7.75,0,0,1-3-3.61l-2.43-7a7.61,7.61,0,0,0-3-3.58l-36.25-20.28c-1.2-.67-2.19-.1-2.19,1.28V334.2a4.82,4.82,0,0,0,2.17,3.75Z" style="fill:#FFC100"></path><path d="M366.85,409.4l4.06-2.35L366.85,290a4.81,4.81,0,0,0-2.17-3.75l-76.91-44.41a7.75,7.75,0,0,1-3-3.61l-2.43-7a7.61,7.61,0,0,0-3-3.58l-36.25-20.28c-1.2-.67-2.19-.1-2.19,1.28V334.2a4.82,4.82,0,0,0,2.17,3.75Z" style="opacity:0.2"></path><path d="M307.65,211.06l85.9,49.6a3.81,3.81,0,0,1,1.73,3v141.4c0,1.11-.77,1.55-1.73,1l-85.9-49.59a3.84,3.84,0,0,1-1.73-3V212.06C305.92,211,306.69,210.51,307.65,211.06Z" style="fill:#fff"></path><g style="opacity:0.5"><path d="M394.33,406.8a2.09,2.09,0,0,1-1-.3l-85.9-49.6a4.32,4.32,0,0,1-2-3.43V212.06a1.54,1.54,0,0,1,2.48-1.43l85.9,49.59a4.34,4.34,0,0,1,2,3.44v141.4a1.72,1.72,0,0,1-.75,1.56A1.4,1.4,0,0,1,394.33,406.8ZM306.88,211.33a.46.46,0,0,0-.21,0,.8.8,0,0,0-.25.69V353.47A3.33,3.33,0,0,0,307.9,356l85.9,49.6a.77.77,0,0,0,.73.12.78.78,0,0,0,.25-.69V263.66a3.33,3.33,0,0,0-1.48-2.57L307.4,211.5A1,1,0,0,0,306.88,211.33Z" style="fill:#e0e0e0"></path></g><path d="M316.21,230.07l40.35,23.3a4.63,4.63,0,0,1,2.16,3.6c0,1.29-1,1.78-2.16,1.09l-40.35-23.29a4.65,4.65,0,0,1-2.17-3.6C314,229.87,315,229.38,316.21,230.07Z" style="fill:#37474f"></path><path d="M316.21,244.15,385,283.86a4.64,4.64,0,0,1,2.17,3.59c0,1.3-1,1.79-2.16,1.1l-68.79-39.71a4.64,4.64,0,0,1-2.17-3.6C314,244,315,243.46,316.21,244.15Z" style="fill:#e0e0e0"></path><path d="M316.21,258.22,385,297.93a4.64,4.64,0,0,1,2.17,3.59c0,1.3-1,1.79-2.16,1.1l-68.79-39.71a4.64,4.64,0,0,1-2.17-3.6C314,258,315,257.53,316.21,258.22Z" style="fill:#e0e0e0"></path><path d="M316.21,272.29,385,312a4.64,4.64,0,0,1,2.17,3.6c0,1.29-1,1.78-2.16,1.09L316.21,277a4.64,4.64,0,0,1-2.17-3.59C314,272.09,315,271.6,316.21,272.29Z" style="fill:#e0e0e0"></path><path d="M316.21,286.36,385,326.07a4.64,4.64,0,0,1,2.17,3.6c0,1.29-1,1.78-2.16,1.09l-68.79-39.71a4.64,4.64,0,0,1-2.17-3.59C314,286.16,315,285.67,316.21,286.36Z" style="fill:#e0e0e0"></path><path d="M316.21,300.43,385,340.14a4.65,4.65,0,0,1,2.17,3.6c0,1.3-1,1.79-2.16,1.1l-68.79-39.72a4.64,4.64,0,0,1-2.17-3.59C314,300.23,315,299.74,316.21,300.43Z" style="fill:#e0e0e0"></path><path d="M316.21,314.51,385,354.22a4.64,4.64,0,0,1,2.17,3.59c0,1.3-1,1.79-2.16,1.1L316.21,319.2a4.64,4.64,0,0,1-2.17-3.6C314,314.31,315,313.82,316.21,314.51Z" style="fill:#e0e0e0"></path><path d="M316.21,328.58,385,368.29a4.64,4.64,0,0,1,2.17,3.59c0,1.3-1,1.79-2.16,1.1l-68.79-39.71a4.64,4.64,0,0,1-2.17-3.6C314,328.38,315,327.89,316.21,328.58Z" style="fill:#e0e0e0"></path><path d="M295.46,218.09l85.9,49.6a3.82,3.82,0,0,1,1.74,3v141.4c0,1.1-.78,1.55-1.74,1l-85.9-49.6a3.83,3.83,0,0,1-1.73-3V219.09C293.73,218,294.51,217.54,295.46,218.09Z" style="fill:#fff"></path><path d="M382.14,413.82a2.09,2.09,0,0,1-1-.3l-85.9-49.59a4.32,4.32,0,0,1-2-3.44V219.09a1.55,1.55,0,0,1,2.48-1.43l85.9,49.59a4.31,4.31,0,0,1,2,3.44v141.4a1.7,1.7,0,0,1-.76,1.55A1.4,1.4,0,0,1,382.14,413.82ZM294.69,218.35a.39.39,0,0,0-.2.05.77.77,0,0,0-.26.69v141.4a3.33,3.33,0,0,0,1.48,2.57l85.9,49.6a.58.58,0,0,0,1-.57V270.69a3.32,3.32,0,0,0-1.49-2.57l-85.9-49.6A1.09,1.09,0,0,0,294.69,218.35Z" style="fill:#e0e0e0"></path><path d="M304,237.1l40.35,23.3a4.64,4.64,0,0,1,2.17,3.6c0,1.29-1,1.78-2.17,1.09L304,241.79a4.64,4.64,0,0,1-2.17-3.59C301.85,236.9,302.82,236.41,304,237.1Z" style="fill:#e0e0e0"></path><path d="M304,251.17l68.79,39.71a4.67,4.67,0,0,1,2.16,3.6c0,1.3-1,1.79-2.16,1.1L304,255.86a4.64,4.64,0,0,1-2.17-3.59C301.85,251,302.82,250.48,304,251.17Z" style="fill:#e0e0e0"></path><path d="M304,265.25,372.81,305a4.65,4.65,0,0,1,2.16,3.59c0,1.3-1,1.79-2.16,1.1L304,269.94a4.64,4.64,0,0,1-2.17-3.6C301.85,265.05,302.82,264.56,304,265.25Z" style="fill:#e0e0e0"></path><path d="M304,279.32,372.81,319a4.65,4.65,0,0,1,2.16,3.59c0,1.3-1,1.79-2.16,1.1L304,284a4.64,4.64,0,0,1-2.17-3.6C301.85,279.12,302.82,278.63,304,279.32Z" style="fill:#e0e0e0"></path><path d="M304,293.39l68.79,39.71a4.65,4.65,0,0,1,2.16,3.6c0,1.29-1,1.78-2.16,1.09L304,298.08a4.64,4.64,0,0,1-2.17-3.59C301.85,293.19,302.82,292.7,304,293.39Z" style="fill:#e0e0e0"></path><path d="M304,307.46l68.79,39.71a4.65,4.65,0,0,1,2.16,3.6c0,1.29-1,1.78-2.16,1.09L304,312.15a4.64,4.64,0,0,1-2.17-3.59C301.85,307.26,302.82,306.77,304,307.46Z" style="fill:#e0e0e0"></path><path d="M304,321.53l68.79,39.71a4.65,4.65,0,0,1,2.16,3.6c0,1.3-1,1.79-2.16,1.1L304,326.22a4.64,4.64,0,0,1-2.17-3.59C301.85,321.33,302.82,320.84,304,321.53Z" style="fill:#e0e0e0"></path><path d="M304,335.61l68.79,39.71a4.65,4.65,0,0,1,2.16,3.59c0,1.3-1,1.79-2.16,1.1L304,340.3a4.64,4.64,0,0,1-2.17-3.6C301.85,335.41,302.82,334.92,304,335.61Z" style="fill:#e0e0e0"></path><path d="M366.85,409.4,347,301.63a6.2,6.2,0,0,0-2.62-3.71l-121.59-70.2c-1.19-.69-2-.14-1.71,1.21l19.4,105.31a6.2,6.2,0,0,0,2.62,3.71Z" style="fill:#FFC100"></path></g><g id="freepik--Certificate--inject-31"><path d="M63.92,265.34A105.6,105.6,0,0,0,115,174.89V139.37c0-1.1.78-1.55,1.73-1l90,51.94a3.85,3.85,0,0,1,1.73,3v35.52A105.61,105.61,0,0,1,157.73,319a4.14,4.14,0,0,1-4.23,0L63.93,267.36A1.07,1.07,0,0,1,63.92,265.34Z" style="fill:#fff"></path><path d="M155.61,320.14a4.65,4.65,0,0,1-2.36-.64L63.68,267.79a1.56,1.56,0,0,1,0-2.88h0a105.65,105.65,0,0,0,50.84-90V139.37a1.71,1.71,0,0,1,.76-1.55,1.68,1.68,0,0,1,1.72.12l90,51.94a4.32,4.32,0,0,1,2,3.43v35.52A106.72,106.72,0,0,1,158,319.47,4.51,4.51,0,0,1,155.61,320.14ZM64.18,265.77c-.3.18-.47.39-.47.59s.17.39.47.56l89.57,51.72a3.67,3.67,0,0,0,3.72,0,105.72,105.72,0,0,0,50.46-89.79V193.31a3.35,3.35,0,0,0-1.48-2.57l-90-51.94a.78.78,0,0,0-.72-.12.77.77,0,0,0-.26.69v35.52a106.7,106.7,0,0,1-51.32,90.88Z" style="fill:#e0e0e0"></path><path d="M170,183.18l24.11,13.92a4.65,4.65,0,0,1,2.16,3.59c0,1.3-1,1.79-2.16,1.1L170,187.87a4.65,4.65,0,0,1-2.16-3.6C167.81,183,168.78,182.49,170,183.18Z" style="fill:#e0e0e0"></path><path d="M155.62,196c0,1.29-1,1.78-2.17,1.09l-24.1-13.91a4.65,4.65,0,0,1-2.16-3.59c0-1.3,1-1.79,2.16-1.1l24.1,13.91A4.64,4.64,0,0,1,155.62,196Z" style="fill:#e0e0e0"></path><path d="M195.06,237.52c-.18,1.19-1.32,1.59-2.52.9l-64.71-37.36a3.7,3.7,0,0,1-1.82-3.41c.18-1.19,1.27-1.6,2.46-.91l64.73,37.37A3.73,3.73,0,0,1,195.06,237.52Z" style="fill:#e0e0e0"></path><path d="M192.39,250.06c-.32,1.11-1.56,1.45-2.76.76l-64.71-37.37a3.13,3.13,0,0,1-1.58-3.26c.31-1.12,1.51-1.47,2.7-.78l64.72,37.37A3.18,3.18,0,0,1,192.39,250.06Z" style="fill:#e0e0e0"></path><path d="M188.36,261.8c-.43,1.05-1.76,1.33-3,.64l-64.72-37.36a2.69,2.69,0,0,1-1.36-3.14,1.93,1.93,0,0,1,2.91-.66L187,258.65A2.73,2.73,0,0,1,188.36,261.8Z" style="fill:#e0e0e0"></path><path d="M183.08,272.83a2.28,2.28,0,0,1-3.17.51L115.2,236a2.34,2.34,0,0,1-1.16-3,2.22,2.22,0,0,1,3.12-.54l64.72,37.36A2.37,2.37,0,0,1,183.08,272.83Z" style="fill:#e0e0e0"></path><path d="M145.71,270a2.72,2.72,0,0,1-3.43.36L106,249.43a2,2,0,0,1-.89-2.86,2.68,2.68,0,0,1,3.4-.39l36.29,21C146,267.83,146.41,269.13,145.71,270Z" style="fill:#e0e0e0"></path><path d="M132.46,289.41s-19,12.54-41.83,13.41c4.65,2.69,15.14,3.8,23.24,2.69,0,0-1.13,4.71-9.3,10.73,0,0,13.3,3.59,37.19-21.47Z" style="fill:#FFC100"></path><path d="M152.56,294.12c-4.07,4.14-12.28,4.49-17.89,1.25s-6.49-8.83-2.42-13,11.53-5.22,17.14-2S156.63,290,152.56,294.12Z" style="fill:#FFC100"></path><path d="M152.56,294.12c-4.07,4.14-12.28,4.49-17.89,1.25s-6.49-8.83-2.42-13,11.53-5.22,17.14-2S156.63,290,152.56,294.12Z" style="opacity:0.2"></path><path d="M152.56,292.87c-4.07,4.14-12.28,4.48-17.89,1.25s-6.49-8.84-2.42-13,11.53-5.23,17.14-2S156.63,288.73,152.56,292.87Z" style="fill:#FFC100"></path><path d="M143.13,293.29a14.14,14.14,0,0,1-7-1.77c-2-1.15-3.2-2.65-3.41-4.24a4.93,4.93,0,0,1,1.62-4,11,11,0,0,1,7.77-3,11.42,11.42,0,0,1,5.74,1.49,7.4,7.4,0,0,1,3.89,5.12,4.51,4.51,0,0,1-1.36,3.89A10.23,10.23,0,0,1,143.13,293.29Z" style="fill:#FFC100"></path><path d="M143.13,293.29a14.14,14.14,0,0,1-7-1.77c-2-1.15-3.2-2.65-3.41-4.24a4.93,4.93,0,0,1,1.62-4,11,11,0,0,1,7.77-3,11.42,11.42,0,0,1,5.74,1.49,7.4,7.4,0,0,1,3.89,5.12,4.51,4.51,0,0,1-1.36,3.89A10.23,10.23,0,0,1,143.13,293.29Z" style="opacity:0.30000000000000004"></path><path d="M147.89,283a11.52,11.52,0,0,0-5.74-1.49,11,11,0,0,0-7.77,3,5.63,5.63,0,0,0-1.6,2.88,6.29,6.29,0,0,0,3.39,4.13,14.14,14.14,0,0,0,7,1.77,10.23,10.23,0,0,0,7.29-2.52,4.65,4.65,0,0,0,1.36-2.66A7.45,7.45,0,0,0,147.89,283Z" style="fill:#FFC100"></path><path d="M147.89,283a11.52,11.52,0,0,0-5.74-1.49,11,11,0,0,0-7.77,3,5.63,5.63,0,0,0-1.6,2.88,6.29,6.29,0,0,0,3.39,4.13,14.14,14.14,0,0,0,7,1.77,10.23,10.23,0,0,0,7.29-2.52,4.65,4.65,0,0,0,1.36-2.66A7.45,7.45,0,0,0,147.89,283Z" style="opacity:0.2"></path></g></svg>