<svg xmlns="http://www.w3.org/2000/svg" viewBox="0 0 750 500"><g id="freepik--self-checkout-machine--inject-250"><rect x="237.25" y="247.5" width="117.77" height="231.55" style="fill:#455a64"></rect><rect x="117.55" y="300.34" width="119.7" height="7.88" style="fill:#263238"></rect><rect x="355.02" y="336.06" width="175.94" height="143" style="fill:#455a64"></rect><rect x="355.02" y="325.91" width="181.45" height="10.14" style="fill:#263238"></rect><rect x="369.53" y="156.52" width="39.11" height="60.27" style="fill:#263238"></rect><path d="M184.41,176.75H174a11.37,11.37,0,0,0-10.87,8l-9.91,32.49a4.8,4.8,0,0,0,3.3,6h0a4.8,4.8,0,0,0,5.84-3l9.7-27.73h12.38a7.9,7.9,0,0,0,7.9-7.9h0A7.9,7.9,0,0,0,184.41,176.75Z" style="fill:#455a64"></path><path d="M192.31,184.11a4.89,4.89,0,0,1-.65,0l-1.86.05-6.83.08-10.14.06a11.07,11.07,0,0,0-1.42,0,4.53,4.53,0,0,0-1.33.4,4.42,4.42,0,0,0-2,2,10.39,10.39,0,0,0-.52,1.43l-.5,1.52c-.34,1-.68,2-1,3.1-2.77,8.33-5.28,15.87-7.13,21.4-.92,2.68-1.67,4.87-2.21,6.46l-.63,1.75a3.73,3.73,0,0,1-.25.6,2.56,2.56,0,0,1,.15-.63l.54-1.78,2.05-6.52c1.81-5.54,4.27-13.1,7-21.45q.51-1.56,1-3.09c.17-.51.33-1,.5-1.52a10.15,10.15,0,0,1,.56-1.5,4.84,4.84,0,0,1,2.26-2.21,4.65,4.65,0,0,1,1.49-.44,10.61,10.61,0,0,1,1.48,0l10.14,0,6.83.09,1.86,0A2.84,2.84,0,0,1,192.31,184.11Z" style="fill:#263238"></path><rect x="153.41" y="195.6" width="40.76" height="5.78" style="fill:#263238"></rect><path d="M193.78,263.41s0,.22,0,.65a13,13,0,0,1-.13,1.92,10.92,10.92,0,0,1-.81,3,7,7,0,0,1-2.77,3.23,15.69,15.69,0,0,1-5.1,1.65,5.94,5.94,0,0,1-3.08-.27,5.4,5.4,0,0,1-2.7-1.95,3.79,3.79,0,0,1-.67-1.66,4,4,0,0,1,.2-1.85,4.09,4.09,0,0,1,2.85-2.48,3.87,3.87,0,0,1,3.79,1.19,5.29,5.29,0,0,1,1,4.11,8.39,8.39,0,0,1-5.78,6.6,9.14,9.14,0,0,1-9.19-2.44,6.33,6.33,0,0,1-1.41-2.22,4.83,4.83,0,0,1-.05-2.69,3.1,3.1,0,0,1,1.7-2.15,2.82,2.82,0,0,1,2.75.47,3,3,0,0,1,1.08,2.61,7.52,7.52,0,0,1-.94,2.68,9.21,9.21,0,0,1-4.23,3.78,8.54,8.54,0,0,1-5.79.54,8,8,0,0,1-4.73-3.6,6.12,6.12,0,0,1-.81-3,5.49,5.49,0,0,1,1-3,6.93,6.93,0,0,1,2.31-2.13,3.11,3.11,0,0,1,1.58-.5,2.35,2.35,0,0,1,1.57.62,2.15,2.15,0,0,1,.73,1.55,2.31,2.31,0,0,1-.67,1.56,8.62,8.62,0,0,1-2.46,2.07,8.93,8.93,0,0,1-6.31,1.06,6.64,6.64,0,0,1-4.82-4.24,7.94,7.94,0,0,1,.48-6.53,6.87,6.87,0,0,1,2.32-2.44,4.73,4.73,0,0,1,3.26-.85,2.81,2.81,0,0,1,2.32,2.39,3.18,3.18,0,0,1-1.48,3,4.69,4.69,0,0,1-3.23.66,6.24,6.24,0,0,1-3-1.28,12.42,12.42,0,0,1-3.39-5.33,13.43,13.43,0,0,1-1.16-6.09,6.78,6.78,0,0,1,3.1-5.18,5,5,0,0,1,3-.8,4.87,4.87,0,0,1,2.81,1.16,3.62,3.62,0,0,1,1.4,2.67,3.25,3.25,0,0,1-1.42,2.61,4.79,4.79,0,0,1-5.55-.13,6.2,6.2,0,0,1-2.47-4.9,12.21,12.21,0,0,1,1.11-5.26,8,8,0,0,1,3.38-3.95,4.3,4.3,0,0,1,2.53-.55,4.73,4.73,0,0,1,2.37,1,3.38,3.38,0,0,1,1.32,2.14,2.62,2.62,0,0,1-1.05,2.24,4.1,4.1,0,0,1-4.56.09,7.2,7.2,0,0,1-3-3.25,8.22,8.22,0,0,1,.72-8,7.74,7.74,0,0,1,2.87-2.51,6,6,0,0,1,3.56-.4,3.49,3.49,0,0,1,1.57.73,2.28,2.28,0,0,1,.78,1.49,2.61,2.61,0,0,1-1.59,2.56,3.69,3.69,0,0,1-2.82.1,4.29,4.29,0,0,1-2-1.57,5.79,5.79,0,0,1-1-4.11,7.69,7.69,0,0,1,.94-3,7.15,7.15,0,0,1,1.18-1.52c.33-.29.51-.42.51-.42a7.89,7.89,0,0,0-1.6,2,7.58,7.58,0,0,0-.87,2.95,5.66,5.66,0,0,0,1,4,4.11,4.11,0,0,0,2,1.48,3.51,3.51,0,0,0,2.64-.11,2.35,2.35,0,0,0,1.42-2.31,2,2,0,0,0-.69-1.31,3.17,3.17,0,0,0-1.45-.66,5.73,5.73,0,0,0-3.37.4,7.45,7.45,0,0,0-2.72,2.41,7.89,7.89,0,0,0-.67,7.64,6.75,6.75,0,0,0,2.89,3.07,3.68,3.68,0,0,0,4.12-.07,2.2,2.2,0,0,0,.9-1.87,3,3,0,0,0-1.18-1.86,4.33,4.33,0,0,0-2.15-.87,4,4,0,0,0-2.29.51,7.62,7.62,0,0,0-3.17,3.75,11.85,11.85,0,0,0-1.06,5.06,5.71,5.71,0,0,0,2.29,4.54,4.35,4.35,0,0,0,5,.13,2.78,2.78,0,0,0,1.21-2.23,3.12,3.12,0,0,0-1.22-2.3,4.37,4.37,0,0,0-2.53-1,4.51,4.51,0,0,0-2.67.72,6.29,6.29,0,0,0-2.86,4.8,13.14,13.14,0,0,0,1.13,5.87,11.79,11.79,0,0,0,3.24,5.1,5.57,5.57,0,0,0,2.75,1.18,4.17,4.17,0,0,0,2.88-.58,2.65,2.65,0,0,0,1.25-2.48,2.29,2.29,0,0,0-1.89-2,4.16,4.16,0,0,0-2.89.78,6.32,6.32,0,0,0-2.14,2.25,7.41,7.41,0,0,0-.46,6.1,6.11,6.11,0,0,0,4.46,3.91,8.35,8.35,0,0,0,5.94-1,8,8,0,0,0,2.31-1.94,1.86,1.86,0,0,0,.56-1.24,1.6,1.6,0,0,0-.56-1.17,1.82,1.82,0,0,0-1.24-.49,2.55,2.55,0,0,0-1.31.43,6.46,6.46,0,0,0-2.15,2,4.93,4.93,0,0,0-.87,2.71,5.47,5.47,0,0,0,.73,2.73,7.54,7.54,0,0,0,4.43,3.38,8.09,8.09,0,0,0,5.46-.51,8.82,8.82,0,0,0,4-3.57,7.42,7.42,0,0,0,.88-2.49,2.56,2.56,0,0,0-.91-2.22,2.42,2.42,0,0,0-2.29-.41,2.7,2.7,0,0,0-1.44,1.86,4.27,4.27,0,0,0,0,2.43,6.08,6.08,0,0,0,1.3,2.07,8.73,8.73,0,0,0,8.76,2.34,8,8,0,0,0,5.53-6.26,4.92,4.92,0,0,0-.92-3.83,3.49,3.49,0,0,0-3.45-1.09,3.74,3.74,0,0,0-2.63,2.26,3.52,3.52,0,0,0,.41,3.24,5.28,5.28,0,0,0,2.56,1.86,5.75,5.75,0,0,0,2.94.27,15.72,15.72,0,0,0,5-1.57A6.93,6.93,0,0,0,192.7,269a11.16,11.16,0,0,0,.85-3,16.62,16.62,0,0,0,.18-1.91C193.76,263.63,193.78,263.41,193.78,263.41Z" style="fill:#263238"></path><path d="M168.35,308.28c.79-.06,68.9,56.87,68.9,56.87V308.22Z" style="fill:#455a64"></path><rect x="365.05" y="357.84" width="155.71" height="49.34" style="fill:#263238"></rect><path d="M355.39,478.84c-.14,0-.26-32.35-.26-72.24s.12-72.25.26-72.25.26,32.34.26,72.25S355.54,478.84,355.39,478.84Z" style="fill:#263238"></path><rect x="374.66" y="382.51" width="73.65" height="24.08" style="fill:#e0e0e0"></rect><rect x="376.08" y="156.52" width="32.56" height="60.27" style="fill:#455a64"></rect><rect x="375.11" y="184.28" width="38.84" height="4.1" style="fill:#263238"></rect><rect x="380.51" y="161.65" width="23.03" height="18.64" rx="0.83" style="fill:#263238"></rect><rect x="379.08" y="190.44" width="5.77" height="5.77" style="fill:#e0e0e0"></rect><rect x="386.01" y="190.44" width="5.77" height="5.77" style="fill:#e0e0e0"></rect><rect x="392.93" y="190.44" width="5.77" height="5.77" style="fill:#e0e0e0"></rect><rect x="399.86" y="190.44" width="5.77" height="5.77" style="fill:#e0e0e0"></rect><rect x="379.08" y="197.87" width="5.77" height="5.77" style="fill:#e0e0e0"></rect><rect x="386.01" y="197.87" width="5.77" height="5.77" style="fill:#e0e0e0"></rect><rect x="392.93" y="197.87" width="5.77" height="5.77" style="fill:#e0e0e0"></rect><rect x="399.86" y="197.87" width="5.77" height="5.77" style="fill:#e0e0e0"></rect><rect x="379.08" y="205.02" width="5.77" height="5.77" style="fill:#e0e0e0"></rect><rect x="386.01" y="205.02" width="5.77" height="5.77" style="fill:#e0e0e0"></rect><rect x="392.93" y="205.02" width="5.77" height="5.77" style="fill:#e0e0e0"></rect><rect x="399.86" y="205.02" width="5.77" height="5.77" style="fill:#FFC100"></rect><path d="M405.65,210.82h-5.82V205h5.82Zm-5.77,0h5.72v-5.72h-5.72Z" style="fill:#263238"></path><path d="M385,215.15a1.57,1.57,0,0,1,.14.25l.36.74a17.41,17.41,0,0,1,.93,3,17,17,0,0,1-1.77,11.4,16.39,16.39,0,0,1-5.56,5.84,17.47,17.47,0,0,1-8.84,2.73,17.6,17.6,0,0,1-13.81-6.6,14.86,14.86,0,0,1-2.69-5,7.47,7.47,0,0,1,.33-5.61,5.79,5.79,0,0,1,1.86-2.13,4.39,4.39,0,0,1,2.69-.75,5.09,5.09,0,0,1,3.8,8,6,6,0,0,1-4,2.72,10.14,10.14,0,0,1-4.54-.25,20.43,20.43,0,0,1-7.29-3.49,12.66,12.66,0,0,1-4.08-5.26,10.64,10.64,0,0,1-.69-5,8.36,8.36,0,0,1,.95-3,4.26,4.26,0,0,1,.62-.92s-.21.32-.53,1a8.83,8.83,0,0,0-.83,3,10.52,10.52,0,0,0,.75,4.86,12.21,12.21,0,0,0,4,5.06,20.18,20.18,0,0,0,7.17,3.37,9.75,9.75,0,0,0,4.34.22,5.55,5.55,0,0,0,3.65-2.53,4.77,4.77,0,0,0,.43-4.54,4.69,4.69,0,0,0-3.86-2.7,3.92,3.92,0,0,0-2.38.67,5.27,5.27,0,0,0-1.68,1.94,7,7,0,0,0-.29,5.22,14.69,14.69,0,0,0,2.59,4.78,17,17,0,0,0,3.91,3.58,16.73,16.73,0,0,0,9.49,2.86,17.11,17.11,0,0,0,8.62-2.61,16.17,16.17,0,0,0,5.47-5.66,16.44,16.44,0,0,0,2-6.22,16.9,16.9,0,0,0-.13-5,18.35,18.35,0,0,0-.83-3l-.31-.76A.84.84,0,0,1,385,215.15Z" style="fill:#263238"></path><rect x="297.84" y="263.45" width="45.19" height="25.13" style="fill:#263238"></rect><path d="M307.19,273.41a8.55,8.55,0,0,0-3.77,4.45,15.43,15.43,0,0,0-.43,4.75c.16,9,.65,26.79.65,26.79l3.55-3.54,3.62,3.34,2.92-3,4.38,3.19,3.06-3.26,3.9,3.26,3.48-2.84,5.22,2.15-.42-4.31s-1.18-20.68-1.26-25.21a7.28,7.28,0,0,1,2.59-6.09Z" style="fill:#ebebeb"></path><path d="M307.19,273.41a3.83,3.83,0,0,1,.49,0l1.44,0,5.52-.12,20-.32h.61l-.49.39a6.58,6.58,0,0,0-2.09,3.12,10.17,10.17,0,0,0-.33,4c.15,2.82.3,5.77.46,8.82s.31,6.22.48,9.47c.08,1.62.17,3.27.25,4.94s.31,3.34.46,5l0,.43-.39-.17-5.22-2.15.26,0-.61.5-2.86,2.34-.17.14-.17-.14L321,306.34l.35,0-3.07,3.26-.15.16-.18-.13-4.38-3.2.33,0-2.93,3-.17.17-.17-.16L307,306h.34l-3.56,3.53-.38.38v-.53c-.23-11.19-.43-20.57-.56-27.18a14.55,14.55,0,0,1,.46-4.4,8.51,8.51,0,0,1,1.73-2.78,7.65,7.65,0,0,1,1.52-1.34,2.74,2.74,0,0,1,.63-.3s-.21.11-.59.36a8.59,8.59,0,0,0-1.46,1.38,8.48,8.48,0,0,0-1.63,2.74,14.47,14.47,0,0,0-.39,4.33c.18,6.62.44,16,.75,27.18l-.39-.16,3.54-3.55.16-.16.17.15L311,309h-.34l2.92-3,.15-.15.18.13,4.38,3.18-.34,0L321,306l.16-.18.19.16,3.9,3.26h-.33l2.86-2.35.62-.5.12-.09.14.06,5.22,2.15-.36.27c-.15-1.71-.36-3.39-.45-5.06s-.16-3.31-.24-4.94c-.16-3.25-.32-6.42-.47-9.48s-.29-6-.42-8.83a10.27,10.27,0,0,1,.37-4.17,7,7,0,0,1,2.26-3.33l.12.38-20,.13h-5.54l-1.45,0A2.73,2.73,0,0,1,307.19,273.41Z" style="fill:#263238"></path><path d="M328.22,288.59a71.45,71.45,0,0,1-12.18,0,71.45,71.45,0,0,1,12.18,0Z" style="fill:#263238"></path><path d="M328.22,292.93c0,.15-4.92.26-11,.26s-11-.11-11-.26,4.92-.26,11-.26S328.22,292.79,328.22,292.93Z" style="fill:#263238"></path><path d="M328.22,297.28c0,.14-4.92.26-11,.26s-11-.12-11-.26,4.92-.26,11-.26S328.22,297.14,328.22,297.28Z" style="fill:#263238"></path><path d="M312,288.73a11.11,11.11,0,0,1-4.78,0,11.11,11.11,0,0,1,4.78,0Z" style="fill:#263238"></path><path d="M328.22,284.81a68.82,68.82,0,0,1-12.18,0,71.45,71.45,0,0,1,12.18,0Z" style="fill:#263238"></path><path d="M312,285a11.11,11.11,0,0,1-4.78,0,11.11,11.11,0,0,1,4.78,0Z" style="fill:#263238"></path><path d="M328.22,281A71.45,71.45,0,0,1,316,281a71.45,71.45,0,0,1,12.18,0Z" style="fill:#263238"></path><path d="M312,281.19a11.11,11.11,0,0,1-4.78,0,11.11,11.11,0,0,1,4.78,0Z" style="fill:#263238"></path><path d="M340.19,273.41c0,.14-8.51.26-19,.26s-19-.12-19-.26,8.51-.26,19-.26S340.19,273.27,340.19,273.41Z" style="fill:#455a64"></path><path d="M237.39,375.56c-.15,0-.26-16.84-.26-37.6s.11-37.61.26-37.61.26,16.83.26,37.61S237.53,375.56,237.39,375.56Z" style="fill:#263238"></path><rect x="239.68" y="127.59" width="112.92" height="86.75" style="fill:#263238"></rect><rect x="245.17" y="133.09" width="101.71" height="75.77" style="fill:#fafafa"></rect><path d="M347.38,209.35H244.67V132.59H347.38Zm-101.71-1H346.38V133.59H245.67Z" style="fill:#263238"></path><path d="M258.28,189.92H257v-.48h3.21v.48h-1.33v3.41h-.55Z" style="fill:#263238"></path><path d="M260.39,191.38a2.07,2.07,0,1,1,2.08,2A2,2,0,0,1,260.39,191.38Zm3.58,0a1.51,1.51,0,1,0-1.5,1.5A1.45,1.45,0,0,0,264,191.38Z" style="fill:#263238"></path><path d="M266.09,189.92h-1.33v-.48H268v.48h-1.34v3.41h-.55Z" style="fill:#263238"></path><path d="M270.86,192.36H268.8l-.43,1h-.57l1.76-3.89h.55l1.76,3.89h-.58Zm-.19-.45-.84-1.9-.84,1.9Z" style="fill:#263238"></path><path d="M272.45,189.44H273v3.41h2.1v.48h-2.66Z" style="fill:#263238"></path><path d="M320.94,149.44h-1.33V149h3.21v.48h-1.33v3.41h-.55Z" style="fill:#263238"></path><path d="M323.05,150.9a2.07,2.07,0,1,1,2.07,2A2,2,0,0,1,323.05,150.9Zm3.58,0a1.51,1.51,0,1,0-1.51,1.5A1.46,1.46,0,0,0,326.63,150.9Z" style="fill:#263238"></path><path d="M328.75,149.44h-1.33V149h3.22v.48H329.3v3.41h-.55Z" style="fill:#263238"></path><path d="M333.52,151.87h-2.06l-.43,1h-.57l1.76-3.89h.55l1.76,3.89H334Zm-.19-.44-.84-1.91-.84,1.91Z" style="fill:#263238"></path><path d="M335.11,149h.56v3.4h2.1v.49h-2.66Z" style="fill:#263238"></path><path d="M297.45,150.46c0,.15-9.4.26-21,.26s-21-.11-21-.26,9.39-.26,21-.26S297.45,150.32,297.45,150.46Z" style="fill:#263238"></path><path d="M270.93,156a47.89,47.89,0,0,1-7,.26,48.09,48.09,0,0,1-7-.26,45.62,45.62,0,0,1,7-.27A45.43,45.43,0,0,1,270.93,156Z" style="fill:#263238"></path><path d="M270.93,162.8a47.89,47.89,0,0,1-7,.26,48.09,48.09,0,0,1-7-.26,46.46,46.46,0,0,1,7-.26A46.27,46.27,0,0,1,270.93,162.8Z" style="fill:#263238"></path><path d="M270.93,168.43a46.27,46.27,0,0,1-7,.26,46.46,46.46,0,0,1-7-.26,48.09,48.09,0,0,1,7-.26A47.89,47.89,0,0,1,270.93,168.43Z" style="fill:#263238"></path><path d="M270.93,175.29a47.89,47.89,0,0,1-7,.26,48.09,48.09,0,0,1-7-.26,46.46,46.46,0,0,1,7-.26A46.27,46.27,0,0,1,270.93,175.29Z" style="fill:#263238"></path><path d="M298.35,155.64a33.89,33.89,0,0,1-8.38,0,33.89,33.89,0,0,1,8.38,0Z" style="fill:#263238"></path><path d="M298.35,163.1a33.89,33.89,0,0,1-8.38,0,33.89,33.89,0,0,1,8.38,0Z" style="fill:#263238"></path><path d="M298.35,168.28a33.89,33.89,0,0,1-8.38,0,33.89,33.89,0,0,1,8.38,0Z" style="fill:#263238"></path><path d="M297.84,175.29a33.81,33.81,0,0,1-8.37,0,33.81,33.81,0,0,1,8.37,0Z" style="fill:#263238"></path><path d="M284.45,189.25v3.85h-.71v-3.25h-.81v-.6Z" style="fill:#263238"></path><path d="M285.22,191.18c0-1.27.69-2,1.6-2s1.61.71,1.61,2-.69,2-1.61,2S285.22,192.44,285.22,191.18Zm2.49,0c0-.93-.36-1.36-.89-1.36s-.88.43-.88,1.36.36,1.35.88,1.35S287.71,192.1,287.71,191.18Z" style="fill:#263238"></path><path d="M288.82,192.68a.46.46,0,0,1,.91,0,.46.46,0,1,1-.91,0Z" style="fill:#263238"></path><path d="M290.12,191.18c0-1.27.69-2,1.6-2s1.61.71,1.61,2-.69,2-1.61,2S290.12,192.44,290.12,191.18Zm2.49,0c0-.93-.36-1.36-.89-1.36s-.88.43-.88,1.36.36,1.35.88,1.35S292.61,192.1,292.61,191.18Z" style="fill:#263238"></path><path d="M296.61,191.92c0,.67-.49,1.23-1.52,1.23a2.45,2.45,0,0,1-1.45-.44l.31-.56a1.75,1.75,0,0,0,1.13.38c.51,0,.81-.22.81-.58s-.23-.6-1-.6h-.93l.2-2.1h2.26v.6h-1.66l-.08.89H295C296.16,190.74,296.61,191.24,296.61,191.92Z" style="fill:#263238"></path><path d="M300.61,192.07l.46.44a1.92,1.92,0,0,1-1.52.64,2,2,0,0,1-2-1.4H297v-.39h.55a1.09,1.09,0,0,1,0-.18,1.15,1.15,0,0,1,0-.19H297v-.39h.62a2,2,0,0,1,2-1.4,1.92,1.92,0,0,1,1.52.64l-.46.44a1.31,1.31,0,0,0-1-.45,1.34,1.34,0,0,0-1.27.77h1.58V191h-1.68a1.15,1.15,0,0,0,0,.19,1.09,1.09,0,0,0,0,.18h1.68v.39h-1.58a1.4,1.4,0,0,0,2.29.32Z" style="fill:#263238"></path><path d="M319.92,161.41v3.85h-.71V162h-.81v-.6Z" style="fill:#263238"></path><path d="M320.69,163.34c0-1.27.69-2,1.6-2s1.61.71,1.61,2-.69,2-1.61,2S320.69,164.6,320.69,163.34Zm2.49,0c0-.93-.36-1.36-.89-1.36s-.88.43-.88,1.36.36,1.35.88,1.35S323.18,164.26,323.18,163.34Z" style="fill:#263238"></path><path d="M324.29,164.84a.45.45,0,0,1,.45-.46.44.44,0,0,1,.45.46.45.45,0,0,1-.45.46A.46.46,0,0,1,324.29,164.84Z" style="fill:#263238"></path><path d="M325.59,163.34c0-1.27.69-2,1.6-2s1.61.71,1.61,2-.69,2-1.61,2S325.59,164.6,325.59,163.34Zm2.49,0c0-.93-.36-1.36-.89-1.36s-.88.43-.88,1.36.36,1.35.88,1.35S328.08,164.26,328.08,163.34Z" style="fill:#263238"></path><path d="M332.08,164.08c0,.67-.49,1.23-1.52,1.23a2.45,2.45,0,0,1-1.45-.44l.31-.56a1.81,1.81,0,0,0,1.13.38c.51,0,.81-.22.81-.59s-.23-.59-1-.59h-.93l.2-2.1h2.26v.6H330.2l-.08.89h.37C331.62,162.9,332.08,163.4,332.08,164.08Z" style="fill:#263238"></path><path d="M336.08,164.23l.46.44a1.92,1.92,0,0,1-1.52.64,2,2,0,0,1-2-1.4h-.63v-.39H333a1.09,1.09,0,0,1,0-.18,1.15,1.15,0,0,1,0-.19h-.56v-.39H333a2,2,0,0,1,2-1.4,1.92,1.92,0,0,1,1.52.64l-.46.43a1.41,1.41,0,0,0-2.29.33h1.58v.39h-1.68a1.15,1.15,0,0,0,0,.19,1.09,1.09,0,0,0,0,.18h1.68v.39h-1.58a1.35,1.35,0,0,0,1.27.78A1.32,1.32,0,0,0,336.08,164.23Z" style="fill:#263238"></path><path d="M308.06,208.85c-.15,0-.26-16.79-.26-37.51s.11-37.52.26-37.52.26,16.8.26,37.52S308.2,208.85,308.06,208.85Z" style="fill:#263238"></path><rect x="255.48" y="139.48" width="41.97" height="4.64" style="fill:#FFC100"></rect><path d="M297.47,144.15h-42v-4.7h42Zm-42-.05h41.91v-4.6H255.51Z" style="fill:#263238"></path><path d="M333.73,195.6H319.82a4,4,0,0,1-4-4h0a4,4,0,0,1,4-4h13.91a4,4,0,0,1,4,4h0A4,4,0,0,1,333.73,195.6Z" style="fill:#FFC100"></path><path d="M333.73,195.62H319.82a4,4,0,0,1,0-8h13.91a4,4,0,1,1,0,8Zm-13.91-8a4,4,0,0,0,0,7.93h13.91a4,4,0,1,0,0-7.93Z" style="fill:#263238"></path><path d="M338.73,176.44c0,.14-5.35.26-12,.26s-12-.12-12-.26,5.35-.26,12-.26S338.73,176.29,338.73,176.44Z" style="fill:#263238"></path><rect x="284.7" y="213.32" width="22.87" height="34.69" style="fill:#263238"></rect><path d="M224.72,265.52a.12.12,0,0,0,0,.05v34.18c0,1.5-1.21,3.05-3.43,4.22a20.62,20.62,0,0,1-9.49,2h-.05c-8.09,0-12.92-3.19-12.92-6.2V265.57a.12.12,0,0,0,0-.05.56.56,0,0,1,0-.07c0-3.34,2.47-6.83,4.94-10.27,1.66-2.3,2.06-5.62,2.14-7.56,0-.24,0-.44,0-.63h-.23a1.81,1.81,0,0,1-1.93-1.66v-1.44a1.81,1.81,0,0,1,1.93-1.67h12.15a2,2,0,0,1,1.78,1,1.63,1.63,0,0,1,.15.66v1.44a1.81,1.81,0,0,1-1.93,1.66h-.23c0,.19,0,.39,0,.63.08,1.94.47,5.26,2.14,7.56,2.47,3.44,4.92,6.93,4.94,10.27A.56.56,0,0,1,224.72,265.52Z" style="fill:#fafafa"></path><path d="M224.72,265.52s0-.11,0-.35a10.1,10.1,0,0,0-.12-1,13.31,13.31,0,0,0-1.42-3.71,51.93,51.93,0,0,0-3.49-5.3,10.86,10.86,0,0,1-1.59-3.68,20.33,20.33,0,0,1-.55-4.47v-.11h.1a2.28,2.28,0,0,0,1.29-.3,1.53,1.53,0,0,0,.74-1.07c0-.46,0-1,0-1.47a1.45,1.45,0,0,0-.53-1.26,2,2,0,0,0-1.37-.45H205.89a2,2,0,0,0-1.57.57,1.39,1.39,0,0,0-.38.74,8.87,8.87,0,0,0,0,.91c0,.3,0,.64,0,.92a1.45,1.45,0,0,0,.36.77,2,2,0,0,0,1.65.59h.14V247a21,21,0,0,1-.45,4.14,11.51,11.51,0,0,1-1.62,4c-.84,1.19-1.7,2.37-2.49,3.62a19.38,19.38,0,0,0-2,4,9.22,9.22,0,0,0-.49,2.2c0,.75,0,1.54,0,2.31v31.2a9.9,9.9,0,0,0,.09,2,3.89,3.89,0,0,0,.93,1.67,9,9,0,0,0,3.19,2.17,17.45,17.45,0,0,0,3.68,1.1,25,25,0,0,0,3.74.42,25.51,25.51,0,0,0,7.19-.65,15.91,15.91,0,0,0,3.25-1.18,8.18,8.18,0,0,0,2.64-2,4,4,0,0,0,.78-1.38,5.44,5.44,0,0,0,.13-1.57v-3.15c0-2.06,0-4,0-5.92,0-7.54,0-13.64,0-17.87s.05-6.55.05-6.55a2.43,2.43,0,0,1,0,.43c0,.3,0,.72,0,1.27,0,1.12,0,2.75,0,4.85,0,4.23,0,10.33.05,17.87,0,1.89,0,3.86,0,5.92v4a3.34,3.34,0,0,1-.13.83,4.49,4.49,0,0,1-.82,1.48,8.49,8.49,0,0,1-2.72,2.05,16.27,16.27,0,0,1-3.3,1.21,26.11,26.11,0,0,1-7.28.68,24.45,24.45,0,0,1-3.78-.43,17.33,17.33,0,0,1-3.73-1.11,9.44,9.44,0,0,1-3.3-2.24,4.11,4.11,0,0,1-1-1.8,9.52,9.52,0,0,1-.1-2.05c0-5.43,0-11.05,0-16.81V272c0-1.59,0-3.16,0-4.72,0-.78,0-1.54,0-2.33a9.77,9.77,0,0,1,.5-2.28,20,20,0,0,1,2-4.05c.8-1.26,1.67-2.45,2.5-3.63a11.12,11.12,0,0,0,1.58-3.88,20.41,20.41,0,0,0,.46-4.08l.14.14a2.3,2.3,0,0,1-1.85-.69,1.64,1.64,0,0,1-.43-.92c0-.34,0-.63,0-1a7.81,7.81,0,0,1,0-1,1.74,1.74,0,0,1,.46-.88,2.3,2.3,0,0,1,1.76-.64h11.89a2.18,2.18,0,0,1,1.51.51,1.67,1.67,0,0,1,.6,1.43c0,.51,0,1,0,1.5a1.77,1.77,0,0,1-.85,1.22,2.49,2.49,0,0,1-1.4.32l.1-.1a14.8,14.8,0,0,0,2.07,8.06,51.1,51.1,0,0,1,3.46,5.34,12.73,12.73,0,0,1,1.37,3.75,7.19,7.19,0,0,1,.1,1A1.13,1.13,0,0,1,224.72,265.52Z" style="fill:#263238"></path><path d="M217,246.9a45.56,45.56,0,0,1-5.41.16,45.42,45.42,0,0,1-5.41-.16,49.73,49.73,0,0,1,5.41-.15A49.88,49.88,0,0,1,217,246.9Z" style="fill:#263238"></path><path d="M223.64,270.09a3.87,3.87,0,0,0-3.71.16,14.26,14.26,0,0,1-3.55,1.54,6.81,6.81,0,0,1-4.34-1.12,27.16,27.16,0,0,0-4-2.19,7.83,7.83,0,0,0-8.08,1.9v29.35s1.61,5,13,4.22,10.46-5.79,10.46-5.79Z" style="fill:#FFC100"></path><path d="M513.16,318.17c-6.1-8.53-19.07-14.37-29.61-12.8-8.55,1.27-16.1,5.24-20.24,13.72a3.87,3.87,0,0,0,3,5.56,176,176,0,0,0,42.84-.15c2.19-.28,4.79-.88,5-3.59A4.35,4.35,0,0,0,513.16,318.17Z" style="fill:#FFC100"></path><path d="M479.42,317.75c-.05,0-.48-.39-1.07-1.2a9.82,9.82,0,0,1-1.62-3.54,17.26,17.26,0,0,1-.31-3.86,4.53,4.53,0,0,1,.13-1.59,5.16,5.16,0,0,1,.23,1.58,31.09,31.09,0,0,0,.46,3.76,11.83,11.83,0,0,0,1.42,3.45C479.15,317.19,479.49,317.7,479.42,317.75Z" style="fill:#f5f5f5"></path><path d="M488.48,317.33c-.16,0,.07-2.43-.25-5.37s-1-5.25-.87-5.29a17.62,17.62,0,0,1,1.12,10.66Z" style="fill:#f5f5f5"></path><path d="M497.83,316c-.14-.06.56-1.68.73-3.8s-.22-3.83-.06-3.87a6.79,6.79,0,0,1,.58,3.92A6.68,6.68,0,0,1,497.83,316Z" style="fill:#f5f5f5"></path><g style="opacity:0.30000000000000004"><path d="M486.81,305.78a.71.71,0,0,1,.08.15h0Z"></path></g><g style="opacity:0.6000000000000001"><path d="M513.16,318.17c-6.1-8.53-19.07-14.37-29.61-12.8-8.55,1.27-16.1,5.24-20.24,13.72a3.87,3.87,0,0,0,3,5.56,176,176,0,0,0,42.84-.15c2.19-.28,4.79-.88,5-3.59A4.35,4.35,0,0,0,513.16,318.17Z" style="fill:#fff"></path></g><path d="M391.2,305.72a7.13,7.13,0,0,0-6.54-7.73.7.7,0,0,0-.51.09.74.74,0,0,0-.14.7,8.62,8.62,0,0,0,7.2,7.14" style="fill:#455a64"></path><path d="M382.1,319.51c2,3.59,4.79,5.91,8,5.81.64,0,1.1-.47,1.71-.54a4,4,0,0,1,1.05.31,1.53,1.53,0,0,0,.54.09c3.29-.4,5.95-2.91,7.59-6.92,2.27-5.62,1.07-11.41-2.69-12.94a8.69,8.69,0,0,0-1.53-.49,6.55,6.55,0,0,0-1.83-.09,13.82,13.82,0,0,0-4.08,1.21l-.17.08c-3.05-1.11-5.42-1-7.64.3C379.52,308.35,379.1,314.25,382.1,319.51Z" style="fill:#FFC100"></path><path d="M381.8,314a2.82,2.82,0,0,1-.38-1.07,5.89,5.89,0,0,1,1.51-5.13,2.76,2.76,0,0,1,.91-.7s-.32.3-.77.82a6.62,6.62,0,0,0-1.25,2.34,6.47,6.47,0,0,0-.22,2.64C381.69,313.58,381.84,314,381.8,314Z" style="fill:#fafafa"></path><path d="M382.64,316.54c-.07,0-.21-.23-.31-.55s-.12-.61-.05-.63.21.22.31.55S382.71,316.52,382.64,316.54Z" style="fill:#fafafa"></path><path d="M398.14,296.31c0,.05-.66.36-1.65,1a14.06,14.06,0,0,0-1.62,1.33,13.61,13.61,0,0,0-3,4.17,13.24,13.24,0,0,0-.73,2c-.32,1.15-.39,1.9-.44,1.89a1.66,1.66,0,0,1,0-.53c0-.17,0-.37.09-.61a7.53,7.53,0,0,1,.16-.8,12.43,12.43,0,0,1,.69-2,12.59,12.59,0,0,1,3-4.24,11.45,11.45,0,0,1,1.69-1.31,7.18,7.18,0,0,1,.7-.42,5.81,5.81,0,0,1,.56-.28A2.28,2.28,0,0,1,398.14,296.31Z" style="fill:#263238"></path><path d="M368,298v-8.46a1,1,0,0,1,1-1h.38a1,1,0,0,1,1,1v.4h6.28v2.14h-6.2V298Z" style="fill:#263238"></path><rect x="360.94" y="299.72" width="16.61" height="26.86" rx="2.29" style="fill:#455a64"></rect><path d="M366.4,296.31h6.06a1.05,1.05,0,0,1,1.05,1.05v2.35a0,0,0,0,1,0,0h-8.17a0,0,0,0,1,0,0v-2.35A1.05,1.05,0,0,1,366.4,296.31Z" style="fill:#455a64"></path><rect x="370.35" y="303.9" width="7.2" height="17.77" style="fill:#fafafa"></rect><path d="M373.52,299.63a33.89,33.89,0,0,1-8.38,0,32.65,32.65,0,0,1,8.38,0Z" style="fill:#263238"></path><path d="M362,317.38a59.76,59.76,0,0,1-.26-7.82,59.85,59.85,0,0,1,.26-7.83,59.85,59.85,0,0,1,.26,7.83A59.76,59.76,0,0,1,362,317.38Z" style="fill:#fafafa"></path></g></svg>