<svg xmlns="http://www.w3.org/2000/svg" xmlns:xlink="http://www.w3.org/1999/xlink" viewBox="0 0 500 500"><defs><clipPath id="freepik--clip-path--inject-63"><path d="M380.08,219.16A11.82,11.82,0,0,0,368.25,231V376.41a12,12,0,0,1-16,11.29l-89.73-31.87a26,26,0,0,0-14.66-.82V231a11.83,11.83,0,0,1,11.83-11.83Z" style="fill:#fff;stroke:#263238;stroke-linecap:round;stroke-linejoin:round"></path></clipPath><clipPath id="freepik--clip-path-2--inject-63"><path d="M356.27,388.41H235.87a11.92,11.92,0,0,1-4-.71l-20.79-7.31,25.85-19.9a26.17,26.17,0,0,1,25.6-4.66l89.73,31.87A11.94,11.94,0,0,0,356.27,388.41Z" style="fill:#fff;stroke:#263238;stroke-linecap:round;stroke-linejoin:round"></path></clipPath><clipPath id="freepik--clip-path-3--inject-63"><path d="M388.44,222.63a11.74,11.74,0,0,0-8.36-3.47c-12.32,0-11.83,11.83-11.83,11.83v22.26h23.66V231A11.76,11.76,0,0,0,388.44,222.63Z" style="fill:#fff;stroke:#263238;stroke-linecap:round;stroke-linejoin:round"></path></clipPath></defs><g id="freepik--Device--inject-63"><path d="M235.66,217.26H413.43a8,8,0,0,1,8,8V350a0,0,0,0,1,0,0H227.69a0,0,0,0,1,0,0V225.23A8,8,0,0,1,235.66,217.26Z" style="fill:#263238;stroke:#263238;stroke-linecap:round;stroke-linejoin:round"></path><polygon points="450.46 408.67 198.63 408.67 227.69 349.99 421.4 349.99 450.46 408.67" style="fill:#fff;stroke:#263238;stroke-linecap:round;stroke-linejoin:round"></polygon><rect x="239.42" y="227.77" width="170.25" height="111.71" style="fill:#FFC100;stroke:#263238;stroke-linecap:round;stroke-linejoin:round"></rect><polygon points="316.46 368.56 316.8 361.41 306.56 361.41 305.88 368.56 316.46 368.56" style="fill:#263238;stroke:#fff;stroke-linecap:round;stroke-linejoin:round"></polygon><polygon points="337.62 368.56 337.27 361.41 327.03 361.41 327.04 368.56 337.62 368.56" style="fill:#263238;stroke:#fff;stroke-linecap:round;stroke-linejoin:round"></polygon><polygon points="392.71 376.21 403.65 376.21 401.08 368.56 390.51 368.56 392.71 376.21" style="fill:#263238;stroke:#fff;stroke-linecap:round;stroke-linejoin:round"></polygon><polygon points="305.88 368.56 306.56 361.41 296.33 361.41 295.31 368.56 305.88 368.56" style="fill:#263238;stroke:#fff;stroke-linecap:round;stroke-linejoin:round"></polygon><polygon points="284.73 368.56 286.09 361.41 275.86 361.41 274.15 368.56 284.73 368.56" style="fill:#263238;stroke:#fff;stroke-linecap:round;stroke-linejoin:round"></polygon><polygon points="379.93 368.56 378.21 361.41 367.98 361.41 369.35 368.56 379.93 368.56" style="fill:#263238;stroke:#fff;stroke-linecap:round;stroke-linejoin:round"></polygon><polygon points="390.51 368.56 388.45 361.41 378.21 361.41 379.93 368.56 390.51 368.56" style="fill:#263238;stroke:#fff;stroke-linecap:round;stroke-linejoin:round"></polygon><polygon points="274.15 368.56 275.86 361.41 265.62 361.41 263.57 368.56 274.15 368.56" style="fill:#263238;stroke:#fff;stroke-linecap:round;stroke-linejoin:round"></polygon><polygon points="348.19 368.56 347.5 361.41 337.27 361.41 337.62 368.56 348.19 368.56" style="fill:#263238;stroke:#fff;stroke-linecap:round;stroke-linejoin:round"></polygon><polygon points="401.08 368.56 398.68 361.41 388.45 361.41 390.51 368.56 401.08 368.56" style="fill:#263238;stroke:#fff;stroke-linecap:round;stroke-linejoin:round"></polygon><polygon points="369.35 368.56 367.98 361.41 357.74 361.41 358.77 368.56 369.35 368.56" style="fill:#263238;stroke:#fff;stroke-linecap:round;stroke-linejoin:round"></polygon><polygon points="358.77 368.56 357.74 361.41 347.5 361.41 348.19 368.56 358.77 368.56" style="fill:#263238;stroke:#fff;stroke-linecap:round;stroke-linejoin:round"></polygon><polygon points="327.04 368.56 327.03 361.41 316.8 361.41 316.46 368.56 327.04 368.56" style="fill:#263238;stroke:#fff;stroke-linecap:round;stroke-linejoin:round"></polygon><polygon points="253 368.56 242.42 368.56 239.5 376.21 250.44 376.21 253 368.56" style="fill:#263238;stroke:#fff;stroke-linecap:round;stroke-linejoin:round"></polygon><polygon points="255.38 361.41 245.15 361.41 242.42 368.56 253 368.56 255.38 361.41" style="fill:#263238;stroke:#fff;stroke-linecap:round;stroke-linejoin:round"></polygon><polygon points="263.57 368.56 265.62 361.41 255.38 361.41 253 368.56 263.57 368.56" style="fill:#263238;stroke:#fff;stroke-linecap:round;stroke-linejoin:round"></polygon><polygon points="236.37 384.4 233 393.2 244.76 393.2 247.7 384.4 236.37 384.4" style="fill:#263238;stroke:#fff;stroke-linecap:round;stroke-linejoin:round"></polygon><polygon points="250.44 376.21 239.5 376.21 236.37 384.4 247.7 384.4 250.44 376.21" style="fill:#263238;stroke:#fff;stroke-linecap:round;stroke-linejoin:round"></polygon><polygon points="247.7 384.4 244.76 393.2 256.52 393.2 259.04 384.4 247.7 384.4" style="fill:#263238;stroke:#fff;stroke-linecap:round;stroke-linejoin:round"></polygon><polygon points="295.31 368.56 296.33 361.41 286.09 361.41 284.73 368.56 295.31 368.56" style="fill:#263238;stroke:#fff;stroke-linecap:round;stroke-linejoin:round"></polygon><polygon points="294.21 376.21 295.31 368.56 284.73 368.56 283.27 376.21 294.21 376.21" style="fill:#263238;stroke:#fff;stroke-linecap:round;stroke-linejoin:round"></polygon><polygon points="283.27 376.21 284.73 368.56 274.15 368.56 272.33 376.21 283.27 376.21" style="fill:#263238;stroke:#fff;stroke-linecap:round;stroke-linejoin:round"></polygon><polygon points="305.16 376.21 305.88 368.56 295.31 368.56 294.21 376.21 305.16 376.21" style="fill:#263238;stroke:#fff;stroke-linecap:round;stroke-linejoin:round"></polygon><polygon points="263.57 368.56 253 368.56 250.44 376.21 261.38 376.21 263.57 368.56" style="fill:#263238;stroke:#fff;stroke-linecap:round;stroke-linejoin:round"></polygon><polygon points="395.07 384.4 406.41 384.4 403.65 376.21 392.71 376.21 395.07 384.4" style="fill:#263238;stroke:#fff;stroke-linecap:round;stroke-linejoin:round"></polygon><polygon points="272.33 376.21 274.15 368.56 263.57 368.56 261.38 376.21 272.33 376.21" style="fill:#263238;stroke:#fff;stroke-linecap:round;stroke-linejoin:round"></polygon><polygon points="250.44 376.21 247.7 384.4 259.04 384.4 261.38 376.21 250.44 376.21" style="fill:#263238;stroke:#fff;stroke-linecap:round;stroke-linejoin:round"></polygon><polygon points="370.82 376.21 369.35 368.56 358.77 368.56 359.88 376.21 370.82 376.21" style="fill:#263238;stroke:#fff;stroke-linecap:round;stroke-linejoin:round"></polygon><polygon points="359.88 376.21 358.77 368.56 348.19 368.56 348.93 376.21 359.88 376.21" style="fill:#263238;stroke:#fff;stroke-linecap:round;stroke-linejoin:round"></polygon><polygon points="392.71 376.21 390.51 368.56 379.93 368.56 381.76 376.21 392.71 376.21" style="fill:#263238;stroke:#fff;stroke-linecap:round;stroke-linejoin:round"></polygon><polygon points="327.05 376.21 327.04 368.56 316.46 368.56 316.1 376.21 327.05 376.21" style="fill:#263238;stroke:#fff;stroke-linecap:round;stroke-linejoin:round"></polygon><polygon points="348.93 376.21 348.19 368.56 337.62 368.56 337.99 376.21 348.93 376.21" style="fill:#263238;stroke:#fff;stroke-linecap:round;stroke-linejoin:round"></polygon><polygon points="337.99 376.21 337.62 368.56 327.04 368.56 327.05 376.21 337.99 376.21" style="fill:#263238;stroke:#fff;stroke-linecap:round;stroke-linejoin:round"></polygon><polygon points="316.1 376.21 316.46 368.56 305.88 368.56 305.16 376.21 316.1 376.21" style="fill:#263238;stroke:#fff;stroke-linecap:round;stroke-linejoin:round"></polygon><polygon points="348.93 376.21 349.73 384.4 361.06 384.4 359.88 376.21 348.93 376.21" style="fill:#263238;stroke:#fff;stroke-linecap:round;stroke-linejoin:round"></polygon><polygon points="359.88 376.21 361.06 384.4 372.4 384.4 370.82 376.21 359.88 376.21" style="fill:#263238;stroke:#fff;stroke-linecap:round;stroke-linejoin:round"></polygon><polygon points="261.38 376.21 259.04 384.4 270.38 384.4 272.33 376.21 261.38 376.21" style="fill:#263238;stroke:#fff;stroke-linecap:round;stroke-linejoin:round"></polygon><polygon points="370.82 376.21 372.4 384.4 383.73 384.4 381.76 376.21 370.82 376.21" style="fill:#263238;stroke:#fff;stroke-linecap:round;stroke-linejoin:round"></polygon><polygon points="327.05 376.21 327.05 384.4 338.39 384.4 337.99 376.21 327.05 376.21" style="fill:#263238;stroke:#fff;stroke-linecap:round;stroke-linejoin:round"></polygon><polygon points="381.76 376.21 383.73 384.4 395.07 384.4 392.71 376.21 381.76 376.21" style="fill:#263238;stroke:#fff;stroke-linecap:round;stroke-linejoin:round"></polygon><polygon points="337.99 376.21 338.39 384.4 349.73 384.4 348.93 376.21 337.99 376.21" style="fill:#263238;stroke:#fff;stroke-linecap:round;stroke-linejoin:round"></polygon><polygon points="283.27 376.21 281.71 384.4 293.05 384.4 294.21 376.21 283.27 376.21" style="fill:#263238;stroke:#fff;stroke-linecap:round;stroke-linejoin:round"></polygon><polygon points="272.33 376.21 270.38 384.4 281.71 384.4 283.27 376.21 272.33 376.21" style="fill:#263238;stroke:#fff;stroke-linecap:round;stroke-linejoin:round"></polygon><polygon points="316.1 376.21 315.72 384.4 327.05 384.4 327.05 376.21 316.1 376.21" style="fill:#263238;stroke:#fff;stroke-linecap:round;stroke-linejoin:round"></polygon><polygon points="305.16 376.21 304.38 384.4 315.72 384.4 316.1 376.21 305.16 376.21" style="fill:#263238;stroke:#fff;stroke-linecap:round;stroke-linejoin:round"></polygon><polygon points="294.21 376.21 293.05 384.4 304.38 384.4 305.16 376.21 294.21 376.21" style="fill:#263238;stroke:#fff;stroke-linecap:round;stroke-linejoin:round"></polygon><polygon points="381.76 376.21 379.93 368.56 369.35 368.56 370.82 376.21 381.76 376.21" style="fill:#263238;stroke:#fff;stroke-linecap:round;stroke-linejoin:round"></polygon><polygon points="255.38 361.41 257.83 354.09 247.94 354.09 245.15 361.41 255.38 361.41" style="fill:#263238;stroke:#fff;stroke-linecap:round;stroke-linejoin:round"></polygon><polygon points="245.15 361.41 235.7 361.41 232.65 368.56 242.42 368.56 245.15 361.41" style="fill:#263238;stroke:#fff;stroke-linecap:round;stroke-linejoin:round"></polygon><polygon points="247.94 354.09 238.82 354.09 235.7 361.41 245.15 361.41 247.94 354.09" style="fill:#263238;stroke:#fff;stroke-linecap:round;stroke-linejoin:round"></polygon><polygon points="242.42 368.56 232.65 368.56 229.4 376.21 239.5 376.21 242.42 368.56" style="fill:#263238;stroke:#fff;stroke-linecap:round;stroke-linejoin:round"></polygon><polygon points="239.5 376.21 229.4 376.21 225.9 384.4 236.37 384.4 239.5 376.21" style="fill:#263238;stroke:#fff;stroke-linecap:round;stroke-linejoin:round"></polygon><polygon points="236.37 384.4 225.9 384.4 222.15 393.2 233 393.2 236.37 384.4" style="fill:#263238;stroke:#fff;stroke-linecap:round;stroke-linejoin:round"></polygon><polygon points="411.66 368.56 414.6 376.21 424.28 376.21 421.02 368.56 411.66 368.56" style="fill:#263238;stroke:#fff;stroke-linecap:round;stroke-linejoin:round"></polygon><polygon points="417.74 384.4 427.77 384.4 424.28 376.21 414.6 376.21 417.74 384.4" style="fill:#263238;stroke:#fff;stroke-linecap:round;stroke-linejoin:round"></polygon><polygon points="421.12 393.2 431.52 393.2 427.77 384.4 417.74 384.4 421.12 393.2" style="fill:#263238;stroke:#fff;stroke-linecap:round;stroke-linejoin:round"></polygon><polygon points="337.27 361.41 336.91 354.09 327.03 354.09 327.03 361.41 337.27 361.41" style="fill:#263238;stroke:#fff;stroke-linecap:round;stroke-linejoin:round"></polygon><polygon points="411.66 368.56 421.02 368.56 417.97 361.41 408.92 361.41 411.66 368.56" style="fill:#263238;stroke:#fff;stroke-linecap:round;stroke-linejoin:round"></polygon><polygon points="406.41 384.4 417.74 384.4 414.6 376.21 403.65 376.21 406.41 384.4" style="fill:#263238;stroke:#fff;stroke-linecap:round;stroke-linejoin:round"></polygon><polygon points="265.62 361.41 267.71 354.09 257.83 354.09 255.38 361.41 265.62 361.41" style="fill:#263238;stroke:#fff;stroke-linecap:round;stroke-linejoin:round"></polygon><polygon points="398.68 361.41 401.08 368.56 411.66 368.56 408.92 361.41 398.68 361.41" style="fill:#263238;stroke:#fff;stroke-linecap:round;stroke-linejoin:round"></polygon><polygon points="417.97 361.41 414.85 354.09 406.11 354.09 408.92 361.41 417.97 361.41" style="fill:#263238;stroke:#fff;stroke-linecap:round;stroke-linejoin:round"></polygon><polygon points="408.92 361.41 406.11 354.09 396.22 354.09 398.68 361.41 408.92 361.41" style="fill:#263238;stroke:#fff;stroke-linecap:round;stroke-linejoin:round"></polygon><polygon points="372.4 384.4 374.09 393.2 385.85 393.2 383.73 384.4 372.4 384.4" style="fill:#263238;stroke:#fff;stroke-linecap:round;stroke-linejoin:round"></polygon><polygon points="409.36 393.2 421.12 393.2 417.74 384.4 406.41 384.4 409.36 393.2" style="fill:#263238;stroke:#fff;stroke-linecap:round;stroke-linejoin:round"></polygon><polygon points="398.68 361.41 396.22 354.09 386.34 354.09 388.45 361.41 398.68 361.41" style="fill:#263238;stroke:#fff;stroke-linecap:round;stroke-linejoin:round"></polygon><polygon points="395.07 384.4 397.61 393.2 409.36 393.2 406.41 384.4 395.07 384.4" style="fill:#263238;stroke:#fff;stroke-linecap:round;stroke-linejoin:round"></polygon><polygon points="383.73 384.4 385.85 393.2 397.61 393.2 395.07 384.4 383.73 384.4" style="fill:#263238;stroke:#fff;stroke-linecap:round;stroke-linejoin:round"></polygon><polygon points="403.65 376.21 414.6 376.21 411.66 368.56 401.08 368.56 403.65 376.21" style="fill:#263238;stroke:#fff;stroke-linecap:round;stroke-linejoin:round"></polygon><polygon points="306.56 361.41 307.26 354.09 297.37 354.09 296.33 361.41 306.56 361.41" style="fill:#263238;stroke:#fff;stroke-linecap:round;stroke-linejoin:round"></polygon><polygon points="388.45 361.41 386.34 354.09 376.45 354.09 378.21 361.41 388.45 361.41" style="fill:#263238;stroke:#fff;stroke-linecap:round;stroke-linejoin:round"></polygon><polygon points="296.33 361.41 297.37 354.09 287.49 354.09 286.09 361.41 296.33 361.41" style="fill:#263238;stroke:#fff;stroke-linecap:round;stroke-linejoin:round"></polygon><polygon points="327.03 361.41 327.03 354.09 317.14 354.09 316.8 361.41 327.03 361.41" style="fill:#263238;stroke:#fff;stroke-linecap:round;stroke-linejoin:round"></polygon><polygon points="286.09 361.41 287.49 354.09 277.6 354.09 275.86 361.41 286.09 361.41" style="fill:#263238;stroke:#fff;stroke-linecap:round;stroke-linejoin:round"></polygon><polygon points="275.86 361.41 277.6 354.09 267.71 354.09 265.62 361.41 275.86 361.41" style="fill:#263238;stroke:#fff;stroke-linecap:round;stroke-linejoin:round"></polygon><polygon points="316.8 361.41 317.14 354.09 307.26 354.09 306.56 361.41 316.8 361.41" style="fill:#263238;stroke:#fff;stroke-linecap:round;stroke-linejoin:round"></polygon><polygon points="378.21 361.41 376.45 354.09 366.57 354.09 367.98 361.41 378.21 361.41" style="fill:#263238;stroke:#fff;stroke-linecap:round;stroke-linejoin:round"></polygon><polygon points="367.98 361.41 366.57 354.09 356.68 354.09 357.74 361.41 367.98 361.41" style="fill:#263238;stroke:#fff;stroke-linecap:round;stroke-linejoin:round"></polygon><polygon points="347.5 361.41 346.8 354.09 336.91 354.09 337.27 361.41 347.5 361.41" style="fill:#263238;stroke:#fff;stroke-linecap:round;stroke-linejoin:round"></polygon><polygon points="372.4 384.4 361.06 384.4 349.73 384.4 338.39 384.4 327.05 384.4 315.72 384.4 304.38 384.4 293.05 384.4 281.71 384.4 270.38 384.4 259.04 384.4 256.52 393.2 268.28 393.2 280.03 393.2 291.79 393.2 303.55 393.2 315.31 393.2 327.06 393.2 338.82 393.2 350.58 393.2 362.33 393.2 374.09 393.2 372.4 384.4" style="fill:#263238;stroke:#fff;stroke-linecap:round;stroke-linejoin:round"></polygon><polygon points="357.74 361.41 356.68 354.09 346.8 354.09 347.5 361.41 357.74 361.41" style="fill:#263238;stroke:#fff;stroke-linecap:round;stroke-linejoin:round"></polygon><rect x="198.63" y="408.66" width="251.94" height="3.57" style="fill:#263238;stroke:#263238;stroke-linecap:round;stroke-linejoin:round"></rect></g><g id="freepik--Document--inject-63"><polygon points="391.91 253.25 391.91 349.34 363.98 385.75 359.28 387.51 216 408.65 216 413.35 163.52 416.17 163.52 364.61 253 364.61 253 252.79 391.91 253.25" style="opacity:0.15"></polygon><path d="M131.34,354.3c-6.45.32-13.44,5.24-13.44,5.24L45,416.17H163.52s74.83-56.47,77.07-58.09c3.55-2.56,10.59-3.86,10.59-3.86l-3.33.08Z" style="fill:#fff;stroke:#263238;stroke-linecap:round;stroke-linejoin:round"></path><line x1="404" y1="253.34" x2="245.39" y2="253.34" style="fill:none;stroke:#263238;stroke-linecap:round;stroke-linejoin:round"></line><path d="M380.08,219.16A11.82,11.82,0,0,0,368.25,231V376.41a12,12,0,0,1-16,11.29l-89.73-31.87a26,26,0,0,0-14.66-.82V231a11.83,11.83,0,0,1,11.83-11.83Z" style="fill:#fff"></path><g style="clip-path:url(#freepik--clip-path--inject-63)"><path d="M273.54,359.75l78.7,27.95a12,12,0,0,0,16-11.29V359.75Z" style="fill:#FFC100"></path><path d="M273.54,359.75l78.7,27.95a12,12,0,0,0,16-11.29V359.75Z" style="fill:#fff;opacity:0.6000000000000001"></path><path d="M273.54,378.9l78.7,28a12,12,0,0,0,16-11.3V378.9Z" style="fill:#FFC100"></path></g><path d="M380.08,219.16A11.82,11.82,0,0,0,368.25,231V376.41a12,12,0,0,1-16,11.29l-89.73-31.87a26,26,0,0,0-14.66-.82V231a11.83,11.83,0,0,1,11.83-11.83Z" style="fill:none;stroke:#263238;stroke-linecap:round;stroke-linejoin:round"></path><line x1="252.95" y1="354.3" x2="247.85" y2="354.3" style="fill:#fff;stroke:#263238;stroke-linecap:round;stroke-linejoin:round"></line><path d="M356.27,388.41H235.87a11.92,11.92,0,0,1-4-.71l-20.79-7.31,25.85-19.9a26.17,26.17,0,0,1,25.6-4.66l89.73,31.87A11.94,11.94,0,0,0,356.27,388.41Z" style="fill:#fff"></path><g style="clip-path:url(#freepik--clip-path-2--inject-63)"><path d="M356.27,388.41H235.87a11.92,11.92,0,0,1-4-.71L209.79,380l27.12-19.51a26.17,26.17,0,0,1,25.6-4.66l89.73,31.87A11.94,11.94,0,0,0,356.27,388.41Z" style="fill:#FFC100"></path><path d="M356.27,388.41H235.87a11.92,11.92,0,0,1-4-.71L209.79,380l27.12-19.51a26.17,26.17,0,0,1,25.6-4.66l89.73,31.87A11.94,11.94,0,0,0,356.27,388.41Z" style="opacity:0.2"></path></g><path d="M356.27,388.41H235.87a11.92,11.92,0,0,1-4-.71l-20.79-7.31,25.85-19.9a26.17,26.17,0,0,1,25.6-4.66l89.73,31.87A11.94,11.94,0,0,0,356.27,388.41Z" style="fill:none;stroke:#263238;stroke-linecap:round;stroke-linejoin:round"></path><line x1="235.87" y1="388.41" x2="235.61" y2="388.41" style="fill:#fff;stroke:#263238;stroke-linecap:round;stroke-linejoin:round"></line><line x1="356.5" y1="388.41" x2="356.27" y2="388.41" style="fill:#fff;stroke:#263238;stroke-linecap:round;stroke-linejoin:round"></line><path d="M388.44,222.63a11.74,11.74,0,0,0-8.36-3.47c-12.32,0-11.83,11.83-11.83,11.83v22.26h23.66V231A11.76,11.76,0,0,0,388.44,222.63Z" style="fill:#fff"></path><g style="clip-path:url(#freepik--clip-path-3--inject-63)"><path d="M388.44,222.63a11.74,11.74,0,0,0-8.36-3.47c-12.32,0-11.83,11.83-11.83,11.83v22.26h23.66V231A11.76,11.76,0,0,0,388.44,222.63Z" style="fill:#FFC100"></path><path d="M388.44,222.63a11.74,11.74,0,0,0-8.36-3.47c-12.32,0-11.83,11.83-11.83,11.83v22.26h23.66V231A11.76,11.76,0,0,0,388.44,222.63Z" style="opacity:0.2"></path></g><path d="M388.44,222.63a11.74,11.74,0,0,0-8.36-3.47c-12.32,0-11.83,11.83-11.83,11.83v22.26h23.66V231A11.76,11.76,0,0,0,388.44,222.63Z" style="fill:none;stroke:#263238;stroke-linecap:round;stroke-linejoin:round"></path><g style="opacity:0.15"><polygon points="258.9 239.54 258.9 239.75 258.9 244.8 258.9 245.01 258.9 250.06 258.9 250.27 258.9 255.31 258.9 255.52 258.9 260.57 258.9 260.78 258.9 265.83 258.9 266.04 258.9 271.08 258.9 271.29 258.9 276.34 258.9 276.55 258.9 281.6 258.9 281.81 258.9 286.85 258.9 287.06 258.9 292.11 258.9 292.32 258.9 297.58 270.33 297.58 270.33 292.32 270.33 292.11 270.33 287.06 270.33 286.85 270.33 281.81 270.33 281.6 270.33 276.55 270.33 276.34 270.33 271.29 270.33 271.08 270.33 266.04 270.33 265.83 270.33 260.78 270.33 260.57 270.33 255.52 270.33 255.31 270.33 250.27 270.33 250.06 270.33 245.01 270.33 244.8 270.33 239.75 270.33 239.54 270.33 234.29 258.9 234.29 258.9 239.54"></polygon><polygon points="349.02 234.29 348.78 234.29 337.84 234.29 337.59 234.29 326.65 234.29 326.4 234.29 315.47 234.29 315.22 234.29 304.28 234.29 304.03 234.29 293.1 234.29 292.85 234.29 281.91 234.29 281.66 234.29 270.48 234.29 270.48 239.75 281.66 239.75 281.91 239.75 292.85 239.75 293.1 239.75 304.03 239.75 304.28 239.75 315.22 239.75 315.47 239.75 326.4 239.75 326.65 239.75 337.59 239.75 337.84 239.75 348.78 239.75 349.02 239.75 360.21 239.75 360.21 234.29 349.02 234.29"></polygon></g><rect x="258.9" y="234.29" width="11.43" height="5.47" style="fill:none;stroke:#263238;stroke-linecap:round;stroke-linejoin:round;stroke-width:0.25px"></rect><rect x="258.9" y="239.54" width="11.43" height="5.47" style="fill:none;stroke:#263238;stroke-linecap:round;stroke-linejoin:round;stroke-width:0.25px"></rect><rect x="258.9" y="244.8" width="11.43" height="5.47" style="fill:none;stroke:#263238;stroke-linecap:round;stroke-linejoin:round;stroke-width:0.25px"></rect><rect x="258.9" y="250.06" width="11.43" height="5.47" style="fill:none;stroke:#263238;stroke-linecap:round;stroke-linejoin:round;stroke-width:0.25px"></rect><rect x="258.9" y="255.31" width="11.43" height="5.47" style="fill:none;stroke:#263238;stroke-linecap:round;stroke-linejoin:round;stroke-width:0.25px"></rect><rect x="258.9" y="260.57" width="11.43" height="5.47" style="fill:none;stroke:#263238;stroke-linecap:round;stroke-linejoin:round;stroke-width:0.25px"></rect><rect x="258.9" y="265.83" width="11.43" height="5.47" style="fill:none;stroke:#263238;stroke-linecap:round;stroke-linejoin:round;stroke-width:0.25px"></rect><rect x="258.9" y="271.08" width="11.43" height="5.47" style="fill:none;stroke:#263238;stroke-linecap:round;stroke-linejoin:round;stroke-width:0.25px"></rect><rect x="258.9" y="276.34" width="11.43" height="5.47" style="fill:none;stroke:#263238;stroke-linecap:round;stroke-linejoin:round;stroke-width:0.25px"></rect><rect x="258.9" y="281.6" width="11.43" height="5.47" style="fill:none;stroke:#263238;stroke-linecap:round;stroke-linejoin:round;stroke-width:0.25px"></rect><rect x="258.9" y="286.85" width="11.43" height="5.47" style="fill:none;stroke:#263238;stroke-linecap:round;stroke-linejoin:round;stroke-width:0.25px"></rect><rect x="258.9" y="292.11" width="11.43" height="5.47" style="fill:none;stroke:#263238;stroke-linecap:round;stroke-linejoin:round;stroke-width:0.25px"></rect><rect x="270.48" y="234.29" width="11.43" height="5.47" style="fill:none;stroke:#263238;stroke-linecap:round;stroke-linejoin:round;stroke-width:0.25px"></rect><rect x="281.66" y="234.29" width="11.43" height="5.47" style="fill:none;stroke:#263238;stroke-linecap:round;stroke-linejoin:round;stroke-width:0.25px"></rect><rect x="292.85" y="234.29" width="11.43" height="5.47" style="fill:none;stroke:#263238;stroke-linecap:round;stroke-linejoin:round;stroke-width:0.25px"></rect><rect x="304.03" y="234.29" width="11.43" height="5.47" style="fill:none;stroke:#263238;stroke-linecap:round;stroke-linejoin:round;stroke-width:0.25px"></rect><rect x="315.22" y="234.29" width="11.43" height="5.47" style="fill:none;stroke:#263238;stroke-linecap:round;stroke-linejoin:round;stroke-width:0.25px"></rect><rect x="326.4" y="234.29" width="11.43" height="5.47" style="fill:none;stroke:#263238;stroke-linecap:round;stroke-linejoin:round;stroke-width:0.25px"></rect><rect x="337.59" y="234.29" width="11.43" height="5.47" style="fill:none;stroke:#263238;stroke-linecap:round;stroke-linejoin:round;stroke-width:0.25px"></rect><rect x="348.78" y="234.29" width="11.43" height="5.47" style="fill:none;stroke:#263238;stroke-linecap:round;stroke-linejoin:round;stroke-width:0.25px"></rect><rect x="270.33" y="239.75" width="89.87" height="57.82" style="fill:none;stroke:#263238;stroke-linecap:round;stroke-linejoin:round;stroke-width:0.25px"></rect><line x1="281.76" y1="239.75" x2="281.76" y2="297.56" style="fill:none;stroke:#263238;stroke-linecap:round;stroke-linejoin:round;stroke-width:0.25px"></line><line x1="292.95" y1="239.75" x2="292.95" y2="297.56" style="fill:none;stroke:#263238;stroke-linecap:round;stroke-linejoin:round;stroke-width:0.25px"></line><line x1="304.14" y1="239.75" x2="304.14" y2="297.56" style="fill:none;stroke:#263238;stroke-linecap:round;stroke-linejoin:round;stroke-width:0.25px"></line><line x1="315.33" y1="239.75" x2="315.33" y2="297.56" style="fill:none;stroke:#263238;stroke-linecap:round;stroke-linejoin:round;stroke-width:0.25px"></line><line x1="326.51" y1="239.75" x2="326.51" y2="297.56" style="fill:none;stroke:#263238;stroke-linecap:round;stroke-linejoin:round;stroke-width:0.25px"></line><line x1="337.7" y1="239.75" x2="337.7" y2="297.56" style="fill:none;stroke:#263238;stroke-linecap:round;stroke-linejoin:round;stroke-width:0.25px"></line><line x1="348.89" y1="239.75" x2="348.89" y2="297.56" style="fill:none;stroke:#263238;stroke-linecap:round;stroke-linejoin:round;stroke-width:0.25px"></line><line x1="270.33" y1="245.01" x2="360.14" y2="245.01" style="fill:none;stroke:#263238;stroke-linecap:round;stroke-linejoin:round;stroke-width:0.25px"></line><line x1="270.33" y1="250.25" x2="360.14" y2="250.25" style="fill:none;stroke:#263238;stroke-linecap:round;stroke-linejoin:round;stroke-width:0.25px"></line><line x1="270.33" y1="255.49" x2="360.14" y2="255.49" style="fill:none;stroke:#263238;stroke-linecap:round;stroke-linejoin:round;stroke-width:0.25px"></line><line x1="270.33" y1="260.73" x2="360.14" y2="260.73" style="fill:none;stroke:#263238;stroke-linecap:round;stroke-linejoin:round;stroke-width:0.25px"></line><line x1="270.33" y1="265.97" x2="360.14" y2="265.97" style="fill:none;stroke:#263238;stroke-linecap:round;stroke-linejoin:round;stroke-width:0.25px"></line><line x1="270.33" y1="271.2" x2="360.14" y2="271.2" style="fill:none;stroke:#263238;stroke-linecap:round;stroke-linejoin:round;stroke-width:0.25px"></line><line x1="270.33" y1="276.44" x2="360.14" y2="276.44" style="fill:none;stroke:#263238;stroke-linecap:round;stroke-linejoin:round;stroke-width:0.25px"></line><line x1="270.33" y1="281.68" x2="360.14" y2="281.68" style="fill:none;stroke:#263238;stroke-linecap:round;stroke-linejoin:round;stroke-width:0.25px"></line><line x1="270.33" y1="286.92" x2="360.14" y2="286.92" style="fill:none;stroke:#263238;stroke-linecap:round;stroke-linejoin:round;stroke-width:0.25px"></line><line x1="270.33" y1="292.16" x2="360.14" y2="292.16" style="fill:none;stroke:#263238;stroke-linecap:round;stroke-linejoin:round;stroke-width:0.25px"></line><polygon points="213.04 368.38 116.69 368.38 123.34 363.33 219.69 363.33 213.04 368.38" style="fill:#FFC100"></polygon><polygon points="65.7 408.92 63.34 408.92 123.34 363.33 125.71 363.33 65.7 408.92" style="fill:#FFC100"></polygon><polygon points="191.81 384.48 95.47 384.48 103 378.84 199.34 378.84 191.81 384.48" style="fill:#263238"></polygon><polygon points="159.38 409.15 63.03 409.15 123.34 363.33 219.69 363.33 159.38 409.15" style="fill:none;stroke:#263238;stroke-linecap:round;stroke-linejoin:round;stroke-width:0.25px"></polygon><line x1="133.27" y1="363.5" x2="73.22" y2="409.12" style="fill:none;stroke:#263238;stroke-linecap:round;stroke-linejoin:round;stroke-width:0.25px"></line><line x1="142.95" y1="363.5" x2="82.9" y2="409.12" style="fill:none;stroke:#263238;stroke-linecap:round;stroke-linejoin:round;stroke-width:0.25px"></line><line x1="152.62" y1="363.5" x2="92.57" y2="409.12" style="fill:none;stroke:#263238;stroke-linecap:round;stroke-linejoin:round;stroke-width:0.25px"></line><line x1="162.3" y1="363.5" x2="102.25" y2="409.12" style="fill:none;stroke:#263238;stroke-linecap:round;stroke-linejoin:round;stroke-width:0.25px"></line><line x1="171.98" y1="363.5" x2="111.93" y2="409.12" style="fill:none;stroke:#263238;stroke-linecap:round;stroke-linejoin:round;stroke-width:0.25px"></line><line x1="181.66" y1="363.5" x2="121.6" y2="409.12" style="fill:none;stroke:#263238;stroke-linecap:round;stroke-linejoin:round;stroke-width:0.25px"></line><line x1="191.33" y1="363.5" x2="131.28" y2="409.12" style="fill:none;stroke:#263238;stroke-linecap:round;stroke-linejoin:round;stroke-width:0.25px"></line><line x1="201.01" y1="363.5" x2="140.96" y2="409.12" style="fill:none;stroke:#263238;stroke-linecap:round;stroke-linejoin:round;stroke-width:0.25px"></line><line x1="210.69" y1="363.5" x2="150.63" y2="409.12" style="fill:none;stroke:#263238;stroke-linecap:round;stroke-linejoin:round;stroke-width:0.25px"></line><line x1="110.79" y1="372.99" x2="206.85" y2="372.99" style="fill:none;stroke:#263238;stroke-linecap:round;stroke-linejoin:round;stroke-width:0.25px"></line><line x1="103.12" y1="378.82" x2="199.18" y2="378.82" style="fill:none;stroke:#263238;stroke-linecap:round;stroke-linejoin:round;stroke-width:0.25px"></line><line x1="95.45" y1="384.65" x2="191.51" y2="384.65" style="fill:none;stroke:#263238;stroke-linecap:round;stroke-linejoin:round;stroke-width:0.25px"></line><line x1="87.78" y1="390.47" x2="183.84" y2="390.47" style="fill:none;stroke:#263238;stroke-linecap:round;stroke-linejoin:round;stroke-width:0.25px"></line><line x1="80.11" y1="396.3" x2="176.17" y2="396.3" style="fill:none;stroke:#263238;stroke-linecap:round;stroke-linejoin:round;stroke-width:0.25px"></line><line x1="72.44" y1="402.13" x2="168.5" y2="402.13" style="fill:none;stroke:#263238;stroke-linecap:round;stroke-linejoin:round;stroke-width:0.25px"></line><rect x="258.81" y="301.99" width="101.55" height="3.73" style="fill:#FFC100"></rect><rect x="258.81" y="301.99" width="2.49" height="48.04" style="fill:#FFC100"></rect><rect x="258.81" y="301.99" width="101.55" height="48.29" style="fill:none;stroke:#263238;stroke-linecap:round;stroke-linejoin:round;stroke-width:0.25px"></rect><line x1="269.51" y1="302.17" x2="269.51" y2="350.25" style="fill:none;stroke:#263238;stroke-linecap:round;stroke-linejoin:round;stroke-width:0.25px"></line><line x1="279.71" y1="302.17" x2="279.71" y2="350.25" style="fill:none;stroke:#263238;stroke-linecap:round;stroke-linejoin:round;stroke-width:0.25px"></line><line x1="289.91" y1="302.17" x2="289.91" y2="350.25" style="fill:none;stroke:#263238;stroke-linecap:round;stroke-linejoin:round;stroke-width:0.25px"></line><line x1="300.11" y1="302.17" x2="300.11" y2="350.25" style="fill:none;stroke:#263238;stroke-linecap:round;stroke-linejoin:round;stroke-width:0.25px"></line><line x1="310.31" y1="302.17" x2="310.31" y2="350.25" style="fill:none;stroke:#263238;stroke-linecap:round;stroke-linejoin:round;stroke-width:0.25px"></line><line x1="320.51" y1="302.17" x2="320.51" y2="350.25" style="fill:none;stroke:#263238;stroke-linecap:round;stroke-linejoin:round;stroke-width:0.25px"></line><line x1="330.71" y1="302.17" x2="330.71" y2="350.25" style="fill:none;stroke:#263238;stroke-linecap:round;stroke-linejoin:round;stroke-width:0.25px"></line><line x1="340.9" y1="302.17" x2="340.9" y2="350.25" style="fill:none;stroke:#263238;stroke-linecap:round;stroke-linejoin:round;stroke-width:0.25px"></line><line x1="351.1" y1="302.17" x2="351.1" y2="350.25" style="fill:none;stroke:#263238;stroke-linecap:round;stroke-linejoin:round;stroke-width:0.25px"></line><line x1="258.98" y1="312.17" x2="360.23" y2="312.17" style="fill:none;stroke:#263238;stroke-linecap:round;stroke-linejoin:round;stroke-width:0.25px"></line><line x1="258.98" y1="318.32" x2="360.23" y2="318.32" style="fill:none;stroke:#263238;stroke-linecap:round;stroke-linejoin:round;stroke-width:0.25px"></line><line x1="258.98" y1="324.46" x2="360.23" y2="324.46" style="fill:none;stroke:#263238;stroke-linecap:round;stroke-linejoin:round;stroke-width:0.25px"></line><line x1="258.98" y1="330.6" x2="360.23" y2="330.6" style="fill:none;stroke:#263238;stroke-linecap:round;stroke-linejoin:round;stroke-width:0.25px"></line><line x1="258.98" y1="336.74" x2="360.23" y2="336.74" style="fill:none;stroke:#263238;stroke-linecap:round;stroke-linejoin:round;stroke-width:0.25px"></line><line x1="258.98" y1="342.88" x2="360.23" y2="342.88" style="fill:none;stroke:#263238;stroke-linecap:round;stroke-linejoin:round;stroke-width:0.25px"></line><rect x="322.51" y="332.81" width="4.23" height="9.88" style="fill:#263238;stroke:#263238;stroke-miterlimit:10;stroke-width:0.5px"></rect><rect x="329.29" y="326.89" width="4.23" height="15.81" style="fill:#FFC100;stroke:#263238;stroke-miterlimit:10;stroke-width:0.5px"></rect><rect x="336.06" y="317.01" width="4.23" height="25.69" style="fill:#263238;stroke:#263238;stroke-miterlimit:10;stroke-width:0.5px"></rect><rect x="342.84" y="326.6" width="4.23" height="16.09" style="fill:#FFC100;stroke:#263238;stroke-miterlimit:10;stroke-width:0.5px"></rect><rect x="349.61" y="317.01" width="4.23" height="25.69" style="fill:#263238;stroke:#263238;stroke-miterlimit:10;stroke-width:0.5px"></rect><path d="M283.19,330.82v11.74a11.74,11.74,0,0,1,0-23.48h0Z" style="fill:#FFC100;stroke:#263238;stroke-miterlimit:10;stroke-width:0.5px"></path><path d="M283.19,330.82l11.16-3.63A11.73,11.73,0,0,1,286.82,342a11.21,11.21,0,0,1-3.63.58Z" style="fill:#fff;stroke:#263238;stroke-miterlimit:10;stroke-width:0.5px"></path><path d="M283.19,330.82V319.08a11.55,11.55,0,0,1,11.16,8.11Z" style="fill:#263238;stroke:#263238;stroke-miterlimit:10;stroke-width:0.5px"></path></g></svg>