<?xml version="1.0" encoding="utf-8"?>
<!-- Generator: Adobe Illustrator 25.2.1, SVG Export Plug-In . SVG Version: 6.00 Build 0)  -->
<svg version="1.1" id="Layer_1" xmlns="http://www.w3.org/2000/svg" xmlns:xlink="http://www.w3.org/1999/xlink" x="0px" y="0px"
	 viewBox="0 0 100 100" style="enable-background:new 0 0 100 100;" xml:space="preserve">
<style type="text/css">
	.st0{fill:#43277E;}
	.st1{fill:#2BB4B0;}
</style>
<g>
	<g>
		<g>
			<rect x="23.5" y="52.7" class="st0" width="1.8" height="20.2"/>
		</g>
	</g>
	<g>
		<g>
			<rect x="27.1" y="52.7" class="st0" width="3.5" height="20.2"/>
		</g>
	</g>
	<g>
		<g>
			<rect x="32.3" y="52.7" class="st0" width="1.8" height="16.7"/>
		</g>
	</g>
	<g>
		<g>
			<rect x="35.8" y="52.7" class="st0" width="1.8" height="16.7"/>
		</g>
	</g>
	<g>
		<g>
			<rect x="41.1" y="52.7" class="st0" width="1.8" height="16.7"/>
		</g>
	</g>
	<g>
		<g>
			<rect x="44.6" y="52.7" class="st0" width="1.8" height="16.7"/>
		</g>
	</g>
	<g>
		<g>
			<rect x="48.1" y="52.7" class="st0" width="1.8" height="16.7"/>
		</g>
	</g>
	<g>
		<g>
			<rect x="51.6" y="52.7" class="st0" width="1.8" height="16.7"/>
		</g>
	</g>
	<g>
		<g>
			<rect x="55.2" y="52.7" class="st0" width="3.5" height="16.7"/>
		</g>
	</g>
	<g>
		<g>
			<rect x="60.4" y="52.7" class="st0" width="1.8" height="16.7"/>
		</g>
	</g>
	<g>
		<g>
			<rect x="63.9" y="52.7" class="st0" width="1.8" height="16.7"/>
		</g>
	</g>
	<g>
		<g>
			<rect x="69.2" y="52.7" class="st0" width="3.5" height="20.2"/>
		</g>
	</g>
	<g>
		<g>
			<rect x="74.5" y="52.7" class="st0" width="1.8" height="20.2"/>
		</g>
	</g>
	<g>
		<g>
			<rect x="23.5" y="27.2" class="st0" width="1.8" height="20.2"/>
		</g>
	</g>
	<g>
		<g>
			<rect x="27.1" y="27.2" class="st0" width="3.5" height="20.2"/>
		</g>
	</g>
	<g>
		<g>
			<rect x="32.3" y="27.2" class="st0" width="1.8" height="20.2"/>
		</g>
	</g>
	<g>
		<g>
			<rect x="35.8" y="27.2" class="st0" width="1.8" height="20.2"/>
		</g>
	</g>
	<g>
		<g>
			<rect x="41.1" y="27.2" class="st0" width="1.8" height="20.2"/>
		</g>
	</g>
	<g>
		<g>
			<rect x="44.6" y="27.2" class="st0" width="1.8" height="20.2"/>
		</g>
	</g>
	<g>
		<g>
			<rect x="48.1" y="27.2" class="st0" width="1.8" height="20.2"/>
		</g>
	</g>
	<g>
		<g>
			<rect x="51.6" y="27.2" class="st0" width="1.8" height="20.2"/>
		</g>
	</g>
	<g>
		<g>
			<rect x="55.2" y="27.2" class="st0" width="3.5" height="20.2"/>
		</g>
	</g>
	<g>
		<g>
			<rect x="60.4" y="27.2" class="st0" width="1.8" height="20.2"/>
		</g>
	</g>
	<g>
		<g>
			<rect x="63.9" y="27.2" class="st0" width="1.8" height="20.2"/>
		</g>
	</g>
	<g>
		<g>
			<rect x="69.2" y="27.2" class="st0" width="3.5" height="20.2"/>
		</g>
	</g>
	<g>
		<g>
			<rect x="74.5" y="27.2" class="st0" width="1.8" height="20.2"/>
		</g>
	</g>
	<g>
		<g>
			<rect x="32.3" y="71.2" class="st0" width="1.8" height="1.8"/>
		</g>
	</g>
	<g>
		<g>
			<rect x="35.8" y="71.2" class="st0" width="1.8" height="1.8"/>
		</g>
	</g>
	<g>
		<g>
			<rect x="44.6" y="71.2" class="st0" width="1.8" height="1.8"/>
		</g>
	</g>
	<g>
		<g>
			<rect x="48.1" y="71.2" class="st0" width="1.8" height="1.8"/>
		</g>
	</g>
	<g>
		<g>
			<rect x="51.6" y="71.2" class="st0" width="1.8" height="1.8"/>
		</g>
	</g>
	<g>
		<g>
			<rect x="55.2" y="71.2" class="st0" width="3.5" height="1.8"/>
		</g>
	</g>
	<g>
		<g>
			<rect x="60.4" y="71.2" class="st0" width="1.8" height="1.8"/>
		</g>
	</g>
	<g>
		<g>
			<rect x="63.9" y="71.2" class="st0" width="1.8" height="1.8"/>
		</g>
	</g>
	<g>
		<g>
			<rect x="41.1" y="71.2" class="st0" width="1.8" height="1.8"/>
		</g>
	</g>
	<g>
		<g>
			<rect x="21.8" y="49.2" class="st0" width="1.8" height="1.8"/>
		</g>
	</g>
	<g>
		<g>
			<rect x="76.2" y="49.2" class="st0" width="1.8" height="1.8"/>
		</g>
	</g>
	<g>
		<g>
			<rect x="25.3" y="49.2" class="st0" width="49.2" height="1.8"/>
		</g>
	</g>
	<g>
		<g>
			<path class="st1" d="M23.5,76.4v-1.8h-1.8v2.6c0,0.5,0.4,0.9,0.9,0.9h2.6v-1.8H23.5z"/>
		</g>
	</g>
	<g>
		<path class="st1" d="M21.4,22.8v3h2.6v-1.8h1.8v-2.5h-3C22,21.6,21.4,22.1,21.4,22.8z"/>
		<path class="st1" d="M77.1,21.6h-3v2.5h1.8v1.8h2.5v-3C78.4,22.1,77.8,21.6,77.1,21.6z"/>
		<path class="st1" d="M75.8,76h-1.8v2.5h3c0.7,0,1.3-0.6,1.3-1.3v-3h-2.5V76z"/>
	</g>
</g>
<path class="st0" d="M49.9,100C22.4,100,0,77.6,0,50.1S22.4,0.2,49.9,0.2s49.9,22.4,49.9,49.9S77.4,100,49.9,100z M49.9,2.4
	C23.6,2.4,2.2,23.8,2.2,50.1s21.4,47.7,47.7,47.7s47.7-21.4,47.7-47.7S76.2,2.4,49.9,2.4z"/>
</svg>
