<?xml version="1.0" encoding="utf-8"?>
<!-- Generator: Adobe Illustrator 25.2.1, SVG Export Plug-In . SVG Version: 6.00 Build 0)  -->
<svg version="1.1" id="Layer_1" xmlns="http://www.w3.org/2000/svg" xmlns:xlink="http://www.w3.org/1999/xlink" x="0px" y="0px"
	 viewBox="0 0 100 100" style="enable-background:new 0 0 100 100;" xml:space="preserve">
<style type="text/css">
	.st0{fill:#2BB4B0;}
	.st1{fill:#43277E;}
</style>
<path class="st0" d="M46.2,70.9c0,0,0.1-4,2.4-6.3s2.9-3.5,5.1-3.8c2.2-0.3,4.3,0.1,6.5,1.3s4.2,1.1,5.2,0c0,0-2.3,5.2-6.6,6.5
	c-4.3,1.3-7.8-1-8.9-3.2c0,0,0.5-1.9,6.6-0.9c0,0-3.4-1.5-6-0.6s-3.4,5.3-3.2,6.2l0.2,0.5l-1.2,0.8V70.9z"/>
<g>
	<g>
		<g>
			<path class="st1" d="M36.7,76.5h-3c-0.6,0-1.2,0.5-1.2,1.2s0.5,1.2,1.2,1.2h3c0.6,0,1.2-0.5,1.2-1.2S37.3,76.5,36.7,76.5z"/>
		</g>
	</g>
	<g>
		<g>
			<path class="st1" d="M44,76.5L44,76.5h-3c-0.6,0-1.2,0.5-1.2,1.2s0.5,1.2,1.2,1.2h3c0.6,0,1.2-0.5,1.2-1.2S44.7,76.5,44,76.5z"/>
		</g>
	</g>
	<g>
		<g>
			<path class="st1" d="M51.4,76.5h-3c-0.6,0-1.2,0.5-1.2,1.2s0.5,1.2,1.2,1.2h3c0.6,0,1.2-0.5,1.2-1.2S52,76.5,51.4,76.5z"/>
		</g>
	</g>
	<g>
		<g>
			<path class="st1" d="M58.7,76.5h-3c-0.6,0-1.2,0.5-1.2,1.2s0.5,1.2,1.2,1.2h3c0.6,0,1.2-0.5,1.2-1.2S59.3,76.5,58.7,76.5z"/>
		</g>
	</g>
	<g>
		<g>
			<path class="st1" d="M66.1,76.5L66.1,76.5h-3c-0.6,0-1.2,0.5-1.2,1.2s0.5,1.2,1.2,1.2h3c0.6,0,1.2-0.5,1.2-1.2
				S66.7,76.5,66.1,76.5z"/>
		</g>
	</g>
	<g>
		<g>
			<path class="st1" d="M79,21.6H23.7c-1.5,0-2.7,1.2-2.7,2.7v10.5c0,1.5,1.2,2.7,2.7,2.7h5.1v40.2c0,0.6,0.5,1.2,1.2,1.2
				s1.2-0.5,1.2-1.2V33.4c0-1.5,1.2-2.8,2.8-2.8h35.7c-0.5,0.8-0.8,1.8-0.8,2.8l-0.1,44.2c0,0.6,0.5,1.2,1.2,1.2s1.2-0.5,1.2-1.2
				l0.1-40.2H79c1.5,0,2.7-1.2,2.7-2.7V24.3C81.6,22.8,80.4,21.6,79,21.6z M79.3,24.3v10.5c0,0.2-0.2,0.3-0.3,0.3h-7.8v-1.7
				c0-1.5,1.2-2.8,2.8-2.8h1.2c0.6,0,1.2-0.5,1.2-1.2s-0.5-1.2-1.2-1.2H27.3c-0.6,0-1.2,0.5-1.2,1.2s0.5,1.2,1.2,1.2h2.3
				c-0.5,0.8-0.8,1.8-0.8,2.8v1.7h-5.1c-0.2,0-0.3-0.2-0.3-0.3V24.3c0-0.2,0.2-0.3,0.3-0.3H79C79.2,24,79.3,24.1,79.3,24.3
				L79.3,24.3z"/>
		</g>
	</g>
	<g>
		<g>
			<path class="st1" d="M50.6,41.4H37.4c-0.6,0-1.2,0.5-1.2,1.2s0.5,1.2,1.2,1.2h13.2c0.6,0,1.2-0.5,1.2-1.2S51.3,41.4,50.6,41.4z"
				/>
		</g>
	</g>
	<g>
		<g>
			<path class="st1" d="M62.3,41.4h-6.5c-0.6,0-1.2,0.5-1.2,1.2s0.5,1.2,1.2,1.2h6.5c0.6,0,1.2-0.5,1.2-1.2S62.9,41.4,62.3,41.4z"/>
		</g>
	</g>
	<g>
		<g>
			<path class="st1" d="M50.6,48.3H37.4c-0.6,0-1.2,0.5-1.2,1.2c0,0.6,0.5,1.2,1.2,1.2h13.2c0.6,0,1.2-0.5,1.2-1.2
				C51.8,48.8,51.3,48.3,50.6,48.3z"/>
		</g>
	</g>
	<g>
		<g>
			<path class="st1" d="M62.3,48.3h-6.5c-0.6,0-1.2,0.5-1.2,1.2c0,0.6,0.5,1.2,1.2,1.2h6.5c0.6,0,1.2-0.5,1.2-1.2
				C63.4,48.8,62.9,48.3,62.3,48.3z"/>
		</g>
	</g>
	<g>
		<g>
			<path class="st1" d="M50.6,55.1H37.4c-0.6,0-1.2,0.5-1.2,1.2s0.5,1.2,1.2,1.2h13.2c0.6,0,1.2-0.5,1.2-1.2S51.3,55.1,50.6,55.1z"
				/>
		</g>
	</g>
	<g>
		<g>
			<path class="st1" d="M62.3,55.1h-6.5c-0.6,0-1.2,0.5-1.2,1.2s0.5,1.2,1.2,1.2h6.5c0.6,0,1.2-0.5,1.2-1.2S62.9,55.1,62.3,55.1z"/>
		</g>
	</g>
</g>
<g>
	<path class="st1" d="M45.4,66.8h-5.2c0.1,0.4,0.3,0.8,0.7,1c0.3,0.2,0.8,0.4,1.3,0.4c0.4,0,0.7-0.1,0.9-0.2
		c0.3-0.1,0.5-0.3,0.8-0.5l1.1,1.1c-0.6,0.7-1.6,1.1-2.8,1.1c-0.8,0-1.5-0.2-2.1-0.5c-0.6-0.3-1.1-0.7-1.4-1.3
		c-0.3-0.5-0.5-1.1-0.5-1.8c0-0.7,0.2-1.3,0.5-1.8c0.3-0.5,0.8-1,1.3-1.3c0.6-0.3,1.2-0.5,1.9-0.5c0.7,0,1.3,0.1,1.8,0.4
		s1,0.7,1.3,1.2c0.3,0.5,0.5,1.2,0.5,1.9C45.5,66.3,45.5,66.5,45.4,66.8z M40.8,64.6c-0.3,0.3-0.5,0.6-0.6,1h3.4
		c-0.1-0.4-0.3-0.8-0.6-1c-0.3-0.3-0.7-0.4-1.1-0.4C41.5,64.2,41.1,64.4,40.8,64.6z"/>
</g>
<path class="st1" d="M50.1,99.8c-27.5,0-49.9-22.4-49.9-49.9S22.6,0,50.1,0S100,22.4,100,49.9S77.6,99.8,50.1,99.8z M50.1,2.3
	C23.8,2.3,2.4,23.6,2.4,49.9s21.4,47.6,47.6,47.6s47.6-21.4,47.6-47.6S76.4,2.3,50.1,2.3z"/>
</svg>
