<?xml version="1.0" encoding="utf-8"?>
<!-- Generator: Adobe Illustrator 25.2.1, SVG Export Plug-In . SVG Version: 6.00 Build 0)  -->
<svg version="1.1" id="Layer_1" xmlns="http://www.w3.org/2000/svg" xmlns:xlink="http://www.w3.org/1999/xlink" x="0px" y="0px"
	 viewBox="0 0 100 100" style="enable-background:new 0 0 100 100;" xml:space="preserve">
<style type="text/css">
	.st0{fill:#43277E;}
	.st1{fill:#2BB4B0;}
</style>
<g>
	<path class="st0" d="M81.6,36.9H62.5V26.1c0-2.7-2.2-4.9-4.9-4.9h-24c-2.7,0-4.9,2.2-4.9,4.9v48c0,2.7,2.2,4.9,4.9,4.9h24
		c2.7,0,4.9-2.2,4.9-4.9V63.3h19.1c0.7,0,1.2-0.5,1.2-1.2v-24C82.8,37.4,82.3,36.9,81.6,36.9z M80.4,57v3.9h-3.9
		C77,58.9,78.5,57.4,80.4,57z M80.4,45.6v8.9c-3.3,0.5-5.8,3.1-6.4,6.4H44V39.3h30C74.6,42.5,77.2,45.1,80.4,45.6z M80.4,39.3v3.9
		c-1.9-0.5-3.5-2-3.9-3.9H80.4z M31.1,26.1c0-1.4,1.1-2.5,2.5-2.5h4.6l0.7,2.8c0.1,0.5,0.6,0.9,1.2,0.9h11.1c0.6,0,1-0.4,1.2-0.9
		l0.7-2.8h4.6c1.4,0,2.5,1.1,2.5,2.5v10.8H44v-3.4c0-0.7-0.5-1.2-1.2-1.2s-1.2,0.5-1.2,1.2v32.3c0,0.7,0.5,1.2,1.2,1.2
		s1.2-0.5,1.2-1.2v-2.5h16.1v10.8c0,1.4-1.1,2.5-2.5,2.5h-24c-1.4,0-2.5-1.1-2.5-2.5V26.1z M50.2,24.9H41l-0.4-1.6h10L50.2,24.9z"/>
	<path class="st0" d="M58.5,41.5c-4.7,0-8.6,3.9-8.6,8.6s3.9,8.6,8.6,8.6s8.6-3.9,8.6-8.6C67.1,45.3,63.3,41.5,58.5,41.5z
		 M64.7,50.1c0,3.4-2.8,6.2-6.2,6.2c-3.4,0-6.2-2.8-6.2-6.2c0-3.4,2.8-6.2,6.2-6.2S64.7,46.7,64.7,50.1z"/>
	<path class="st1" d="M60,52c-0.4,0.5-1.1,0.7-2,0.7h-0.4v-2.3l2.8-1.5v-1l-2.8,1.5v-0.7l2.8-1.5v-1l-2.8,1.5V46h-1.9v2.7l-1.2,0.6
		v1l1.2-0.6v0.7l-1.2,0.6v1l1.2-0.6v2.8h1.9c1.1,0,2-0.2,2.7-0.5c0.7-0.3,1.3-0.8,1.7-1.4c0.4-0.6,0.6-1.4,0.6-2.2h-1.9
		C60.6,50.8,60.4,51.5,60,52z"/>
</g>
<path class="st0" d="M50,100C22.4,100,0,77.6,0,50S22.4,0,50,0s50,22.4,50,50S77.6,100,50,100z M50,2.2C23.7,2.2,2.2,23.7,2.2,50
	S23.7,97.8,50,97.8S97.8,76.3,97.8,50S76.3,2.2,50,2.2z"/>
</svg>
