<?xml version="1.0" encoding="utf-8"?>
<!-- Generator: Adobe Illustrator 25.2.1, SVG Export Plug-In . SVG Version: 6.00 Build 0)  -->
<svg version="1.1" id="Layer_1" xmlns="http://www.w3.org/2000/svg" xmlns:xlink="http://www.w3.org/1999/xlink" x="0px" y="0px"
	 viewBox="0 0 100 100" style="enable-background:new 0 0 100 100;" xml:space="preserve">
<style type="text/css">
	.st0{fill:#43277E;}
	.st1{fill:#2BB4B0;}
</style>
<path class="st0" d="M49.9,100C22.4,100,0,77.5,0,49.9S22.4,0,49.9,0S100,22.4,100,49.9S77.5,100,49.9,100z M49.9,2.2
	C23.7,2.2,2.2,23.7,2.2,49.9s21.5,47.7,47.7,47.7s47.7-21.5,47.7-47.7S76.3,2.2,49.9,2.2z"/>
<g>
	<path class="st0" d="M68.5,24.7c0-0.1,0-0.2,0-0.3c0-0.2-0.2-0.5-0.4-0.6c-0.2-0.2-0.4-0.2-0.7-0.2l0,0l-27.6,3.1
		c-2.2,0.3-3.9,2.2-3.9,4.4V35c0,1.7,1,3.3,2.6,4l0,0v3.8h-2.6c-4.4,0-7.9,3.6-8,8v4.9l0,0l-4.2,5c-0.1,0.2-0.2,0.4-0.2,0.6v14
		c0,0.5,0.4,0.9,0.9,0.9h4.4c0.3,0,0.5-0.1,0.7-0.3l5.9-6.7h5.4v0.1c-0.8,3-3.6,5.1-6.7,5.1c-0.5,0-0.9,0.4-0.9,0.9s0.4,0.9,0.9,0.9
		c4.1,0,7.8-2.9,8.6-7l0,0h7.1c0.7,0,1.4-0.2,2-0.6c1.6-1.1,2.1-3.2,1.1-4.8v-0.1h0.1c0.5-0.2,1-0.5,1.4-1c1.3-1.5,1.2-3.6-0.2-4.9
		l0,0l0,0c0.1-0.1,0.2-0.2,0.2-0.2c0.6-0.7,0.9-1.6,0.9-2.6c-0.1-0.9-0.5-1.7-1.1-2.4l0,0l0,0c0.5-0.4,0.8-1,1-1.6
		c0.5-1.8-0.6-3.8-2.4-4.4l0,0v-0.1l1.5-7H65c0.5,0,0.8-0.3,0.9-0.8L68.5,24.7z M41.1,67.5H35c-0.3,0-0.5,0.1-0.7,0.3l-5.9,6.7h-3
		V61.8l0,0l4.2-5c0.1-0.2,0.2-0.4,0.2-0.6v-5.3c0-3.3,2.7-6.1,6.1-6.1h4.4c1.4,0,2.6,1.2,2.6,2.6s-1.2,2.6-2.6,2.6h-3.5
		c-0.5,0-0.9,0.4-0.9,0.9c0,0.5,0.4,1,0.9,1h2.6V52c0,0.9-0.2,2.7-0.9,4.2l0,0c-0.5,1.2-1.3,2.2-2.2,2.7c-0.4,0.3-0.6,0.8-0.3,1.3
		c0.1,0.2,0.3,0.4,0.6,0.4c0.2,0,0.4,0,0.5,0h0.1l0,0l0.1-0.1c0.4-0.2,0.8-0.5,1.1-0.9l0.1-0.1v0.1c0,1.7,1,3.3,2.6,4.1l0,0
		L41.1,67.5L41.1,67.5z M40.4,59.7v-3.2c0.7-1.8,0.8-3.7,0.9-4.7l0,0l0,0c2-0.5,3.5-2.3,3.5-4.3c0-2.4-1.9-4.4-4.3-4.4h-0.1v-3.4
		h11.9l-1.5,6.8h-0.9c-0.6,0-1.2,0.2-1.8,0.5c-0.8,0.5-1.4,1.2-1.7,2.2c-0.2,0.9-0.1,1.8,0.3,2.5v0.1h-0.4c-1.2,0-2.4,0.7-3.1,1.7
		c-0.5,0.8-0.6,1.8-0.4,2.7c0.2,0.9,0.8,1.6,1.5,2.1h0.1l0,0c-0.8,1.1-1,2.6-0.4,3.8v0.1h-1.2C41.5,62.3,40.4,61.1,40.4,59.7z
		 M45,67.4L45,67.4l-2,0.1v-3.4h2.1v0.1C44.5,65.2,44.5,66.4,45,67.4z M49.9,67.5h-1.8c-0.9,0-1.7-0.8-1.7-1.7
		c0-0.9,0.8-1.7,1.7-1.7h1.8c0.9,0,1.7,0.8,1.7,1.7C51.7,66.8,51,67.5,49.9,67.5z M51.8,62.3h-4.4c-0.9,0-1.7-0.8-1.7-1.7
		s0.8-1.7,1.7-1.7h4.4c0.9,0,1.7,0.8,1.7,1.7S52.7,62.3,51.8,62.3z M51.8,57h-5.3c-0.9,0-1.7-0.8-1.7-1.7s0.8-1.7,1.7-1.7h5.3
		c0.9,0,1.7,0.8,1.7,1.7C53.5,56.2,52.7,57,51.8,57z M53.5,49.9c0,0.9-0.8,1.7-1.7,1.7h-1.8c-0.9,0-1.7-0.8-1.7-1.7s0.8-1.7,1.7-1.7
		h1.8C52.7,48.2,53.5,49,53.5,49.9z M40.3,37.6c-1.4,0-2.6-1.2-2.6-2.6v-3.9c0-1.3,1-2.4,2.3-2.6l20.3-2.3v0.1L58,37.6
		C58,37.6,40.3,37.6,40.3,37.6z M64.2,37.6H60v-0.1L62.3,26l0,0l4.1-0.5v0.1L64.2,37.6z"/>
	<path class="st1" d="M70.7,36.8c0.3,0,0.5-0.1,0.7-0.3c1-1,1.6-2.3,1.6-3.8c0-1.4-0.6-2.8-1.6-3.8c-0.4-0.4-1-0.4-1.3,0
		c-0.4,0.4-0.4,0.9,0,1.3l0,0c0.7,0.7,1,1.5,1,2.4s-0.4,1.8-1,2.4c-0.4,0.4-0.4,1,0,1.3C70.2,36.7,70.4,36.8,70.7,36.8z"/>
	<path class="st1" d="M73.2,39.2c0.3,0,0.5-0.1,0.7-0.3c3.4-3.4,3.4-9,0-12.5c-0.2-0.2-0.4-0.3-0.7-0.3c-0.3,0-0.5,0.1-0.7,0.3
		c-0.2,0.2-0.3,0.4-0.3,0.7c0,0.2,0.1,0.5,0.3,0.7c2.7,2.7,2.7,7.1,0,9.8c-0.4,0.4-0.4,0.9,0,1.3C72.7,39.1,72.9,39.2,73.2,39.2z"/>
</g>
</svg>
