<?xml version="1.0" encoding="utf-8"?>
<!-- Generator: Adobe Illustrator 25.2.1, SVG Export Plug-In . SVG Version: 6.00 Build 0)  -->
<svg version="1.1" id="Layer_1" xmlns="http://www.w3.org/2000/svg" xmlns:xlink="http://www.w3.org/1999/xlink" x="0px" y="0px"
	 viewBox="0 0 100 100" style="enable-background:new 0 0 100 100;" xml:space="preserve">
<style type="text/css">
	.st0{fill:#43277E;}
	.st1{fill:#2BB4B0;}
</style>
<g>
	<path class="st0" d="M47.6,31.3v2.4c0,4,3.2,7.2,7.2,7.2c4,0,7.2-3.2,7.2-7.2v-2.4c0.7,0,1.2-0.5,1.2-1.2c0-0.7-0.5-1.2-1.2-1.2
		h-2.4c-0.7,0-1.2,0.5-1.2,1.2c0,0.7,0.5,1.2,1.2,1.2v2.4c0,2.6-2.2,4.8-4.8,4.8c-2.6,0-4.8-2.1-4.8-4.8v-2.4c0.7,0,1.2-0.5,1.2-1.2
		c0-0.7-0.5-1.2-1.2-1.2h-2.4c-0.7,0-1.2,0.5-1.2,1.2C46.4,30.7,47,31.3,47.6,31.3z"/>
	<path class="st0" d="M33.9,78.3c0.2,0.2,0.5,0.4,0.8,0.4c0.3,0,0.6-0.1,0.8-0.4l3.7-3.7c1.2-1.2,1.8-2.8,1.6-4.5l1.3-1.3
		c1-1,2.4-1.6,3.9-1.6h15.8c2.8,0,5.5-1.1,7.5-3.1c0,0,0.1-0.1,0.1-0.1l10.7-12.9c1.7-2,1.5-5.1-0.6-6.8c-2-1.7-5-1.4-6.7,0.5
		l-1.2,1.2V22.8c0-0.7-0.5-1.2-1.2-1.2H39.8c-0.7,0-1.2,0.5-1.2,1.2v26.9c-4.6,1-8.3,3.9-10.3,8.1c-1.6-0.1-3.1,0.5-4.2,1.6L20.4,63
		c-0.2,0.2-0.4,0.5-0.4,0.8c0,0.3,0.1,0.6,0.4,0.8L33.9,78.3z M69.4,24v24.7L66,52.2c-0.9-1.1-2.3-1.8-3.7-1.8H48.3
		c-0.1,0-0.2,0-0.2-0.1c-1.9-0.8-3.8-1.1-5.9-1.1c-0.4,0-0.8,0-1.2,0V24H69.4z M40,51.8c2.4-0.4,4.9-0.1,7.2,0.8
		c0.4,0.2,0.8,0.2,1.1,0.2h13.9c1.3,0,2.4,1.1,2.4,2.4c0,1.3-1.1,2.4-2.4,2.4H51.8c-0.7,0-1.2,0.5-1.2,1.2c0,0.7,0.5,1.2,1.2,1.2
		h10.4c2.6,0,4.8-2.2,4.8-4.8c0-0.2,0-0.4,0-0.6c0.3-0.3,7.5-7.8,7.7-8c0,0,0,0,0.1-0.1c0.9-1,2.4-1.1,3.4-0.3
		c1,0.9,1.1,2.4,0.3,3.4L67.7,62.5c-1.6,1.5-3.6,2.3-5.8,2.3H46.1c-2.1,0-4,0.8-5.5,2.2l-0.5,0.5c-0.2-0.3-0.5-0.6-0.7-0.9L32,59.3
		c-0.4-0.4-0.8-0.7-1.3-1C32.5,54.7,35.7,52.4,40,51.8z M25.8,61c1.3-1.3,3.3-1.2,4.5,0l7.4,7.4c1.2,1.2,1.3,3.2,0,4.5l-2.8,2.8
		L22.9,63.9L25.8,61z"/>
	<path class="st1" d="M36.9,45.3L36.9,45.3c0,0.7-0.5,1.2-1.2,1.2H19.9c-0.7,0-1.2-0.5-1.2-1.2l0,0c0-0.7,0.5-1.2,1.2-1.2h15.8
		C36.3,44.1,36.9,44.7,36.9,45.3z"/>
	<path class="st1" d="M36.9,39.4L36.9,39.4c0,0.7-0.5,1.2-1.2,1.2H22.1c-0.7,0-1.2-0.5-1.2-1.2v0c0-0.7,0.5-1.2,1.2-1.2h13.6
		C36.3,38.2,36.9,38.8,36.9,39.4z"/>
	<path class="st1" d="M36.9,33.5L36.9,33.5c0,0.7-0.5,1.2-1.2,1.2H25.2c-0.7,0-1.2-0.5-1.2-1.2v0c0-0.7,0.5-1.2,1.2-1.2h10.4
		C36.3,32.3,36.9,32.9,36.9,33.5z"/>
</g>
<path class="st0" d="M50.1,100C22.5,100,0.1,77.6,0.1,50.1S22.5,0.1,50.1,0.1S100,22.5,100,50.1S77.6,100,50.1,100z M50.1,2.4
	C23.8,2.4,2.3,23.8,2.3,50.1s21.4,47.7,47.7,47.7s47.7-21.4,47.7-47.7S76.4,2.4,50.1,2.4z"/>
</svg>
