<?xml version="1.0" encoding="utf-8"?>
<!-- Generator: Adobe Illustrator 25.2.1, SVG Export Plug-In . SVG Version: 6.00 Build 0)  -->
<svg version="1.1" id="Layer_1" xmlns="http://www.w3.org/2000/svg" xmlns:xlink="http://www.w3.org/1999/xlink" x="0px" y="0px"
	 viewBox="0 0 100 100" style="enable-background:new 0 0 100 100;" xml:space="preserve">
<style type="text/css">
	.st0{fill:#43277E;}
	.st1{fill:#2BB4B0;}
</style>
<g>
	<path class="st0" d="M67.2,40.4h-2.9v1.9h2.9c1.6,0,2.9,1.3,2.9,2.9v22h-1v-22c0-1.1-0.9-1.9-1.9-1.9h-1v1.9h1v22H32.8v-22h3.8
		v-1.9h-3.8c-1.1,0-1.9,0.9-1.9,1.9v22h-1v-22c0-1.6,1.3-2.9,2.9-2.9h11.5v-1.9H32.8c-2.6,0-4.8,2.1-4.8,4.8v23
		c0,2.6,2.1,4.8,4.8,4.8h13.4v1c0,1.6-1.3,2.9-2.9,2.9c-0.5,0-1,0.4-1,1c0,0.5,0.4,1,1,1h13.4c0.5,0,1-0.4,1-1c0-0.5-0.4-1-1-1
		c-1.6,0-2.9-1.3-2.9-2.9v-1h13.4c2.6,0,4.8-2.1,4.8-4.8v-23C72,42.6,69.9,40.4,67.2,40.4z M52.9,76.8h-5.7c0.6-0.8,1-1.8,1-2.9v-1
		h3.8v1C51.9,75,52.3,76,52.9,76.8z M67.2,71.1H32.8c-1.2,0-2.3-0.8-2.7-1.9H70C69.5,70.3,68.5,71.1,67.2,71.1z"/>
	<path class="st0" d="M49.7,29.2c-0.4-0.4-1-0.4-1.4,0L43.6,34c-0.4,0.4-0.4,1,0,1.4c0.2,0.2,0.4,0.3,0.7,0.3h1.9v11.5h1.9V34.7
		c0-0.5-0.4-1-1-1h-0.6l2.5-2.5l2.5,2.5H51c-0.5,0-1,0.4-1,1v12.4h1.9V35.6h1.9c0.5,0,1-0.4,1-1c0-0.3-0.1-0.5-0.3-0.7L49.7,29.2z"
		/>
	<path class="st0" d="M40.4,50v9.6h1.9V51h1.9c0.5,0,1-0.4,1-1c0-0.3-0.1-0.5-0.3-0.7l-4.8-4.8c-0.4-0.4-1-0.4-1.4,0L34,49.3
		c-0.4,0.4-0.4,1,0,1.4c0.2,0.2,0.4,0.3,0.7,0.3h1.9v8.6h1.9V50c0-0.5-0.4-1-1-1H37l2.5-2.5l2.5,2.5h-0.6C40.9,49,40.4,49.5,40.4,50
		z"/>
	<path class="st0" d="M59.6,44.3v13.4h1.9V45.2h1.9c0.5,0,1-0.4,1-1c0-0.3-0.1-0.5-0.3-0.7l-4.8-4.8c-0.4-0.4-1-0.4-1.4,0l-4.8,4.8
		c-0.4,0.4-0.4,1,0,1.4c0.2,0.2,0.4,0.3,0.7,0.3h1.9v12.4h1.9V44.3c0-0.5-0.4-1-1-1h-0.6l2.5-2.5l2.5,2.5h-0.6
		C60,43.3,59.6,43.7,59.6,44.3z"/>
	<path class="st1" d="M75.9,37.7c-1.7-1.9-3.9-3.2-6.4-3.7c-2.5-9.2-12-14.6-21.2-12.1c-4.1,1.1-7.6,3.7-9.9,7.3
		c-3.6-1-7.3,1.1-8.2,4.7c0,0.1,0,0.1,0,0.2c-6.2,1.5-10,7.7-8.5,13.8c0.6,2.4,1.9,4.6,3.9,6.2l1.2-1.5c-4.1-3.4-4.7-9.4-1.3-13.5
		c1.8-2.2,4.5-3.5,7.4-3.5c0.6,0,1.2,0.1,1.7,0.2l0.3-1.9c-0.7-0.1-1.4-0.2-2.1-0.2c-0.2,0-0.4,0-0.6,0c0.9-2,3-3.2,5.2-2.8
		c-0.2,0.5-0.5,1-0.7,1.5l1.8,0.7c3-7.9,11.8-11.9,19.7-8.9c5.7,2.1,9.5,7.4,9.9,13.4l1.9-0.1c0-0.5-0.1-1-0.1-1.5
		c5.1,1.5,8,6.8,6.5,11.9c-0.5,1.8-1.6,3.5-3.1,4.7l1.2,1.5c4.9-4,5.6-11.3,1.6-16.2C76,37.8,75.9,37.7,75.9,37.7z"/>
</g>
<path class="st0" d="M50,100C22.4,100,0,77.6,0,50S22.4,0,50,0s50,22.4,50,50S77.6,100,50,100z M50,2.2C23.7,2.2,2.2,23.7,2.2,50
	S23.7,97.8,50,97.8S97.8,76.3,97.8,50S76.3,2.2,50,2.2z"/>
</svg>
