<?xml version="1.0" encoding="utf-8"?>
<!-- Generator: Adobe Illustrator 25.2.1, SVG Export Plug-In . SVG Version: 6.00 Build 0)  -->
<svg version="1.1" id="Layer_1" xmlns="http://www.w3.org/2000/svg" xmlns:xlink="http://www.w3.org/1999/xlink" x="0px" y="0px"
	 viewBox="0 0 100 100" style="enable-background:new 0 0 100 100;" xml:space="preserve">
<style type="text/css">
	.st0{fill:#2BB4B0;}
	.st1{fill:#43277E;}
</style>
<g>
	<path class="st0" d="M63.1,41l-3.4,3.4l-1.7-1.7c-0.4-0.4-1-0.4-1.4,0c-0.4,0.4-0.4,1,0,1.4l2.4,2.4c0.2,0.2,0.4,0.3,0.7,0.3
		c0.3,0,0.5-0.1,0.7-0.3l4.1-4.1c0.2-0.2,0.3-0.4,0.3-0.7c0-0.3-0.1-0.5-0.3-0.7C64.2,40.6,63.5,40.6,63.1,41z"/>
	<path class="st1" d="M74,57.5c-0.3,0-0.6,0-0.9,0.1c0-1.8-1.5-3.3-3.3-3.3c-0.5,0-1.1,0.1-1.5,0.4c-0.8-1.2-2.3-1.7-3.7-1.3v-1
		c0-1.8-1.5-3.3-3.3-3.3c-1.8,0-3.3,1.5-3.3,3.3v8.8l-1,0.5c-2.9,1.4-4,5-2.6,7.8c0.5,0.9,1.1,1.7,2,2.2l2.9,1.9
		c0.6,0.4,0.9,1,0.9,1.7v3.8h2.4v-3.8c0-1.5-0.7-2.9-2-3.7l-2.9-1.9c-1.5-1-2-3.1-1-4.6c0.3-0.5,0.8-0.9,1.3-1.2v3.5h2.4V52.3
		c0-0.5,0.4-0.9,0.9-0.9c0.5,0,0.9,0.4,0.9,0.9V61h2.4v-4.4c0-0.5,0.4-0.9,0.9-0.9c0.5,0,0.9,0.4,0.9,0.9v5.5h2.4v-4.4
		c0-0.5,0.4-0.9,0.9-0.9c0.5,0,0.9,0.4,0.9,0.9v5.5h2.4v-2.3c0-0.5,0.4-0.9,0.9-0.9c0.5,0,0.9,0.4,0.9,0.9v3.8c0,2.9-0.7,5.9-2,8.5
		c-0.1,0.2-0.1,0.4-0.1,0.5v5.5h2.4v-5.2c1.4-2.9,2.1-6.1,2.1-9.3v-3.8C77.3,59,75.8,57.5,74,57.5z"/>
	<path class="st1" d="M25.1,61.9V25.7c0-1.1,0.9-2,2-2h44.7c1.1,0,2,0.9,2,2v30h2.4v-30c0-2.4-2-4.4-4.4-4.4H27.1
		c-2.4,0-4.4,2-4.4,4.4l0,36.6c0.4,2.5,2,3.4,2.9,3.8c0.2,0.1,0.5,0.1,0.8,0.2h25.4v-2.4H27.1C26,63.9,25.1,63,25.1,61.9z"/>
	<path class="st1" d="M32.2,46c-1,1.5-1.6,3.2-1.6,5v1.7c0,0.7,0.5,1.2,1.2,1.2h15.6c0.7,0,1.2-0.5,1.2-1.2V51c0-1.8-0.6-3.5-1.6-5
		c-0.9-1.3-2.1-2.3-3.5-3c1-1,1.6-2.4,1.6-3.9c0-3-2.5-5.5-5.5-5.5c-3,0-5.5,2.5-5.5,5.5c0,1.5,0.6,2.8,1.6,3.9
		C34.3,43.7,33.1,44.7,32.2,46z M39.6,44.5c3.6,0,6.5,2.9,6.5,6.5v0.5h-13V51C33.1,47.4,36,44.5,39.6,44.5z M39.6,42
		c-1.7,0-3.1-1.4-3.1-3s1.4-3,3.1-3s3.1,1.4,3.1,3S41.3,42,39.6,42z"/>
</g>
<path class="st1" d="M50,100C22.4,100,0,77.6,0,50S22.4,0,50,0s50,22.4,50,50S77.6,100,50,100z M50,2.2C23.7,2.2,2.2,23.7,2.2,50
	S23.7,97.8,50,97.8S97.8,76.3,97.8,50S76.3,2.2,50,2.2z"/>
</svg>
