<?xml version="1.0" encoding="utf-8"?>
<!-- Generator: Adobe Illustrator 25.2.1, SVG Export Plug-In . SVG Version: 6.00 Build 0)  -->
<svg version="1.1" id="Layer_1" xmlns="http://www.w3.org/2000/svg" xmlns:xlink="http://www.w3.org/1999/xlink" x="0px" y="0px"
	 viewBox="0 0 100 100" style="enable-background:new 0 0 100 100;" xml:space="preserve">
<style type="text/css">
	.st0{fill:#43277E;}
	.st1{fill:#2BB4B0;}
</style>
<g>
	<path class="st0" d="M39.8,20.9l-0.5-0.2l-5,0l-0.1,0c-1.9,0.7-2.8,2.1-2.7,4.3c0.1,1.4,0,2.9,0,4.3l0,2l0,0.2l0,3.9
		c0,0.1,0,0.2,0,0.3l0,0.1l0,8.9c0,0,0,0,0,0.1c0,0,0,0,0,0c-0.3-0.2-0.6-0.4-0.9-0.6c-0.6-0.4-1.3-0.8-1.9-1.2
		c-0.7-0.4-1.6-0.5-2.3-0.1c-0.7,0.4-1.1,1.1-1.1,2c0,1.7,0,3.5,0,5.4c0,0.9,0.4,1.6,1.1,2c0.7,0.4,1.6,0.3,2.4-0.1
		c0.6-0.4,1.2-0.8,1.8-1.2c0.3-0.2,0.6-0.4,0.9-0.6l0,19.7c0,2,0,4,0,6c0,2.2,1.5,3.7,3.7,3.7l0.8,0c0.4,0,0.7,0,1.1,0
		c0.5,0,0.9,0,1.4,0c1.5,0,2.9-1,3.3-2.4c0.1-0.5,0.2-1,0.2-1.6c0-15.3,0-30.7,0-46l0-1.5c0-1.4,0-2.8,0-4.2
		C41.9,22.5,41.1,21.5,39.8,20.9z M38.1,23c1,0,1.3,0.4,1.3,1.4l0,21.8h-5.6l0-15.7l0-0.3l0-5.9c0-0.8,0.4-1.2,1.2-1.2
		C36.1,23,37.1,23,38.1,23z M35.2,77.2c-1,0-1.3-0.4-1.3-1.3c0-8.1,0-16.2,0-24.3l0-2.7c0,0,0-0.1,0-0.1h5.6c0,0,0,0.1,0,0.1l0,27
		c0,1-0.4,1.4-1.4,1.4C37.1,77.2,36.2,77.2,35.2,77.2z M31.3,47.5l-3.7,2.3v-4.6L31.3,47.5z"/>
	<path class="st0" d="M74.6,68.2c0-0.7,0-1.5,0-2.3c0-1.1,0-2.2-0.8-3.1c0.6-0.7,0.8-1.5,0.8-2.5c0-0.8,0-1.6,0-2.5
		c0-0.7,0-1.8-0.8-2.8c0.6-0.7,0.8-1.5,0.8-2.4c0-0.5,0-1,0-1.5c0-0.6,0-1.2,0-1.8c0-1.7-1.2-3-2.8-3.2c-0.6-0.1-1.2-0.1-2-0.1
		c-0.3,0-0.7,0-1,0l-4.6,0c-0.1,0-0.2,0-0.3,0c-0.6,0-1.2,0-1.8,0l-1.4,0l-3.3,0c-2.4,0-4.8,0-7.3,0c-2.2,0-3.6,1.5-3.6,3.6
		c0,0.3,0,0.5,0,0.8c0,0.5,0,1.1,0,1.6c0,1,0,2,0.8,3c-0.6,0.7-0.9,1.6-0.8,2.8c0,0.7,0,1.4,0,2.1c0,0.8,0,1.9,0.8,2.8
		c-0.6,0.7-0.8,1.6-0.8,2.6c0,0.8,0,1.6,0,2.3c-0.1,1.2,0.2,2.1,0.8,2.8c-0.6,0.7-0.9,1.6-0.8,2.6c0,0.6,0,1.2,0,1.8
		c0,0.3,0,0.6,0,1c0,2.1,1.5,3.5,3.5,3.5c3.4,0,6.9,0,10.3,0l7.5,0l0.3,0c1,0,2.1,0,3.1,0c1.8,0,3.2-1.5,3.3-3.2c0-0.4,0-0.9,0-1.3
		c0-0.4,0-0.9,0-1.3c0-1.1,0-2.1-0.8-3C74.3,69.9,74.6,69.1,74.6,68.2z M63.4,77.2c-0.1,0-0.2,0-0.3,0l-12.8,0c-1,0-1.3-0.4-1.3-1.3
		c0-0.9,0-1.7,0-2.6c0-1.1,0.3-1.4,1.4-1.4c0.5,0,0.9,0,1.4,0h19c1,0,1.4,0.3,1.4,1.3c0,0.9,0,1.8,0,2.7c0,0.9-0.4,1.3-1.3,1.3
		c-0.8,0-1.5,0-2.3,0h-0.3v0L63.4,77.2z M48.9,50.2c0-0.7,0.1-1.1,0.3-1.3c0.2-0.2,0.6-0.3,1.3-0.3c0,0,0,0,0,0c3.5,0,6.9,0,10.4,0
		l9.2,0c0.3,0,0.6,0,0.9,0c0.8,0,1.1,0.4,1.1,1.2c0,1,0,1.9,0,2.9c0,0.8-0.4,1.2-1.2,1.2c-6.9,0-13.9,0-20.8,0
		c-0.8,0-1.2-0.4-1.2-1.2c0-0.4,0-0.8,0-1.2C48.9,51.1,48.9,50.7,48.9,50.2z M50.2,56.4c2.9,0,5.7,0,8.6,0l4.5,0l7.4,0
		c1.1,0,1.4,0.3,1.4,1.4l0,1c0,0.6,0,1.2,0,1.8c0,0.7-0.4,1.1-1.1,1.1c-2.6,0-5.2,0-7.8,0h-2.6l-10.3,0c-0.9,0-1.2-0.4-1.3-1.3
		c0-0.8,0-1.6,0-2.5l0-0.3C48.9,56.8,49.3,56.4,50.2,56.4z M70.9,69.4c-2.5,0-5,0-7.5,0H50.2c-1,0-1.3-0.3-1.3-1.3
		c0-0.9,0-1.8,0-2.7c0-1,0.3-1.3,1.3-1.3c1.1,0,2.3,0,3.4,0c0.8,0,1.5,0,2.3,0l14.7,0c1.2,0,1.5,0.3,1.5,1.5l0,0.3
		c0,0.8,0,1.5,0,2.3C72.1,69,71.7,69.4,70.9,69.4z"/>
</g>
<path class="st0" d="M49.8,100.2c-27.6,0-50.1-22.5-50.1-50.1S22.2,0,49.8,0s50.1,22.5,50.1,50.1S77.5,100.2,49.8,100.2z M49.8,2.2
	C23.5,2.2,2,23.7,2,50.1s21.5,47.8,47.8,47.8s47.8-21.5,47.8-47.8S76.2,2.2,49.8,2.2z"/>
<rect x="33.9" y="46.2" class="st1" width="5.6" height="2.5"/>
</svg>
