<?xml version="1.0" encoding="utf-8"?>
<!-- Generator: Adobe Illustrator 25.2.1, SVG Export Plug-In . SVG Version: 6.00 Build 0)  -->
<svg version="1.1" id="Layer_1" xmlns="http://www.w3.org/2000/svg" xmlns:xlink="http://www.w3.org/1999/xlink" x="0px" y="0px"
	 viewBox="0 0 100 100" style="enable-background:new 0 0 100 100;" xml:space="preserve">
<style type="text/css">
	.st0{fill:#2BB4B0;}
	.st1{fill:#43277E;}
</style>
<path class="st0" d="M41.5,26.5l-3.4,3.4l-1.7-1.7c-0.4-0.4-1-0.4-1.4,0c-0.4,0.4-0.4,1,0,1.4l2.4,2.4c0.2,0.2,0.4,0.3,0.7,0.3
	c0.3,0,0.5-0.1,0.7-0.3l4.1-4.1c0.2-0.2,0.3-0.4,0.3-0.7c0-0.3-0.1-0.5-0.3-0.7C42.5,26.1,41.9,26.1,41.5,26.5z"/>
<g>
	<path class="st1" d="M72.3,56.8C72.3,56.8,72.3,56.8,72.3,56.8c-1.6,0-3.3,0-4.9,0c-1.8,0-3.7,0-5.5,0c0,0,0,0,0,0
		c-0.3,0-0.4-0.1-0.5-0.3c-0.7-1.7-2.1-2.7-3.9-2.7c-2.1,0-4.2,0-6.3,0c0,0,0,0,0,0c-1.6,0-3.1-0.3-4.5-1c-2.1-1-4.4-1.7-6.7-1.9
		c-2.8-0.3-5,0.4-6.8,2.1c-1.6,1.5-2.7,3.2-3.3,5.2c-0.3,1.1-1,1.7-1.7,2.5c-0.2,0.2-0.4,0.4-0.6,0.6c-0.9-0.6-1.4-0.6-2,0.1
		c-1.2,1.2-2.5,2.5-3.7,3.7c-0.6,0.6-0.6,1.2,0,1.9l0.3,0.3l-0.9,0.9c-0.9,0.9-1.9,1.8-2.8,2.7c-0.4,0.4-0.6,0.8-0.6,1.3
		c0,1.3,0,2.5,0,3.8l0,1.7c0,1.1,0.4,1.5,1.5,1.5c1,0,2,0,3,0c2.4,0,4.9,0,7.3,0c1.3,0,2.4-0.2,3.1-1.2c0,0,0,0,0.1,0c0,0,0,0,0,0
		c0,0.1,0.1,0.1,0.1,0.2c0.2,0.2,0.4,0.4,0.6,0.6c0.3,0.3,0.7,0.5,1,0.5c0.3,0,0.6-0.2,1-0.5c1.3-1.2,2.5-2.5,3.8-3.8
		c0.7-0.7,0.7-1.3,0-2c-0.2-0.3-0.5-0.5-0.8-0.7L38.2,72l0.6-0.6c0.7-0.7,1.4-1.4,2.1-2.1c0.1-0.1,0.2-0.1,0.4-0.1
		c1.8,0.1,3.6,0.2,5.4,0.4c2.7,0.2,5.3,0.4,8,0.5c0.4,0,1,0,1.5-0.1c5.3-1.7,10.8-3.5,16.8-5.4c0.5-0.2,1.1-0.4,1.5-0.8
		c1.5-1,2-2.5,1.4-4.4C75.6,57.8,74.1,56.8,72.3,56.8z M29.8,76.8c-1.4,0-2.9,0-4.3,0c-0.8,0-1.6,0-2.4,0l-3,0v-0.7
		c0-1.2,0-2.4,0-3.5c0,0,0-0.1,0.1-0.1c1.1-1.1,2.1-2.2,3.2-3.2l0.2-0.2l7.3,7.3C30.7,76.6,30.4,76.8,29.8,76.8z M58.8,59.1
		c-0.4,0.4-0.9,0.6-1.6,0.6c0,0,0,0,0,0c-2.3,0-4.6,0-6.9,0l-3.5,0v2.4h1.6c0.8,0,1.7,0,2.5,0c1.9,0,3.9,0,5.8,0c0.1,0,0.1,0,0.2,0
		c2.3,0,3.7-1,4.5-3l6.6,0c1.3,0,2.6,0,3.9,0c1.2,0,1.6,0.3,1.8,1.4c0.1,0.5-0.1,0.9-0.5,1.2c-0.3,0.2-0.6,0.4-0.9,0.5L69.9,63
		c-4.6,1.5-9.4,3.1-14.1,4.5c-0.6,0.2-1.3,0.1-2,0.1c-0.1,0-0.3,0-0.4,0c-2.1-0.1-4.3-0.3-6.4-0.4L43.4,67c-0.8-0.1-1.7-0.1-2.5-0.2
		c-0.6,0-1,0.1-1.4,0.6c-0.7,0.7-1.4,1.4-2.1,2.1l-0.7,0.7l-7.3-7.3c0.1-0.1,0.2-0.2,0.4-0.3c0.4-0.4,0.9-0.8,1.3-1.3
		c0.4-0.4,0.7-0.9,0.8-1.3c0.8-2.2,1.7-3.8,2.9-5c1.3-1.3,2.9-1.8,4.9-1.7c2.1,0.2,4.1,0.8,6.2,1.8c1.6,0.8,3.2,1.1,5,1.1
		c0,0,0.1,0,0.1,0c2.1,0,4.3,0,6.6,0c0.8,0,1.4,0.4,1.7,1.1C59.4,57.9,59.3,58.6,58.8,59.1z M36.6,74l-2.1,2.1L24.4,65.9l2.1-2.1
		L36.6,74z"/>
	<path class="st1" d="M82.1,29.5c-0.1-0.1-0.2-0.1-0.3-0.2c-0.2-0.2-0.5-0.4-0.8-0.4c-1.8-0.1-3.7,0-5.5,0l-0.5,0
		c-0.7,0-1.2,0.5-1.2,1.2c0,0.2,0,0.4,0,0.6l0,0.1c-0.1,0-0.3,0-0.4,0c-0.4,0-0.8,0-1.2,0c-0.5,0-1-0.1-1.5-0.5
		c-2.8-2-5.7-4-8.7-6.1c-0.3-0.2-0.8-0.4-1.2-0.4c-0.6,0-1.3,0-1.9,0c-0.2,0-0.4,0-0.6,0c-0.3-1.9-1.5-3-3.1-3
		c-11.4,0-22.7,0-34.1,0c-1.7,0-3.1,1.4-3.1,3.1c0,7.4,0,14.7,0,22.1c0,1.7,1.4,3.1,3.1,3.1c11.4,0,22.7,0,34.1,0
		c1.4,0,2.6-0.9,3-2.3c0.1-0.2,0.1-0.4,0.1-0.6c0,0,0-0.1,0-0.1h0.7c0,0.1,0,0.1,0.1,0.2c0.7,1.9,2,2.8,4,2.8c0,0,0,0,0,0l1.3,0
		c1.2,0,2.4,0,3.6,0c0.3,0,0.7,0,1-0.1c1.5-0.3,2.6-1.3,3.1-2.9h1.7v1.5c0,0.6,0.1,0.9,0.3,1.1c0.2,0.2,0.6,0.3,1.1,0.3
		c0.6,0,1.1,0,1.7,0c1.2,0,2.5,0,3.8,0c0,0,0,0,0,0c0.6,0,1.1-0.2,1.4-0.7l0,0L82.1,29.5L82.1,29.5z M79.8,31.2v15.5h-3.5V31.2H79.8
		z M59.8,43.8c-0.3,0-0.5,0-0.8,0c-0.5,0-0.9,0-1.4,0c-1.2,0-2.3,0-3.5,0c-0.7,0-1.3-0.3-1.7-0.8c-0.3-0.5-0.4-1.1-0.2-1.6
		c0.3-0.7,1-1.2,1.8-1.2c2,0,3.8,0,5.6,0c0.6,0,1-0.2,1.3-0.6c0.9-0.9,1.7-1.8,2.6-2.7l1.3-1.3l-1.8-1.8l-0.1,0.2
		c-0.1,0.2-0.3,0.3-0.4,0.5c-0.3,0.3-0.6,0.7-0.9,1c-0.2,0.2-0.4,0.4-0.6,0.6c-0.3,0.3-0.6,0.6-0.9,0.9c-0.6,0.7-1.2,1-2.1,0.8V26.2
		c0.2,0,0.4,0,0.7,0c1,0,1.9,0,2.8,0.7c2.2,1.6,4.4,3.2,6.6,4.7c0.6,0.4,1.2,0.8,1.7,1.2c0.3,0.2,0.8,0.4,1.2,0.4c0.6,0,1.2,0,1.9,0
		c0.2,0,0.4,0,0.6,0v10.6l-0.6,0c-0.6,0-1.3,0-1.9,0c-1,0-1.3,0.4-1.4,1.3c-0.1,1-0.8,1.7-1.8,1.7c-1.4,0-3,0-5,0
		c-1,0-1.7-0.7-1.8-1.7C61.1,44.2,60.7,43.8,59.8,43.8z M55.8,37.8h-1.7c-1.5,0-2.8,0.7-3.6,1.9L44.6,34l11.2-9.4V37.8z M52.6,46.8
		l-30.4,0l11.2-11.2l0.3,0.2c1,0.9,2.2,1.8,3.3,2.8c0.8,0.7,1.2,0.7,2,0c0.9-0.8,1.9-1.6,2.8-2.4l0.9-0.8l7.1,7.1
		c0.3,1.8,1.6,3.2,3.4,3.5c0.6,0.1,1.2,0.1,1.8,0c0.2,0,0.4,0,0.6,0c-0.1,0.5-0.3,0.6-0.9,0.7C54.1,46.8,53.4,46.8,52.6,46.8z
		 M38,36.4L22.4,23.2h31.3L38,36.4z M31.2,33.9l-11,11V24.6L31.2,33.9z"/>
</g>
<path class="st1" d="M50,100C22.4,100,0,77.6,0,50S22.4,0,50,0s50,22.4,50,50S77.6,100,50,100z M50,2.2C23.7,2.2,2.2,23.7,2.2,50
	S23.7,97.8,50,97.8S97.8,76.3,97.8,50S76.3,2.2,50,2.2z"/>
</svg>
