<?xml version="1.0" encoding="utf-8"?>
<!-- Generator: Adobe Illustrator 25.2.1, SVG Export Plug-In . SVG Version: 6.00 Build 0)  -->
<svg version="1.1" id="Layer_1" xmlns="http://www.w3.org/2000/svg" xmlns:xlink="http://www.w3.org/1999/xlink" x="0px" y="0px"
	 viewBox="0 0 100 100" style="enable-background:new 0 0 100 100;" xml:space="preserve">
<style type="text/css">
	.st0{fill:#2BB4B0;}
	.st1{fill:#43277E;}
</style>
<g>
	<path class="st0" d="M73.9,61h-5.6c-0.6,0-1-0.5-1-1v-5.6c0-0.7-0.6-1.3-1.3-1.3s-1.3,0.6-1.3,1.3v7.9c0,0.7,0.6,1.3,1.3,1.3h7.9
		c0.7,0,1.3-0.6,1.3-1.3S74.6,61,73.9,61z"/>
	<path class="st1" d="M66,45.1c-2.7,0-5.2,0.6-7.6,1.8v-1.8c0-0.5-0.4-0.8-0.8-0.8h-7.9c-0.5,0-0.8,0.4-0.8,0.8V53
		c0,0.5,0.4,0.8,0.8,0.8h1.4c-1.5,2.6-2.3,5.5-2.3,8.5c0,9.5,7.7,17.2,17.2,17.2s17.2-7.7,17.2-17.2S75.5,45.1,66,45.1z M80.5,62.3
		c0,7.9-6.6,14.5-14.5,14.5c-7.9,0-14.5-6.6-14.5-14.5c0-7.9,6.6-14.5,14.5-14.5C73.9,47.8,80.5,54.4,80.5,62.3z M52.8,51.4h-1
		c-0.3,0-0.5-0.2-0.5-0.5v-3.7c0-0.3,0.2-0.5,0.5-0.5h3.7c0.3,0,0.5,0.2,0.5,0.5v1.2C54.8,49.2,53.7,50.3,52.8,51.4z"/>
	<path class="st1" d="M39.5,45.1c0-0.5-0.4-0.8-0.8-0.8h-7.9c-0.5,0-0.8,0.4-0.8,0.8V53c0,0.5,0.4,0.8,0.8,0.8h7.9
		c0.5,0,0.8-0.4,0.8-0.8V45.1z M37.1,47.2v3.7c0,0.3-0.2,0.5-0.5,0.5h-3.7c-0.3,0-0.5-0.2-0.5-0.5v-3.7c0-0.3,0.2-0.5,0.5-0.5h3.7
		C36.8,46.7,37.1,46.9,37.1,47.2z"/>
	<path class="st1" d="M38.7,57.5h-7.9c-0.5,0-0.8,0.4-0.8,0.8v7.9c0,0.5,0.4,0.8,0.8,0.8h7.9c0.5,0,0.8-0.4,0.8-0.8v-7.9
		C39.5,57.9,39.1,57.5,38.7,57.5z M37.1,60.5v3.7c0,0.3-0.2,0.5-0.5,0.5h-3.7c-0.3,0-0.5-0.2-0.5-0.5v-3.7c0-0.3,0.2-0.5,0.5-0.5
		h3.7C36.8,59.9,37.1,60.2,37.1,60.5z"/>
	<path class="st1" d="M42.2,69H20.6c-0.5,0-0.9-0.4-0.9-0.9V40.7c0-0.5,0.4-0.9,0.9-0.9h53.3c0.7,0,1.2-0.5,1.2-1.2V22.7
		c0-0.7-0.5-1.2-1.2-1.2H18.5c-0.7,0-1.2,0.5-1.2,1.2v47.5c0,0.7,0.5,1.2,1.2,1.2h23.7c0.7,0,1.2-0.5,1.2-1.2
		C43.5,69.5,42.9,69,42.2,69z M72.7,36.4c0,0.5-0.4,0.9-0.9,0.9H20.6c-0.5,0-0.9-0.4-0.9-0.9V24.8c0-0.5,0.4-0.9,0.9-0.9h51.2
		c0.5,0,0.9,0.4,0.9,0.9V36.4z"/>
</g>
<path class="st1" d="M49.8,100.4c-27.7,0-50.2-22.5-50.2-50.2S22.1,0,49.8,0S100,22.5,100,50.2S77.5,100.4,49.8,100.4z M49.8,2.2
	c-26.4,0-48,21.5-48,48s21.5,48,48,48s48-21.5,48-48S76.2,2.2,49.8,2.2z"/>
</svg>
